<svg xmlns="http://www.w3.org/2000/svg" xmlns:xlink="http://www.w3.org/1999/xlink" width="500" zoomAndPan="magnify" viewBox="0 0 375 374.999991" height="500" preserveAspectRatio="xMidYMid meet" version="1.0"><defs><g/><clipPath id="e9542f205a"><path d="M 118 3.324219 L 336 3.324219 L 336 221 L 118 221 Z M 118 3.324219 " clip-rule="nonzero"/></clipPath><clipPath id="d9ee139d57"><path d="M 110.023438 132.152344 L 260 132.152344 L 260 277.652344 L 110.023438 277.652344 Z M 110.023438 132.152344 " clip-rule="nonzero"/></clipPath></defs><path fill="#ffffff" d="M 210.074219 317.265625 C 208.679688 318 206.921875 318.21875 205.527344 317.410156 C 203.839844 316.457031 203.109375 314.480469 202.667969 312.574219 C 201.640625 307.808594 203.839844 291.96875 211.90625 297.6875 C 217.992188 301.796875 216.085938 313.964844 210.074219 317.265625 Z M 251.496094 248.347656 C 246.585938 247.175781 243.507812 253.917969 242.480469 257.511719 C 241.894531 259.710938 241.453125 262.128906 242.40625 264.183594 C 243.800781 267.191406 247.832031 268.4375 250.910156 267.191406 C 253.992188 265.941406 256.042969 262.863281 256.628906 259.566406 C 257.289062 256.191406 255.601562 249.375 251.496094 248.347656 Z M 251.351562 198.050781 C 242.699219 192.917969 241.378906 213.375 246.070312 216.382812 C 253.550781 221.367188 259.5625 203.039062 251.351562 198.050781 Z M 161.609375 314.992188 C 161.757812 316.457031 162.050781 317.925781 162.855469 319.171875 C 162.929688 319.246094 162.929688 319.316406 163.003906 319.390625 C 164.46875 321.515625 167.328125 322.398438 169.96875 322.175781 C 195.117188 319.976562 158.164062 281.265625 161.609375 314.992188 Z M 325.695312 169.898438 C 325.765625 169.824219 325.765625 169.75 325.839844 169.679688 C 326.648438 168.503906 327.015625 167.039062 327.234375 165.574219 C 332.21875 132.066406 293.507812 168.945312 318.582031 172.390625 C 321.222656 172.683594 324.082031 171.949219 325.695312 169.898438 Z M 280.75 146.804688 C 276.058594 151.496094 274.738281 159.265625 278.550781 164.765625 C 279.578125 166.230469 280.972656 167.550781 282.65625 168.136719 C 284.34375 168.796875 286.324219 168.726562 287.863281 167.699219 C 289.695312 166.453125 290.503906 164.105469 290.867188 161.90625 C 291.308594 159.558594 291.382812 157.140625 291.308594 154.722656 C 290.941406 148.929688 286.835938 140.792969 280.75 146.804688 Z M 281.777344 296.222656 C 275.546875 300.109375 276.863281 312.351562 282.730469 315.871094 C 284.050781 316.679688 285.808594 316.972656 287.277344 316.238281 C 289.035156 315.359375 289.84375 313.378906 290.355469 311.546875 C 291.527344 306.855469 290.136719 290.945312 281.777344 296.222656 Z M 247.171875 296.148438 C 242.992188 296.957031 241.085938 303.703125 241.527344 307.148438 C 241.964844 310.445312 243.871094 313.671875 246.878906 315.066406 C 249.882812 316.457031 253.988281 315.359375 255.53125 312.425781 C 256.554688 310.375 256.261719 307.953125 255.75 305.753906 C 254.871094 302.160156 252.082031 295.269531 247.171875 296.148438 Z M 320.046875 200.179688 C 311.25 200.910156 312.421875 213.816406 316.457031 218.945312 C 317.554688 220.265625 319.09375 221.292969 320.855469 221.367188 C 322.90625 221.367188 324.8125 220.046875 325.839844 218.289062 C 328.773438 213.007812 328.554688 199.445312 320.046875 200.179688 Z M 285.296875 196.511719 C 279.429688 196.804688 278.476562 208.167969 279.285156 212.273438 C 279.796875 214.988281 281.628906 217.847656 284.34375 217.921875 C 285.808594 217.921875 287.203125 217.113281 288.15625 215.941406 C 289.035156 214.769531 289.550781 213.375 289.914062 211.910156 C 290.796875 208.167969 291.820312 196.21875 285.296875 196.511719 Z M 323.496094 272.101562 C 326.207031 271.003906 327.820312 268.214844 328.332031 265.355469 C 328.847656 262.496094 328.332031 259.566406 327.820312 256.777344 C 327.015625 252.746094 326.5 246.441406 321.222656 248.714844 C 317.554688 250.328125 314.328125 255.972656 313.375 259.566406 C 312.496094 262.789062 312.789062 266.457031 314.695312 269.167969 C 316.601562 271.957031 320.414062 273.421875 323.496094 272.101562 Z M 285.738281 250.691406 C 279.503906 247.6875 279.066406 259.492188 279.503906 263.082031 C 279.652344 264.625 280.019531 266.164062 280.75 267.410156 C 281.558594 268.730469 282.878906 269.753906 284.34375 269.902344 C 286.394531 270.121094 288.375 268.582031 289.253906 266.675781 C 291.160156 262.644531 290.429688 252.964844 285.738281 250.691406 Z M 251.496094 164.839844 C 256.335938 161.980469 255.96875 141.523438 247.097656 146.21875 C 238.59375 150.761719 243.726562 169.386719 251.496094 164.839844 Z M 322.613281 322.765625 C 325.179688 323.128906 328.113281 322.398438 329.652344 320.269531 C 329.726562 320.199219 329.726562 320.125 329.800781 320.050781 C 330.605469 318.878906 330.972656 317.410156 331.191406 315.945312 C 336.25 282.511719 297.539062 319.390625 322.613281 322.765625 Z M 157.503906 79.863281 C 165.644531 85.511719 167.769531 69.675781 166.742188 64.980469 C 166.375 63.074219 165.570312 61.023438 163.882812 60.144531 C 162.492188 59.410156 160.730469 59.554688 159.339844 60.289062 C 153.398438 63.441406 151.492188 75.613281 157.503906 79.863281 Z M 117.914062 129.0625 C 122.828125 130.234375 125.90625 123.488281 126.933594 119.894531 C 127.519531 117.695312 127.957031 115.277344 127.003906 113.222656 C 125.613281 110.21875 121.578125 108.972656 118.5 110.21875 C 115.421875 111.464844 113.367188 114.542969 112.78125 117.84375 C 112.195312 121.289062 113.808594 128.109375 117.914062 129.0625 Z M 118.132812 179.355469 C 126.785156 184.488281 128.105469 164.03125 123.414062 161.027344 C 115.859375 156.113281 109.921875 174.445312 118.132812 179.355469 Z M 207.875 62.414062 C 207.726562 60.949219 207.433594 59.484375 206.628906 58.238281 C 206.554688 58.164062 206.554688 58.089844 206.480469 58.015625 C 205.015625 55.890625 202.15625 55.011719 199.515625 55.230469 C 174.292969 57.503906 211.246094 96.140625 207.875 62.414062 Z M 43.789062 207.582031 C 43.71875 207.65625 43.71875 207.730469 43.644531 207.804688 C 42.835938 208.976562 42.472656 210.441406 42.25 211.910156 C 37.265625 245.414062 75.976562 208.535156 50.902344 205.089844 C 48.261719 204.722656 45.332031 205.53125 43.789062 207.582031 Z M 88.660156 230.679688 C 93.351562 225.984375 94.671875 218.214844 90.859375 212.714844 C 89.832031 211.25 88.441406 209.929688 86.753906 209.34375 C 85.066406 208.683594 83.089844 208.757812 81.550781 209.78125 C 79.714844 211.027344 78.910156 213.375 78.542969 215.574219 C 78.101562 217.921875 78.03125 220.339844 78.101562 222.757812 C 78.46875 228.550781 82.648438 236.691406 88.660156 230.679688 Z M 87.707031 81.257812 C 93.941406 77.371094 92.621094 65.128906 86.753906 61.609375 C 85.433594 60.800781 83.675781 60.507812 82.207031 61.242188 C 80.449219 62.121094 79.644531 64.101562 79.128906 65.933594 C 77.882812 70.628906 79.277344 86.464844 87.707031 81.257812 Z M 122.3125 81.257812 C 126.492188 80.453125 128.398438 73.707031 127.957031 70.261719 C 127.519531 66.960938 125.613281 63.734375 122.605469 62.34375 C 119.601562 60.949219 115.496094 62.050781 113.957031 64.980469 C 112.929688 67.035156 113.222656 69.453125 113.734375 71.652344 C 114.613281 75.320312 117.328125 82.210938 122.3125 81.257812 Z M 49.4375 177.230469 C 58.234375 176.496094 57.0625 163.59375 53.027344 158.460938 C 51.929688 157.140625 50.390625 156.113281 48.628906 156.042969 C 46.578125 156.042969 44.671875 157.359375 43.644531 159.121094 C 40.636719 164.398438 40.859375 177.964844 49.4375 177.230469 Z M 84.1875 180.894531 C 90.054688 180.601562 91.007812 169.238281 90.199219 165.132812 C 89.6875 162.417969 87.855469 159.558594 85.140625 159.488281 C 83.675781 159.488281 82.28125 160.292969 81.328125 161.464844 C 80.449219 162.640625 79.9375 164.03125 79.570312 165.5 C 78.617188 169.3125 77.664062 181.261719 84.1875 180.894531 Z M 45.992188 105.304688 C 43.277344 106.40625 41.664062 109.191406 41.152344 112.050781 C 40.636719 114.910156 41.152344 117.84375 41.664062 120.628906 C 42.472656 124.660156 42.984375 130.96875 48.261719 128.695312 C 51.929688 127.082031 55.15625 121.4375 56.109375 117.84375 C 56.988281 114.617188 56.695312 110.953125 54.789062 108.238281 C 52.882812 105.527344 49.070312 104.058594 45.992188 105.304688 Z M 83.75 126.789062 C 89.980469 129.792969 90.421875 117.988281 89.980469 114.398438 C 89.832031 112.859375 89.46875 111.316406 88.734375 110.070312 C 87.925781 108.75 86.609375 107.726562 85.140625 107.578125 C 83.089844 107.359375 81.109375 108.898438 80.230469 110.804688 C 78.324219 114.835938 79.054688 124.515625 83.75 126.789062 Z M 117.988281 212.640625 C 113.148438 215.5 113.515625 235.957031 122.386719 231.265625 C 130.890625 226.71875 125.757812 208.097656 117.988281 212.640625 Z M 46.871094 54.71875 C 44.304688 54.351562 41.371094 55.085938 39.832031 57.210938 C 39.757812 57.285156 39.757812 57.355469 39.683594 57.429688 C 38.878906 58.601562 38.511719 60.070312 38.292969 61.535156 C 33.160156 94.96875 71.945312 58.089844 46.871094 54.71875 Z M 46.871094 54.71875 " fill-opacity="1" fill-rule="nonzero"/><path fill="#b6b9ae" d="M 248.859375 220.632812 C 249.078125 230.972656 248.566406 241.457031 247.832031 251.792969 C 246.21875 275.035156 243.578125 298.570312 234.269531 319.976562 C 224.957031 341.3125 208.09375 360.449219 185.878906 367.339844 C 171.949219 371.667969 156.992188 371.007812 142.546875 368.953125 C 128.472656 366.972656 113.808594 363.308594 103.398438 353.628906 C 87.707031 339.039062 85.875 315.359375 79.347656 294.902344 C 72.382812 272.910156 58.820312 253.039062 40.929688 238.449219 C 33.601562 232.4375 25.316406 227.085938 20.328125 219.019531 C 13.949219 208.683594 14.097656 195.558594 16.589844 183.683594 C 20.476562 165.207031 30.667969 146.949219 47.53125 138.445312 C 66.007812 129.0625 89.027344 132.652344 107.503906 123.269531 C 112.707031 120.628906 117.621094 117.695312 122.460938 114.835938 C 134.265625 107.726562 248.566406 207.144531 248.859375 220.632812 Z M 248.859375 220.632812 " fill-opacity="1" fill-rule="nonzero"/><g clip-path="url(#e9542f205a)"><path fill="#f1bfa8" d="M 152.667969 23.851562 C 176.714844 15.054688 201.421875 4.496094 227.375 3.910156 C 254.355469 3.324219 281.265625 11.386719 304.210938 25.609375 C 313.742188 31.550781 322.90625 38.808594 328.480469 48.632812 C 335.003906 60.070312 336.03125 73.851562 334.566406 86.902344 C 332.953125 101.347656 328.625 115.277344 324.15625 129.0625 C 317.921875 148.195312 311.398438 167.183594 304.578125 186.101562 C 300.621094 197.023438 295.925781 208.683594 286.03125 214.769531 C 279.136719 219.019531 270.707031 219.753906 262.566406 220.195312 C 242.847656 221.292969 222.023438 220.925781 205.015625 211.027344 C 176.496094 194.460938 167.402344 157.289062 143.207031 134.925781 C 134.558594 126.933594 123.558594 120.261719 119.894531 109.117188 C 117.546875 102.078125 118.648438 94.382812 119.671875 87.050781 C 123.046875 63.882812 127.664062 32.941406 152.667969 23.851562 Z M 152.667969 23.851562 " fill-opacity="1" fill-rule="nonzero"/></g><path fill="#859588" d="M 205.015625 211.027344 C 176.496094 194.460938 167.402344 157.289062 143.207031 134.925781 C 136.097656 128.402344 127.519531 122.753906 122.53125 114.765625 C 134.335938 107.726562 145.703125 100.832031 160.144531 97.972656 C 183.53125 93.28125 200.101562 108.457031 213.007812 125.90625 C 225.542969 142.84375 237.128906 160.878906 243.210938 181.042969 C 247.097656 193.871094 248.566406 207.214844 248.859375 220.707031 C 233.535156 220.632812 218.136719 218.652344 205.015625 211.027344 Z M 205.015625 211.027344 " fill-opacity="1" fill-rule="nonzero"/><path fill="#cb836d" d="M 291.308594 319.023438 C 290.28125 282.953125 289.402344 238.667969 288.449219 195.851562 C 287.570312 153.035156 286.617188 108.75 285.589844 72.679688 L 285.589844 71.726562 L 284.636719 71.582031 C 277.597656 70.628906 270.191406 69.894531 262.128906 69.378906 C 261.761719 63.367188 261.101562 57.941406 260.222656 53.472656 C 259.050781 47.3125 255.894531 46.871094 254.578125 47.019531 C 251.570312 47.238281 248.566406 50.613281 248.417969 53.984375 C 248.199219 58.382812 248.417969 63.589844 248.785156 68.867188 C 237.128906 68.574219 225.324219 68.792969 214.253906 69.015625 C 213.738281 64.6875 213.152344 60.730469 212.417969 57.503906 C 211.832031 54.863281 210.21875 53.398438 208.167969 53.542969 C 205.675781 53.691406 203.546875 56.183594 203.183594 59.191406 C 202.886719 62.121094 202.667969 65.640625 202.59375 69.308594 C 192.402344 69.527344 181.480469 69.746094 167.550781 69.894531 C 166.15625 60.65625 164.105469 57.871094 162.199219 56.625 C 160.730469 55.742188 158.972656 55.742188 156.992188 56.695312 C 155.085938 57.648438 154.9375 60.289062 154.792969 63.367188 C 154.792969 63.734375 154.71875 64.175781 154.71875 64.542969 C 154.574219 66.226562 154.574219 68.0625 154.574219 70.039062 L 147.3125 70.113281 C 137.929688 70.1875 128.324219 70.332031 118.792969 70.480469 C 118.648438 67.914062 118.574219 65.421875 118.425781 63.148438 C 118.132812 58.96875 117.179688 56.257812 115.496094 54.863281 C 114.46875 53.984375 113.148438 53.691406 111.535156 53.910156 C 107.722656 54.425781 106.109375 57.648438 105.890625 64.910156 C 105.816406 66.742188 105.816406 68.648438 105.816406 70.628906 C 99.730469 70.699219 94.085938 70.847656 88.585938 70.992188 L 87.488281 70.992188 L 87.488281 72.09375 C 87.488281 107.210938 86.679688 152.449219 85.875 196.21875 C 85.066406 239.988281 84.335938 285.296875 84.261719 320.417969 L 84.261719 321.515625 L 85.363281 321.515625 C 118.867188 321.222656 153.839844 321.003906 187.710938 320.785156 C 221.585938 320.5625 256.628906 320.34375 290.0625 320.050781 L 291.160156 320.050781 Z M 262.640625 81.476562 C 263.816406 82.578125 264.914062 84.410156 265.28125 87.195312 C 265.574219 89.761719 264.621094 92.328125 262.863281 93.796875 C 262.789062 93.867188 262.714844 93.941406 262.566406 94.015625 C 262.640625 89.691406 262.714844 85.511719 262.640625 81.476562 Z M 250.691406 54.132812 C 250.765625 51.929688 252.964844 49.367188 254.796875 49.21875 C 256.847656 49.070312 257.730469 52.078125 258.097656 53.910156 C 260.003906 64.027344 260.808594 78.691406 260.296875 95.1875 C 259.195312 95.554688 258.167969 95.773438 257.289062 95.921875 C 256.261719 96.066406 255.089844 96.140625 253.917969 96.066406 C 253.769531 94.675781 253.550781 92.84375 253.257812 90.714844 C 252.15625 81.113281 250.25 65.054688 250.691406 54.132812 Z M 251.132812 91.007812 C 251.351562 92.769531 251.570312 94.382812 251.71875 95.703125 C 250.835938 95.410156 250.105469 95.042969 249.445312 94.382812 C 247.613281 92.550781 247.390625 89.542969 247.90625 87.34375 C 248.273438 85.511719 249.078125 83.972656 250.179688 82.652344 C 250.542969 85.730469 250.835938 88.589844 251.132812 91.007812 Z M 215.5 87.195312 C 216.378906 88.664062 216.964844 90.277344 217.257812 91.523438 C 217.699219 93.503906 217.257812 95.847656 216.085938 97.679688 C 215.792969 98.121094 215.570312 98.488281 215.207031 98.78125 C 215.5 95.335938 215.570312 91.375 215.5 87.195312 Z M 205.453125 59.410156 C 205.675781 57.285156 207.140625 55.742188 208.386719 55.671875 C 209.632812 55.597656 210.148438 57.0625 210.367188 57.941406 C 212.859375 68.648438 214.03125 88.371094 213.007812 100.539062 C 212.640625 100.6875 212.199219 100.832031 211.832031 100.90625 C 211.027344 101.054688 210.148438 101.125 209.121094 101.054688 C 208.242188 100.980469 206.847656 100.761719 205.527344 100.101562 C 205.234375 96.140625 204.0625 72.535156 205.453125 59.410156 Z M 203.109375 98.195312 C 201.714844 96.289062 201.421875 93.429688 202.15625 89.617188 C 202.300781 88.882812 202.523438 88.148438 202.742188 87.5625 C 202.816406 92.035156 203.035156 95.847656 203.109375 98.195312 Z M 169.601562 100.027344 C 169.527344 93.941406 169.308594 88.664062 169.089844 84.191406 C 171.507812 86.464844 173.046875 89.324219 173.339844 92.109375 C 173.5625 94.75 172.683594 97.09375 170.703125 99.074219 C 170.335938 99.441406 169.96875 99.734375 169.601562 100.027344 Z M 156.917969 64.6875 C 156.917969 64.25 156.992188 63.882812 156.992188 63.441406 C 157.140625 61.535156 157.285156 58.96875 158.019531 58.601562 C 159.703125 57.796875 160.585938 58.089844 161.097656 58.382812 C 164.984375 60.730469 167.035156 74.660156 167.402344 100.980469 C 165.128906 101.714844 162.417969 101.640625 160.144531 100.539062 C 159.484375 97.09375 156.039062 76.347656 156.917969 64.6875 Z M 157.578125 98.925781 C 155.304688 96.800781 153.839844 93.648438 153.621094 90.421875 C 153.472656 88.515625 153.765625 86.609375 154.5 85.070312 C 154.792969 84.410156 155.085938 83.824219 155.453125 83.3125 C 156.1875 89.691406 157.066406 95.628906 157.578125 98.925781 Z M 119.527344 101.492188 C 119.527344 98.707031 119.453125 93.503906 119.308594 87.417969 C 121.800781 91.375 122.898438 96.949219 120.625 100.246094 C 120.261719 100.6875 119.894531 101.128906 119.527344 101.492188 Z M 108.089844 65.054688 C 108.308594 56.625 110.582031 56.332031 111.828125 56.109375 C 112.78125 55.964844 113.515625 56.109375 114.027344 56.550781 C 114.835938 57.210938 115.859375 58.894531 116.15625 63.296875 C 117.035156 77.003906 117.253906 98.78125 117.328125 102.960938 C 115.714844 103.691406 113.882812 103.914062 112.195312 103.398438 C 111.535156 103.179688 110.875 102.886719 110.214844 102.519531 C 109.847656 99.074219 107.722656 79.5 108.089844 65.054688 Z M 106.476562 85.144531 C 106.917969 91.597656 107.503906 97.316406 107.796875 100.539062 C 105.597656 98.121094 104.203125 94.675781 104.203125 91.300781 C 104.203125 88.808594 105.011719 86.683594 106.476562 85.144531 Z M 88.222656 196.292969 C 88.953125 152.960938 89.761719 108.164062 89.832031 73.191406 C 94.964844 73.046875 100.246094 72.972656 105.964844 72.828125 C 106.035156 75.980469 106.183594 79.207031 106.332031 82.359375 C 103.617188 84.335938 102.078125 87.488281 102.078125 91.230469 C 102.078125 96.289062 104.71875 101.421875 108.675781 104.058594 C 109.703125 104.71875 110.65625 105.160156 111.609375 105.453125 C 112.414062 105.671875 113.296875 105.820312 114.175781 105.820312 C 117.328125 105.820312 120.554688 104.207031 122.460938 101.421875 C 125.832031 96.507812 123.558594 88.222656 119.234375 83.675781 C 119.160156 80.011719 119.015625 76.273438 118.867188 72.605469 C 128.398438 72.460938 138.003906 72.386719 147.3125 72.238281 L 154.644531 72.167969 C 154.71875 74.804688 154.9375 77.519531 155.160156 80.230469 C 154.058594 81.183594 153.179688 82.503906 152.445312 84.042969 C 151.640625 85.949219 151.273438 88.148438 151.421875 90.421875 C 151.714844 94.894531 153.914062 99 157.285156 101.421875 C 157.726562 101.714844 158.09375 102.007812 158.53125 102.226562 C 160.292969 103.179688 162.269531 103.621094 164.25 103.621094 C 167.257812 103.621094 170.1875 102.519531 172.167969 100.539062 C 174.589844 98.046875 175.6875 95.042969 175.394531 91.816406 C 175.027344 87.855469 172.535156 83.824219 168.796875 81.039062 C 168.574219 77.519531 168.28125 74.511719 167.917969 71.945312 C 181.699219 71.800781 192.476562 71.582031 202.59375 71.359375 C 202.523438 75.320312 202.523438 79.425781 202.59375 83.238281 C 201.347656 84.628906 200.542969 86.464844 199.957031 89.101562 C 199.003906 93.722656 199.515625 97.316406 201.570312 99.734375 C 203.183594 101.640625 205.746094 102.886719 208.828125 103.105469 C 209.265625 103.105469 209.632812 103.179688 210 103.179688 C 210.804688 103.179688 211.539062 103.105469 212.199219 102.960938 C 214.546875 102.445312 216.597656 100.980469 217.992188 98.78125 C 219.53125 96.363281 220.042969 93.503906 219.457031 90.9375 C 218.796875 88.078125 217.332031 85.289062 215.425781 83.457031 C 215.277344 79.277344 214.984375 75.097656 214.617188 71.066406 C 225.761719 70.847656 237.492188 70.628906 249.152344 70.921875 C 249.371094 73.925781 249.664062 76.933594 249.957031 79.792969 C 247.832031 81.550781 246.367188 83.898438 245.777344 86.757812 C 245.046875 90.347656 245.851562 93.796875 247.976562 95.847656 C 249.589844 97.460938 251.9375 98.195312 254.796875 98.195312 C 255.675781 98.195312 256.703125 98.121094 257.730469 97.972656 C 259.5625 97.679688 262.273438 97.167969 264.328125 95.410156 C 266.675781 93.429688 267.921875 90.128906 267.554688 86.832031 C 267.113281 83.089844 265.355469 80.230469 262.714844 78.546875 C 262.640625 76.125 262.566406 73.78125 262.421875 71.507812 C 269.972656 71.945312 276.9375 72.679688 283.683594 73.558594 C 284.710938 109.484375 285.589844 153.328125 286.46875 195.777344 C 287.203125 230.824219 287.9375 266.75 288.742188 298.496094 C 265.28125 297.46875 102.222656 298.054688 86.828125 298.054688 C 86.902344 267.261719 87.5625 231.335938 88.222656 196.292969 Z M 187.859375 318.65625 C 154.351562 318.878906 119.746094 319.097656 86.609375 319.390625 C 86.609375 315.871094 86.609375 312.28125 86.609375 308.613281 C 95.480469 308.46875 157.140625 307.808594 175.175781 308.46875 L 175.246094 306.265625 C 157.210938 305.535156 95.625 306.265625 86.609375 306.414062 C 86.609375 304.433594 86.609375 302.453125 86.679688 300.476562 C 101.929688 300.402344 265.941406 299.890625 288.667969 300.914062 C 288.816406 306.78125 288.960938 312.5 289.109375 318.070312 C 255.96875 318.21875 221.363281 318.4375 187.859375 318.65625 Z M 252.378906 312.9375 L 252.230469 315.140625 C 241.085938 314.550781 163.664062 314.480469 126.417969 314.480469 C 111.460938 314.480469 104.789062 314.480469 104.425781 314.480469 L 104.570312 312.28125 C 105.082031 312.28125 114.027344 312.28125 126.417969 312.28125 C 163.664062 312.28125 241.234375 312.28125 252.378906 312.9375 Z M 252.378906 312.9375 " fill-opacity="1" fill-rule="nonzero"/><g clip-path="url(#d9ee139d57)"><path fill="#662e1c" d="M 256.660156 256.761719 C 256.65625 256.742188 256.65625 256.71875 256.652344 256.699219 L 252.242188 241.308594 L 246.246094 220.339844 L 232.464844 171.898438 C 232.457031 171.878906 232.445312 171.859375 232.4375 171.835938 L 229.152344 160.289062 C 229.078125 160.039062 228.882812 159.839844 228.628906 159.765625 C 228.378906 159.699219 222.382812 158.074219 216.460938 159.765625 C 210.53125 161.457031 206.355469 165.949219 206.183594 166.140625 C 206.152344 166.175781 206.128906 166.214844 206.101562 166.257812 L 206.109375 161.445312 C 206.109375 161.140625 205.925781 160.867188 205.648438 160.75 C 205.332031 160.613281 197.789062 157.457031 189.054688 157.457031 C 180.320312 157.457031 172.878906 160.585938 172.5625 160.71875 C 172.320312 160.820312 172.164062 161.039062 172.121094 161.289062 L 172.121094 147.375 C 172.121094 147.109375 171.984375 146.867188 171.757812 146.730469 C 171.574219 146.613281 167.113281 143.953125 159.929688 143.953125 C 152.746094 143.953125 148.285156 146.613281 148.097656 146.730469 C 147.996094 146.789062 147.917969 146.875 147.859375 146.972656 L 147.859375 135.878906 C 147.859375 135.589844 147.691406 135.320312 147.425781 135.199219 C 147.164062 135.078125 140.960938 132.167969 135.664062 132.167969 C 130.367188 132.167969 124.164062 135.078125 123.902344 135.199219 C 123.640625 135.324219 123.472656 135.589844 123.472656 135.878906 L 123.472656 136.601562 C 123.394531 136.480469 123.277344 136.382812 123.140625 136.320312 C 123 136.261719 119.667969 134.808594 116.804688 134.808594 C 113.945312 134.808594 110.613281 136.261719 110.472656 136.324219 C 110.199219 136.445312 110.023438 136.714844 110.023438 137.015625 L 110.023438 273.949219 C 110.023438 274.222656 110.171875 274.472656 110.410156 274.609375 C 110.550781 274.6875 113.910156 276.527344 116.804688 276.527344 C 119.703125 276.527344 123.058594 274.6875 123.199219 274.609375 C 123.441406 274.476562 123.589844 274.222656 123.589844 273.949219 L 123.589844 273.226562 C 123.664062 273.34375 123.769531 273.4375 123.902344 273.5 C 124.164062 273.621094 130.367188 276.527344 135.664062 276.527344 C 140.960938 276.527344 147.164062 273.621094 147.425781 273.5 C 147.5625 273.433594 147.671875 273.328125 147.75 273.203125 C 147.773438 273.425781 147.902344 273.632812 148.097656 273.753906 C 148.285156 273.867188 152.75 276.527344 159.929688 276.527344 C 167.113281 276.527344 171.574219 273.867188 171.757812 273.753906 C 171.941406 273.640625 172.0625 273.457031 172.101562 273.25 L 172.101562 273.804688 C 172.101562 274.105469 172.285156 274.378906 172.5625 274.496094 C 172.878906 274.628906 180.320312 277.757812 189.054688 277.757812 C 197.789062 277.757812 205.332031 274.601562 205.648438 274.46875 C 205.925781 274.351562 206.109375 274.078125 206.109375 273.773438 L 206.09375 261.78125 C 206.097656 261.753906 206.109375 261.730469 206.109375 261.703125 L 206.09375 254.867188 C 206.101562 254.824219 206.109375 254.777344 206.109375 254.734375 L 206.082031 245.710938 L 206.082031 245.6875 L 206.0625 227.136719 L 206.109375 180.503906 C 206.109375 180.488281 206.105469 180.472656 206.105469 180.457031 L 206.109375 173.519531 C 206.109375 173.492188 206.101562 173.464844 206.097656 173.4375 L 206.105469 167.164062 L 208.183594 174.472656 C 208.167969 174.578125 208.175781 174.683594 208.203125 174.785156 L 211.503906 186.316406 C 211.507812 186.34375 211.507812 186.367188 211.515625 186.394531 L 223.238281 227.390625 L 227.398438 242.015625 L 231.207031 255.445312 C 231.210938 255.46875 231.226562 255.488281 231.238281 255.515625 L 234.519531 267.054688 C 234.542969 267.144531 234.597656 267.222656 234.65625 267.296875 L 236.839844 274.933594 C 236.910156 275.1875 237.109375 275.382812 237.359375 275.453125 C 237.527344 275.5 240.152344 276.21875 243.621094 276.21875 C 245.414062 276.21875 247.4375 276.027344 249.453125 275.449219 C 255.382812 273.757812 259.613281 269.222656 259.792969 269.03125 C 259.972656 268.835938 260.035156 268.566406 259.960938 268.308594 Z M 204.597656 273.261719 C 202.839844 273.9375 196.277344 276.25 189.054688 276.25 C 181.832031 276.25 175.355469 273.960938 173.609375 273.292969 L 173.601562 265.585938 C 173.601562 265.46875 173.566406 265.359375 173.511719 265.257812 L 173.511719 262.800781 C 175.820312 263.65625 182.015625 265.6875 189.054688 265.6875 C 196 265.6875 202.183594 263.695312 204.589844 262.8125 Z M 135.664062 133.679688 C 139.855469 133.679688 144.867188 135.722656 146.347656 136.367188 L 146.347656 148.746094 C 144.304688 147.890625 139.71875 146.1875 135.664062 146.1875 C 131.609375 146.1875 127.023438 147.894531 124.980469 148.746094 L 124.980469 136.367188 C 126.457031 135.722656 131.464844 133.679688 135.664062 133.679688 Z M 170.613281 262.738281 C 169.445312 263.339844 165.542969 265.097656 159.929688 265.097656 C 154.3125 265.097656 150.410156 263.339844 149.246094 262.738281 L 149.246094 260.59375 C 151.023438 261.40625 154.777344 262.777344 159.929688 262.777344 C 165.085938 262.777344 168.832031 261.40625 170.613281 260.59375 Z M 170.613281 159.886719 C 168.835938 159.070312 165.085938 157.699219 159.929688 157.699219 C 154.773438 157.699219 151.019531 159.070312 149.246094 159.886719 L 149.246094 157.738281 C 150.410156 157.140625 154.3125 155.382812 159.929688 155.382812 C 165.542969 155.382812 169.445312 157.140625 170.613281 157.738281 Z M 149.242188 161.5625 C 150.402344 160.964844 154.289062 159.207031 159.925781 159.207031 C 165.539062 159.207031 169.441406 160.964844 170.609375 161.5625 L 170.609375 258.914062 C 169.449219 259.511719 165.566406 261.269531 159.925781 261.269531 C 154.3125 261.269531 150.40625 259.511719 149.242188 258.914062 Z M 170.613281 147.820312 L 170.613281 156.058594 C 168.835938 155.246094 165.085938 153.875 159.929688 153.875 C 154.773438 153.875 151.019531 155.246094 149.246094 156.058594 L 149.246094 147.820312 C 150.410156 147.222656 154.3125 145.464844 159.929688 145.464844 C 165.542969 145.464844 169.445312 147.222656 170.613281 147.820312 Z M 146.347656 261.828125 C 144.867188 262.476562 139.855469 264.519531 135.664062 264.519531 C 131.472656 264.519531 126.457031 262.472656 124.980469 261.828125 L 124.980469 239.882812 C 126.925781 240.296875 131.578125 241.175781 135.664062 241.175781 C 139.75 241.175781 144.402344 240.296875 146.347656 239.882812 Z M 124.976562 150.386719 C 126.457031 149.742188 131.46875 147.699219 135.660156 147.699219 C 139.851562 147.699219 144.867188 149.742188 146.34375 150.386719 L 146.34375 172.332031 C 144.398438 171.921875 139.746094 171.039062 135.660156 171.039062 C 131.574219 171.039062 126.921875 171.921875 124.976562 172.332031 Z M 124.976562 195.914062 L 146.347656 195.914062 L 146.347656 216.300781 L 124.976562 216.300781 Z M 146.347656 194.40625 L 124.976562 194.40625 L 124.976562 173.875 C 126.628906 173.515625 131.523438 172.542969 135.660156 172.542969 C 139.796875 172.542969 144.691406 173.515625 146.34375 173.875 L 146.34375 194.40625 Z M 124.976562 217.808594 L 146.347656 217.808594 L 146.347656 238.34375 C 144.695312 238.699219 139.800781 239.671875 135.664062 239.671875 C 131.527344 239.671875 126.632812 238.699219 124.980469 238.34375 L 124.980469 217.808594 Z M 124.976562 272.324219 L 124.976562 263.472656 C 127.019531 264.328125 131.605469 266.027344 135.660156 266.027344 C 139.714844 266.027344 144.300781 264.324219 146.34375 263.472656 L 146.34375 272.324219 C 144.863281 272.972656 139.851562 275.015625 135.660156 275.015625 C 131.46875 275.015625 126.457031 272.972656 124.976562 272.324219 Z M 149.242188 264.417969 C 151.019531 265.234375 154.773438 266.605469 159.925781 266.605469 C 165.082031 266.605469 168.832031 265.234375 170.609375 264.417969 L 170.609375 272.660156 C 169.449219 273.257812 165.566406 275.015625 159.925781 275.015625 C 154.3125 275.015625 150.40625 273.257812 149.242188 272.660156 Z M 173.507812 170 C 173.566406 169.894531 173.601562 169.769531 173.601562 169.636719 L 173.609375 161.929688 C 175.351562 161.257812 181.832031 158.972656 189.054688 158.972656 C 196.277344 158.972656 202.839844 161.285156 204.597656 161.960938 L 204.585938 172.414062 C 202.179688 171.527344 195.996094 169.535156 189.054688 169.535156 C 182.015625 169.535156 175.820312 171.566406 173.511719 172.425781 Z M 173.527344 246.261719 L 173.535156 241.640625 L 173.558594 236.664062 L 173.550781 231.988281 L 173.558594 229.679688 L 173.550781 223.644531 L 173.558594 217.609375 L 173.53125 189.007812 C 173.574219 188.914062 173.605469 188.804688 173.605469 188.691406 L 173.613281 180.984375 C 175.355469 180.3125 181.835938 178.027344 189.054688 178.027344 C 196.257812 178.027344 202.796875 180.324219 204.582031 181.007812 L 204.542969 217.609375 L 204.550781 223.644531 L 204.542969 229.679688 L 204.546875 232.246094 L 204.542969 236.664062 L 204.570312 245.457031 L 204.574219 246.445312 L 204.582031 254.226562 C 202.800781 254.910156 196.261719 257.207031 189.058594 257.207031 C 181.839844 257.207031 175.359375 254.921875 173.613281 254.25 L 173.609375 246.546875 C 173.601562 246.445312 173.574219 246.351562 173.527344 246.261719 Z M 204.582031 179.394531 C 202.167969 178.511719 195.992188 176.523438 189.054688 176.523438 C 182.109375 176.523438 175.980469 178.5 173.605469 179.375 L 173.613281 174.003906 C 175.355469 173.332031 181.835938 171.042969 189.054688 171.042969 C 196.265625 171.042969 202.8125 173.34375 204.589844 174.027344 Z M 189.054688 258.71875 C 195.992188 258.71875 202.167969 256.730469 204.582031 255.84375 L 204.585938 261.191406 C 202.8125 261.871094 196.265625 264.175781 189.054688 264.175781 C 181.832031 264.175781 175.355469 261.886719 173.609375 261.21875 L 173.601562 255.867188 C 175.980469 256.742188 182.105469 258.71875 189.054688 258.71875 Z M 116.804688 136.316406 C 118.777344 136.316406 121.117188 137.140625 122.082031 137.519531 L 122.082031 142.464844 C 120.863281 142.117188 118.722656 141.589844 116.804688 141.589844 C 114.886719 141.589844 112.75 142.113281 111.53125 142.464844 L 111.53125 137.519531 C 112.496094 137.144531 114.835938 136.316406 116.804688 136.316406 Z M 122.082031 144.042969 L 122.082031 265.847656 C 121.125 266.238281 118.777344 267.113281 116.804688 267.113281 C 114.832031 267.113281 112.488281 266.238281 111.53125 265.847656 L 111.53125 144.042969 C 112.535156 143.734375 114.847656 143.097656 116.804688 143.097656 C 118.765625 143.097656 121.082031 143.734375 122.082031 144.042969 Z M 111.53125 273.488281 L 111.53125 267.46875 C 112.773438 267.941406 114.894531 268.621094 116.804688 268.621094 C 118.71875 268.621094 120.839844 267.945312 122.082031 267.46875 L 122.082031 273.488281 C 121.164062 273.941406 118.796875 275.015625 116.804688 275.015625 C 114.824219 275.015625 112.449219 273.941406 111.53125 273.488281 Z M 249.042969 274 C 244.375 275.332031 239.566406 274.417969 238.171875 274.101562 L 236.03125 266.621094 C 236.003906 266.523438 235.957031 266.441406 235.894531 266.367188 L 235.253906 264.121094 C 236.375 264.339844 238.183594 264.609375 240.308594 264.609375 C 242.101562 264.609375 244.125 264.417969 246.148438 263.84375 C 250.519531 262.59375 253.964844 259.804688 255.546875 258.34375 L 258.394531 268.304688 C 257.367188 269.316406 253.726562 272.660156 249.042969 274 Z M 227.824219 161.125 L 230.65625 171.09375 C 228.542969 170.6875 224.140625 170.128906 219.773438 171.378906 C 215.355469 172.636719 211.910156 175.453125 210.371094 176.886719 L 209.734375 174.664062 C 209.75 174.558594 209.742188 174.457031 209.710938 174.351562 L 207.585938 166.871094 C 208.601562 165.863281 212.207031 162.550781 216.875 161.21875 C 221.542969 159.890625 226.410156 160.808594 227.824219 161.125 Z M 232.71875 255.011719 C 232.695312 254.925781 232.648438 254.847656 232.59375 254.777344 L 222.839844 220.492188 L 213.046875 186.246094 C 213.054688 186.152344 213.050781 186.058594 213.019531 185.960938 L 210.894531 178.480469 C 211.910156 177.472656 215.515625 174.160156 220.183594 172.828125 C 224.839844 171.5 229.699219 172.414062 231.121094 172.734375 L 243.070312 214.726562 L 244.796875 220.765625 L 246.378906 226.332031 L 250.734375 241.519531 L 255.074219 256.703125 C 254.039062 257.726562 250.394531 261.0625 245.734375 262.390625 C 241.066406 263.722656 236.257812 262.816406 234.859375 262.492188 Z M 232.71875 255.011719 " fill-opacity="1" fill-rule="nonzero"/></g><g fill="#b38272" fill-opacity="1"><g transform="translate(40.265267, 119.463814)"><g><path d="M 23.671875 -69.84375 C 26.203125 -70.300781 28.691406 -70.566406 31.140625 -70.640625 C 33.585938 -70.710938 35.835938 -70.476562 37.890625 -69.9375 C 39.941406 -69.394531 41.664062 -68.441406 43.0625 -67.078125 C 44.46875 -65.722656 45.390625 -63.828125 45.828125 -61.390625 C 45.921875 -60.890625 45.941406 -60.164062 45.890625 -59.21875 C 45.847656 -58.269531 45.632812 -57.601562 45.25 -57.21875 C 43.507812 -57.539062 41.863281 -57.789062 40.3125 -57.96875 C 38.769531 -58.15625 37.15625 -58.210938 35.46875 -58.140625 C 33.78125 -58.078125 31.828125 -57.84375 29.609375 -57.4375 C 27.691406 -57.09375 25.460938 -56.597656 22.921875 -55.953125 C 20.378906 -55.304688 17.726562 -54.507812 14.96875 -53.5625 C 12.21875 -52.625 9.554688 -51.53125 6.984375 -50.28125 C 4.421875 -49.039062 2.148438 -47.675781 0.171875 -46.1875 C -1.796875 -44.707031 -3.300781 -43.101562 -4.34375 -41.375 C -5.394531 -39.644531 -5.742188 -37.796875 -5.390625 -35.828125 C -8.003906 -38.429688 -9.550781 -41.046875 -10.03125 -43.671875 C -10.46875 -46.097656 -10.109375 -48.460938 -8.953125 -50.765625 C -7.804688 -53.066406 -6.085938 -55.234375 -3.796875 -57.265625 C -1.503906 -59.304688 1.15625 -61.175781 4.1875 -62.875 C 7.226562 -64.570312 10.425781 -66.007812 13.78125 -67.1875 C 17.144531 -68.375 20.441406 -69.257812 23.671875 -69.84375 Z M 18.421875 -47.5 C 18.703125 -45.9375 18.46875 -43.304688 17.71875 -39.609375 C 18.875 -39.878906 19.867188 -40.15625 20.703125 -40.4375 C 21.546875 -40.726562 22.535156 -41.039062 23.671875 -41.375 C 24.816406 -41.707031 26.378906 -42.050781 28.359375 -42.40625 C 31.390625 -42.957031 34.078125 -42.503906 36.421875 -41.046875 C 38.773438 -39.597656 40.207031 -37.457031 40.71875 -34.625 C 40.820312 -34.0625 40.894531 -33.4375 40.9375 -32.75 C 40.976562 -32.0625 40.757812 -31.484375 40.28125 -31.015625 C 37.476562 -31.203125 34.5625 -31.019531 31.53125 -30.46875 C 30.5625 -30.289062 29.320312 -29.972656 27.8125 -29.515625 C 26.300781 -29.054688 24.691406 -28.488281 22.984375 -27.8125 C 21.285156 -27.144531 19.632812 -26.398438 18.03125 -25.578125 C 16.4375 -24.765625 15.0625 -23.941406 13.90625 -23.109375 C 13.675781 -22.660156 13.390625 -21.710938 13.046875 -20.265625 C 12.703125 -18.816406 12.34375 -17.117188 11.96875 -15.171875 C 11.59375 -13.222656 11.242188 -11.265625 10.921875 -9.296875 C 10.597656 -7.328125 10.304688 -5.613281 10.046875 -4.15625 C 9.785156 -2.707031 9.625 -1.738281 9.5625 -1.25 C 8.445312 -1.050781 7.085938 -1.1875 5.484375 -1.65625 C 3.890625 -2.125 2.40625 -2.976562 1.03125 -4.21875 C -0.332031 -5.46875 -1.207031 -7.148438 -1.59375 -9.265625 C -1.789062 -10.328125 -1.773438 -11.816406 -1.546875 -13.734375 C -1.328125 -15.648438 -1.003906 -17.820312 -0.578125 -20.25 C -0.148438 -22.675781 0.332031 -25.191406 0.875 -27.796875 C 1.414062 -30.410156 1.898438 -32.914062 2.328125 -35.3125 C 2.753906 -37.707031 3.082031 -39.851562 3.3125 -41.75 C 3.550781 -43.65625 3.578125 -45.109375 3.390625 -46.109375 C 3.378906 -46.484375 3.597656 -46.710938 4.046875 -46.796875 C 5.015625 -46.960938 6.082031 -47.296875 7.25 -47.796875 C 8.414062 -48.296875 9.585938 -48.796875 10.765625 -49.296875 C 11.953125 -49.804688 13.054688 -50.148438 14.078125 -50.328125 C 15.128906 -50.523438 16.054688 -50.429688 16.859375 -50.046875 C 17.660156 -49.660156 18.179688 -48.8125 18.421875 -47.5 Z M 18.421875 -47.5 "/></g></g></g><g fill="#b38272" fill-opacity="1"><g transform="translate(83.565155, 111.620822)"><g><path d="M 21.390625 -1.671875 C 21.128906 -3.085938 20.953125 -4.570312 20.859375 -6.125 C 20.765625 -7.675781 20.734375 -9.210938 20.765625 -10.734375 C 19.242188 -8.160156 17.601562 -6.179688 15.84375 -4.796875 C 14.082031 -3.410156 12.316406 -2.554688 10.546875 -2.234375 C 7.921875 -1.753906 5.523438 -2.398438 3.359375 -4.171875 C 1.191406 -5.941406 -0.21875 -8.625 -0.875 -12.21875 C -1.5 -15.65625 -1.425781 -19.007812 -0.65625 -22.28125 C 0.101562 -25.550781 1.375 -28.597656 3.15625 -31.421875 C 4.9375 -34.253906 7.019531 -36.800781 9.40625 -39.0625 C 11.789062 -41.320312 14.300781 -43.175781 16.9375 -44.625 C 19.570312 -46.070312 22.125 -47.019531 24.59375 -47.46875 C 26.976562 -47.894531 28.96875 -47.738281 30.5625 -47 C 32.15625 -46.269531 33.109375 -45.046875 33.421875 -43.328125 C 33.734375 -41.554688 33.296875 -39.492188 32.109375 -37.140625 C 30.460938 -37.316406 28.910156 -37.269531 27.453125 -37 C 24.773438 -36.519531 22.40625 -35.460938 20.34375 -33.828125 C 18.289062 -32.203125 16.59375 -30.34375 15.25 -28.25 C 13.90625 -26.15625 12.925781 -24.125 12.3125 -22.15625 C 11.707031 -20.195312 11.507812 -18.640625 11.71875 -17.484375 C 11.945312 -16.203125 12.59375 -15.660156 13.65625 -15.859375 C 14.664062 -16.035156 15.734375 -16.75 16.859375 -18 C 17.992188 -19.257812 19.082031 -20.816406 20.125 -22.671875 C 21.164062 -24.523438 22.007812 -26.425781 22.65625 -28.375 C 23.300781 -30.332031 23.609375 -32.085938 23.578125 -33.640625 C 24.398438 -34.046875 25.140625 -34.304688 25.796875 -34.421875 C 27.617188 -34.753906 29.265625 -34.441406 30.734375 -33.484375 C 32.210938 -32.523438 33.085938 -31.3125 33.359375 -29.84375 C 33.472656 -29.1875 33.363281 -28.191406 33.03125 -26.859375 C 32.707031 -25.523438 32.335938 -23.992188 31.921875 -22.265625 C 31.503906 -20.546875 31.175781 -18.75 30.9375 -16.875 C 30.695312 -15.007812 30.738281 -13.191406 31.0625 -11.421875 C 31.457031 -9.253906 32.15625 -7.84375 33.15625 -7.1875 C 34.164062 -6.53125 35.300781 -6.316406 36.5625 -6.546875 C 37.46875 -6.703125 38.421875 -7.023438 39.421875 -7.515625 C 40.429688 -8.015625 41.4375 -8.566406 42.4375 -9.171875 C 42.25 -6.171875 41.566406 -3.515625 40.390625 -1.203125 C 39.210938 1.097656 37.785156 2.945312 36.109375 4.34375 C 34.429688 5.738281 32.707031 6.597656 30.9375 6.921875 C 28.8125 7.304688 26.84375 6.816406 25.03125 5.453125 C 23.21875 4.085938 22.003906 1.710938 21.390625 -1.671875 Z M 21.390625 -1.671875 "/></g></g></g><g fill="#b38272" fill-opacity="1"><g transform="translate(121.329325, 104.780525)"><g><path d="M 11.796875 -16.15625 C 12.304688 -16.25 13.03125 -16.992188 13.96875 -18.390625 C 14.914062 -19.785156 15.945312 -21.585938 17.0625 -23.796875 C 18.175781 -26.003906 19.257812 -28.40625 20.3125 -31 C 21.363281 -33.601562 22.25 -36.195312 22.96875 -38.78125 C 23.695312 -41.363281 24.160156 -43.71875 24.359375 -45.84375 C 22.347656 -46.53125 20.742188 -47.660156 19.546875 -49.234375 C 18.347656 -50.816406 17.582031 -52.519531 17.25 -54.34375 C 16.851562 -56.519531 17.125 -58.550781 18.0625 -60.4375 C 19 -62.332031 20.679688 -63.5 23.109375 -63.9375 C 25.335938 -64.34375 27.453125 -63.992188 29.453125 -62.890625 C 31.453125 -61.796875 32.722656 -59.734375 33.265625 -56.703125 L 33.375 -56.15625 C 35.207031 -57.269531 37 -58.613281 38.75 -60.1875 C 40.5 -61.757812 42.015625 -63.472656 43.296875 -65.328125 C 44.335938 -64.472656 45.132812 -63.597656 45.6875 -62.703125 C 46.25 -61.816406 46.613281 -60.914062 46.78125 -60 C 47.125 -58.082031 46.703125 -56.21875 45.515625 -54.40625 C 44.328125 -52.601562 42.660156 -51 40.515625 -49.59375 C 38.367188 -48.1875 36.035156 -47.09375 33.515625 -46.3125 C 33.148438 -42.5 32.421875 -38.570312 31.328125 -34.53125 C 30.242188 -30.5 28.90625 -26.601562 27.3125 -22.84375 C 25.726562 -19.082031 24.007812 -15.675781 22.15625 -12.625 C 20.300781 -9.570312 18.441406 -7.078125 16.578125 -5.140625 C 14.710938 -3.210938 12.941406 -2.097656 11.265625 -1.796875 C 9.097656 -1.398438 7.175781 -1.546875 5.5 -2.234375 C 3.832031 -2.929688 2.488281 -3.851562 1.46875 -5 C 0.457031 -6.144531 -0.128906 -7.203125 -0.296875 -8.171875 C -0.503906 -9.328125 -0.566406 -11.035156 -0.484375 -13.296875 C -0.398438 -15.554688 -0.238281 -18.117188 0 -20.984375 C 0.238281 -23.847656 0.5 -26.742188 0.78125 -29.671875 C 1.0625 -32.597656 1.285156 -35.3125 1.453125 -37.8125 C 1.628906 -40.320312 1.675781 -42.351562 1.59375 -43.90625 C 4.269531 -44.394531 6.726562 -44.082031 8.96875 -42.96875 C 11.207031 -41.863281 12.570312 -39.972656 13.0625 -37.296875 C 13.164062 -36.734375 13.101562 -35.625 12.875 -33.96875 C 12.65625 -32.320312 12.398438 -30.425781 12.109375 -28.28125 C 11.816406 -26.132812 11.585938 -24.050781 11.421875 -22.03125 C 11.265625 -20.019531 11.300781 -18.382812 11.53125 -17.125 C 11.613281 -16.675781 11.703125 -16.351562 11.796875 -16.15625 Z M 11.796875 -16.15625 "/></g></g></g><g fill="#b38272" fill-opacity="1"><g transform="translate(154.771089, 98.723153)"><g><path d="M 12.796875 -13.28125 C 14.054688 -13.5 15.28125 -14.410156 16.46875 -16.015625 C 17.664062 -17.628906 18.679688 -19.472656 19.515625 -21.546875 C 16.078125 -21.179688 12.972656 -21.328125 10.203125 -21.984375 C 9.515625 -19.660156 9.320312 -17.671875 9.625 -16.015625 C 9.789062 -15.097656 10.128906 -14.367188 10.640625 -13.828125 C 11.160156 -13.296875 11.878906 -13.113281 12.796875 -13.28125 Z M 11.640625 -31.703125 C 11.921875 -30.140625 12.800781 -29.085938 14.28125 -28.546875 C 15.757812 -28.015625 17.585938 -27.941406 19.765625 -28.328125 C 20.015625 -28.378906 20.265625 -28.425781 20.515625 -28.46875 C 20.773438 -28.519531 21 -28.582031 21.1875 -28.65625 C 21.363281 -30.101562 21.347656 -31.378906 21.140625 -32.484375 C 20.890625 -33.898438 20.171875 -34.972656 18.984375 -35.703125 C 17.804688 -36.429688 16.710938 -36.707031 15.703125 -36.53125 C 14.429688 -36.289062 13.398438 -35.628906 12.609375 -34.546875 C 11.816406 -33.460938 11.492188 -32.515625 11.640625 -31.703125 Z M -1.125 -10.921875 C -1.75 -14.359375 -1.644531 -17.546875 -0.8125 -20.484375 C 0.0078125 -23.421875 1.273438 -25.804688 2.984375 -27.640625 C 2.878906 -27.878906 2.789062 -28.113281 2.71875 -28.34375 C 2.65625 -28.570312 2.601562 -28.804688 2.5625 -29.046875 C 2.132812 -31.421875 2.457031 -33.894531 3.53125 -36.46875 C 4.601562 -39.039062 6.421875 -41.34375 8.984375 -43.375 C 11.546875 -45.40625 14.816406 -46.785156 18.796875 -47.515625 C 20.921875 -47.898438 22.929688 -47.84375 24.828125 -47.34375 C 26.722656 -46.84375 28.347656 -45.800781 29.703125 -44.21875 C 31.054688 -42.644531 31.988281 -40.4375 32.5 -37.59375 C 32.6875 -36.539062 32.804688 -35.46875 32.859375 -34.375 C 35.128906 -35.363281 37.070312 -36.644531 38.6875 -38.21875 C 40.3125 -39.789062 41.773438 -41.472656 43.078125 -43.265625 C 43.941406 -42.546875 44.582031 -41.816406 45 -41.078125 C 45.414062 -40.335938 45.6875 -39.613281 45.8125 -38.90625 C 46.09375 -37.382812 45.769531 -35.914062 44.84375 -34.5 C 43.925781 -33.09375 42.707031 -31.78125 41.1875 -30.5625 C 39.664062 -29.34375 38.070312 -28.269531 36.40625 -27.34375 C 34.738281 -26.414062 33.28125 -25.65625 32.03125 -25.0625 C 31.257812 -21.539062 29.976562 -18.140625 28.1875 -14.859375 C 26.40625 -11.585938 24.179688 -8.804688 21.515625 -6.515625 C 18.859375 -4.234375 15.785156 -2.773438 12.296875 -2.140625 C 10.429688 -1.804688 8.523438 -1.957031 6.578125 -2.59375 C 4.640625 -3.226562 2.960938 -4.269531 1.546875 -5.71875 C 0.128906 -7.164062 -0.757812 -8.898438 -1.125 -10.921875 Z M -1.125 -10.921875 "/></g></g></g><g fill="#b38272" fill-opacity="1"><g transform="translate(190.563628, 92.239982)"><g><path d="M 38.640625 -67.296875 C 40.859375 -67.703125 42.675781 -67.535156 44.09375 -66.796875 C 45.507812 -66.054688 46.363281 -64.878906 46.65625 -63.265625 C 46.988281 -61.398438 46.488281 -59.113281 45.15625 -56.40625 C 44.75 -56.332031 44.328125 -56.269531 43.890625 -56.21875 C 43.460938 -56.175781 43.046875 -56.113281 42.640625 -56.03125 C 38.191406 -55.226562 34.453125 -54.109375 31.421875 -52.671875 C 28.398438 -51.234375 25.898438 -49.550781 23.921875 -47.625 C 21.941406 -45.707031 20.328125 -43.644531 19.078125 -41.4375 C 17.835938 -39.238281 16.828125 -36.953125 16.046875 -34.578125 C 15.273438 -32.210938 14.585938 -29.859375 13.984375 -27.515625 C 13.984375 -27.515625 13.769531 -26.796875 13.34375 -25.359375 C 12.914062 -23.929688 12.398438 -21.988281 11.796875 -19.53125 C 11.203125 -17.070312 10.597656 -14.3125 9.984375 -11.25 C 9.367188 -8.1875 8.847656 -5.050781 8.421875 -1.84375 C 7.265625 -1.632812 5.898438 -1.539062 4.328125 -1.5625 C 2.765625 -1.59375 1.332031 -1.945312 0.03125 -2.625 C -1.269531 -3.3125 -2.070312 -4.484375 -2.375 -6.140625 C -2.53125 -7.003906 -2.445312 -8.363281 -2.125 -10.21875 C -1.8125 -12.082031 -1.363281 -14.238281 -0.78125 -16.6875 C -0.207031 -19.132812 0.414062 -21.738281 1.09375 -24.5 C 1.769531 -27.257812 2.375 -29.984375 2.90625 -32.671875 C 3.4375 -35.359375 3.820312 -37.832031 4.0625 -40.09375 C 4.300781 -42.351562 4.289062 -44.191406 4.03125 -45.609375 C 3.914062 -46.265625 3.742188 -46.804688 3.515625 -47.234375 C 3.515625 -47.234375 3.96875 -47.222656 4.875 -47.203125 C 5.789062 -47.191406 6.882812 -47.050781 8.15625 -46.78125 C 9.4375 -46.507812 10.632812 -46.019531 11.75 -45.3125 C 12.875 -44.613281 13.664062 -43.570312 14.125 -42.1875 C 15.925781 -46.6875 18.117188 -50.707031 20.703125 -54.25 C 23.296875 -57.800781 26.132812 -60.71875 29.21875 -63 C 32.3125 -65.289062 35.453125 -66.722656 38.640625 -67.296875 Z M 38.640625 -67.296875 "/></g></g></g><g fill="#b38272" fill-opacity="1"><g transform="translate(213.768112, 88.036909)"><g><path d="M -2.3125 -9.765625 C -2.59375 -11.273438 -2.515625 -13.285156 -2.078125 -15.796875 C -1.640625 -18.304688 -1.019531 -21.109375 -0.21875 -24.203125 C 0.570312 -27.296875 1.378906 -30.457031 2.203125 -33.6875 C 3.023438 -36.914062 3.722656 -39.984375 4.296875 -42.890625 C 4.535156 -42.941406 4.789062 -43.003906 5.0625 -43.078125 C 5.34375 -43.148438 5.609375 -43.210938 5.859375 -43.265625 C 8.234375 -43.691406 10.253906 -43.707031 11.921875 -43.3125 C 13.597656 -42.914062 14.582031 -41.90625 14.875 -40.28125 C 15 -39.570312 14.851562 -38.34375 14.4375 -36.59375 C 14.03125 -34.851562 13.484375 -32.847656 12.796875 -30.578125 C 12.109375 -28.316406 11.410156 -26.035156 10.703125 -23.734375 C 9.992188 -21.441406 9.441406 -19.363281 9.046875 -17.5 C 8.648438 -15.632812 8.539062 -14.21875 8.71875 -13.25 C 8.90625 -12.238281 9.453125 -11.816406 10.359375 -11.984375 C 11.066406 -12.109375 11.898438 -12.53125 12.859375 -13.25 C 13.828125 -13.976562 14.847656 -14.84375 15.921875 -15.84375 C 16.992188 -16.851562 17.984375 -17.878906 18.890625 -18.921875 C 19.796875 -19.972656 20.546875 -20.890625 21.140625 -21.671875 C 21.085938 -19.953125 20.773438 -17.992188 20.203125 -15.796875 C 19.628906 -13.609375 18.816406 -11.460938 17.765625 -9.359375 C 16.710938 -7.265625 15.394531 -5.457031 13.8125 -3.9375 C 12.226562 -2.425781 10.398438 -1.484375 8.328125 -1.109375 C 6.554688 -0.785156 4.910156 -1.007812 3.390625 -1.78125 C 1.867188 -2.5625 0.613281 -3.664062 -0.375 -5.09375 C -1.363281 -6.53125 -2.007812 -8.085938 -2.3125 -9.765625 Z M -2.3125 -9.765625 "/></g></g></g><g fill="#b38272" fill-opacity="1"><g transform="translate(234.925148, 84.204694)"><g><path d="M 14.171875 -34.515625 C 13.335938 -32.273438 12.617188 -29.71875 12.015625 -26.84375 C 11.421875 -23.96875 11.035156 -21.050781 10.859375 -18.09375 C 10.691406 -15.144531 10.84375 -12.378906 11.3125 -9.796875 C 11.59375 -8.234375 12.023438 -6.769531 12.609375 -5.40625 C 13.191406 -4.050781 13.9375 -2.914062 14.84375 -2 C 13.695312 -1.351562 12.644531 -0.945312 11.6875 -0.78125 C 9.8125 -0.4375 8.046875 -0.703125 6.390625 -1.578125 C 4.742188 -2.460938 3.347656 -3.753906 2.203125 -5.453125 C 1.066406 -7.148438 0.316406 -9.007812 -0.046875 -11.03125 C -0.453125 -13.300781 -0.519531 -15.71875 -0.25 -18.28125 C 0.0078125 -20.84375 0.414062 -23.347656 0.96875 -25.796875 C 1.519531 -28.242188 2.007812 -30.441406 2.4375 -32.390625 C 1.320312 -32.773438 0.429688 -33.441406 -0.234375 -34.390625 C -0.898438 -35.335938 -1.332031 -36.335938 -1.53125 -37.390625 C -1.769531 -38.710938 -1.65625 -39.832031 -1.1875 -40.75 C -0.132812 -40.9375 1.003906 -41.234375 2.234375 -41.640625 C 3.472656 -42.046875 4.328125 -42.375 4.796875 -42.625 C 6.015625 -46.070312 7.019531 -49.472656 7.8125 -52.828125 C 8.613281 -56.179688 9.207031 -59.410156 9.59375 -62.515625 C 10.863281 -62.691406 12.265625 -62.59375 13.796875 -62.21875 C 15.328125 -61.84375 16.679688 -61.195312 17.859375 -60.28125 C 19.046875 -59.375 19.765625 -58.210938 20.015625 -56.796875 C 20.210938 -55.734375 20.109375 -54.578125 19.703125 -53.328125 C 19.296875 -52.085938 18.859375 -50.796875 18.390625 -49.453125 C 17.929688 -48.117188 17.691406 -46.820312 17.671875 -45.5625 C 17.878906 -45.59375 18.066406 -45.640625 18.234375 -45.703125 C 18.410156 -45.765625 18.597656 -45.8125 18.796875 -45.84375 C 20.617188 -46.175781 22.046875 -46.082031 23.078125 -45.5625 C 24.109375 -45.039062 24.863281 -44.300781 25.34375 -43.34375 C 25.832031 -42.394531 26.164062 -41.441406 26.34375 -40.484375 C 26.46875 -39.828125 26.550781 -39.226562 26.59375 -38.6875 C 26.632812 -38.144531 26.625 -37.738281 26.5625 -37.46875 C 25.894531 -37.457031 25.242188 -37.394531 24.609375 -37.28125 C 23.984375 -37.164062 23.34375 -37.050781 22.6875 -36.9375 C 21.269531 -36.675781 19.863281 -36.351562 18.46875 -35.96875 C 17.070312 -35.582031 15.640625 -35.097656 14.171875 -34.515625 Z M 14.171875 -34.515625 "/></g></g></g><g fill="#b38272" fill-opacity="1"><g transform="translate(255.323866, 80.509835)"><g><path d="M 31.125 -39.625 C 31.65625 -36.6875 31.578125 -33.941406 30.890625 -31.390625 C 30.203125 -28.847656 29.132812 -26.582031 27.6875 -24.59375 C 26.238281 -22.601562 24.644531 -21.007812 22.90625 -19.8125 C 21.175781 -18.625 19.53125 -17.882812 17.96875 -17.59375 C 16.644531 -17.351562 15.492188 -17.484375 14.515625 -17.984375 C 13.535156 -18.484375 12.921875 -19.441406 12.671875 -20.859375 C 12.460938 -21.972656 12.601562 -23.109375 13.09375 -24.265625 C 13.59375 -25.421875 14.03125 -26.132812 14.40625 -26.40625 C 15.4375 -25.5625 16.460938 -25.234375 17.484375 -25.421875 C 18.390625 -25.585938 19.175781 -26.054688 19.84375 -26.828125 C 20.507812 -27.597656 21 -28.484375 21.3125 -29.484375 C 21.632812 -30.484375 21.722656 -31.378906 21.578125 -32.171875 C 21.273438 -33.847656 20.546875 -34.578125 19.390625 -34.359375 C 18.484375 -34.203125 17.46875 -33.539062 16.34375 -32.375 C 15.21875 -31.207031 14.164062 -29.738281 13.1875 -27.96875 C 12.207031 -26.195312 11.460938 -24.3125 10.953125 -22.3125 C 10.453125 -20.3125 10.375 -18.375 10.71875 -16.5 C 10.9375 -15.238281 11.503906 -14.242188 12.421875 -13.515625 C 13.335938 -12.796875 14.679688 -12.597656 16.453125 -12.921875 C 17.765625 -13.160156 19.148438 -13.632812 20.609375 -14.34375 C 22.078125 -15.050781 23.488281 -15.90625 24.84375 -16.90625 C 26.207031 -17.90625 27.382812 -18.914062 28.375 -19.9375 C 29.375 -20.957031 30.054688 -21.894531 30.421875 -22.75 C 30.660156 -20.21875 30.300781 -17.796875 29.34375 -15.484375 C 28.382812 -13.179688 26.988281 -11.09375 25.15625 -9.21875 C 23.332031 -7.351562 21.242188 -5.773438 18.890625 -4.484375 C 16.535156 -3.191406 14.070312 -2.3125 11.5 -1.84375 C 9.46875 -1.46875 7.546875 -1.46875 5.734375 -1.84375 C 3.921875 -2.226562 2.367188 -3.085938 1.078125 -4.421875 C -0.203125 -5.753906 -1.0625 -7.640625 -1.5 -10.078125 C -1.945312 -12.554688 -1.898438 -15.316406 -1.359375 -18.359375 C -0.816406 -21.398438 0.125 -24.46875 1.46875 -27.5625 C 2.820312 -30.65625 4.453125 -33.546875 6.359375 -36.234375 C 8.273438 -38.929688 10.382812 -41.191406 12.6875 -43.015625 C 14.988281 -44.847656 17.359375 -45.988281 19.796875 -46.4375 C 23.273438 -47.0625 25.921875 -46.675781 27.734375 -45.28125 C 29.554688 -43.882812 30.6875 -42 31.125 -39.625 Z M 31.125 -39.625 "/></g></g></g><g fill="#b38272" fill-opacity="1"><g transform="translate(289.296461, 74.356313)"><g><path d="M 19.75 -17.6875 C 19.632812 -18.289062 18.988281 -18.664062 17.8125 -18.8125 C 16.632812 -18.96875 15.191406 -19.070312 13.484375 -19.125 C 11.773438 -19.1875 10.046875 -19.316406 8.296875 -19.515625 C 7.003906 -18.234375 6.460938 -17.035156 6.671875 -15.921875 C 6.953125 -14.359375 7.765625 -13.332031 9.109375 -12.84375 C 10.453125 -12.351562 11.878906 -12.25 13.390625 -12.53125 C 15.117188 -12.84375 16.660156 -13.5 18.015625 -14.5 C 19.367188 -15.507812 19.945312 -16.570312 19.75 -17.6875 Z M 56.34375 -41.375 C 60.375 -42.113281 63.722656 -41.910156 66.390625 -40.765625 C 69.054688 -39.617188 70.628906 -37.710938 71.109375 -35.046875 C 71.378906 -33.578125 71.253906 -31.878906 70.734375 -29.953125 C 70.210938 -28.023438 69.21875 -25.941406 67.75 -23.703125 C 64.363281 -25.960938 60.59375 -27.550781 56.4375 -28.46875 C 52.28125 -29.382812 47.984375 -29.820312 43.546875 -29.78125 C 39.117188 -29.738281 34.863281 -29.34375 30.78125 -28.59375 C 27.332031 -27.976562 24.128906 -27.164062 21.171875 -26.15625 C 22.460938 -26.019531 23.703125 -25.757812 24.890625 -25.375 C 26.085938 -25 27.128906 -24.363281 28.015625 -23.46875 C 28.898438 -22.582031 29.5 -21.285156 29.8125 -19.578125 C 30.207031 -17.398438 29.953125 -15.351562 29.046875 -13.4375 C 28.140625 -11.519531 26.804688 -9.789062 25.046875 -8.25 C 23.296875 -6.707031 21.273438 -5.398438 18.984375 -4.328125 C 16.703125 -3.265625 14.375 -2.519531 12 -2.09375 C 7.695312 -1.3125 4.15625 -1.53125 1.375 -2.75 C -1.394531 -3.976562 -3 -5.800781 -3.4375 -8.21875 C -3.757812 -9.988281 -3.398438 -11.972656 -2.359375 -14.171875 C -1.328125 -16.367188 0.539062 -18.648438 3.25 -21.015625 C 2.539062 -21.472656 1.945312 -22.007812 1.46875 -22.625 C 0.988281 -23.238281 0.671875 -23.976562 0.515625 -24.84375 C 0.0859375 -27.207031 0.382812 -29.597656 1.40625 -32.015625 C 2.4375 -34.429688 3.925781 -36.660156 5.875 -38.703125 C 7.820312 -40.742188 10.035156 -42.484375 12.515625 -43.921875 C 15.003906 -45.367188 17.484375 -46.316406 19.953125 -46.765625 C 22.484375 -47.222656 24.492188 -46.988281 25.984375 -46.0625 C 27.484375 -45.132812 28.378906 -43.863281 28.671875 -42.25 C 28.929688 -40.832031 28.640625 -39.273438 27.796875 -37.578125 C 26.960938 -35.878906 25.488281 -34.398438 23.375 -33.140625 C 22.613281 -34.671875 21.832031 -35.710938 21.03125 -36.265625 C 20.226562 -36.828125 19.472656 -37.046875 18.765625 -36.921875 C 17.804688 -36.742188 16.9375 -36.15625 16.15625 -35.15625 C 15.375 -34.15625 14.773438 -33.066406 14.359375 -31.890625 C 13.941406 -30.710938 13.796875 -29.769531 13.921875 -29.0625 C 13.960938 -28.8125 14.0625 -28.546875 14.21875 -28.265625 C 18.988281 -30.753906 24.832031 -33.132812 31.75 -35.40625 C 38.675781 -37.675781 46.875 -39.664062 56.34375 -41.375 Z M 56.34375 -41.375 "/></g></g></g><path stroke-linecap="butt" transform="matrix(0.29431, -0.0533089, 0.0533089, 0.29431, -21.292377, 71.52685)" fill="none" stroke-linejoin="miter" d="M 282.139997 -32.64381 C 290.698886 -32.633143 299.004684 -32.031234 307.052735 -30.812381 C 315.148651 -29.63795 322.428651 -27.549499 328.88808 -24.521327 C 335.34397 -21.546887 340.458461 -17.39525 344.231554 -12.066415 C 348.004647 -6.73758 349.893352 0.0550037 349.897669 8.311338 C 349.890638 10.035501 349.534788 12.439747 348.825463 15.549778 C 348.151152 18.613061 347.035785 20.667373 345.492214 21.715042 C 339.998305 19.658112 334.749873 17.858007 329.762097 16.304205 C 324.815202 14.744535 319.52749 13.600945 313.918795 12.837211 C 308.329934 12.037251 301.777638 11.646776 294.225683 11.645953 C 287.682989 11.642123 280.034288 11.95559 271.266728 12.584028 C 262.544704 13.180896 253.361549 14.198597 243.710279 15.675684 C 234.109201 17.095499 224.718782 19.110919 215.528499 21.706767 C 206.345198 24.264063 198.04071 27.391989 190.617362 31.077696 C 183.232567 34.770386 177.30255 39.151305 172.812132 44.230978 C 168.375445 49.30711 166.154072 55.195957 166.145683 61.910368 C 159.105631 51.755827 155.576221 42.223902 155.577287 33.278368 C 155.578837 25.062915 158.154218 17.512753 163.313953 10.643062 C 168.476016 3.760521 175.435177 -2.345241 184.204288 -7.671896 C 192.971071 -12.985699 202.848081 -17.540955 213.830662 -21.311964 C 224.81557 -25.095824 236.184262 -27.920904 247.926215 -29.802384 C 259.709047 -31.689732 271.109358 -32.63765 282.139997 -32.64381 Z M 251.442733 37.688612 C 251.447438 43.011774 249.137854 51.512616 244.531487 63.167764 C 248.465629 62.991099 251.888059 62.708474 254.777732 62.289532 C 257.721137 61.86705 261.156322 61.440737 265.093809 61.025772 C 269.040608 60.559402 274.364787 60.329248 281.079199 60.337637 C 291.392609 60.334289 299.987433 63.443979 306.868326 69.641005 C 313.741024 75.810002 317.17941 83.719456 317.185813 93.356517 C 317.189402 95.241875 317.035433 97.337601 316.749608 99.64835 C 316.491813 101.950904 315.427657 103.722495 313.536091 104.932765 C 304.434891 102.713526 294.721161 101.604416 284.410078 101.594912 C 281.184874 101.594719 276.950602 101.889564 271.707262 102.479449 C 266.463922 103.069333 260.818953 103.971375 254.785206 105.187901 C 248.779489 106.396233 242.911787 107.868469 237.171575 109.589433 C 231.418513 111.308068 226.390973 113.197937 222.076103 115.256711 C 221.068927 116.640445 219.547664 119.616681 217.540344 124.177222 C 215.563381 128.716717 213.383712 134.082214 210.99901 140.286564 C 208.60844 146.450034 206.285665 152.678873 204.017834 158.970755 C 201.797867 165.218217 199.827354 170.674689 198.108623 175.327321 C 196.384024 179.939072 195.269336 183.015497 194.775083 184.571773 C 190.991516 184.576623 186.611373 183.331971 181.617148 180.861192 C 176.632234 178.339008 172.245786 174.637785 168.477639 169.721297 C 164.707165 164.81766 162.818945 158.755156 162.810652 151.546636 C 162.814094 147.937115 163.752359 143.050208 165.65115 136.890569 C 167.531221 130.687723 169.88154 123.720607 172.68693 115.999746 C 175.543723 108.288196 178.646818 100.315989 182.006738 92.098305 C 185.360791 83.83974 188.433528 75.88858 191.248325 68.262331 C 194.098135 60.589334 196.473041 53.706307 198.357865 47.623775 C 200.249672 41.502689 201.182167 36.720917 201.181051 33.283114 C 201.35432 32.106693 202.217178 31.519719 203.769623 31.522192 C 207.033381 31.529369 210.729028 31.057325 214.83673 30.142287 C 218.992296 29.182829 223.163041 28.212847 227.359487 27.247521 C 231.543083 26.279866 235.359044 25.803071 238.796847 25.801955 C 242.406368 25.805398 245.411361 26.654967 247.794318 28.374038 C 250.22868 30.10242 251.445594 33.202995 251.442733 37.688612 Z M 381.079086 190.232574 C 381.088736 185.416371 381.382125 180.425928 381.959254 175.261246 C 382.549234 170.098891 383.374071 165.032167 384.410392 160.043567 C 377.872743 167.632573 371.292855 173.183222 364.6684 176.708364 C 358.084826 180.227639 351.766418 181.989871 345.726028 181.997388 C 336.793345 181.99865 329.291581 178.423318 323.216079 171.297095 C 317.127727 164.168543 314.087672 154.499622 314.093586 142.303182 C 314.090481 130.596194 316.306131 119.609635 320.755717 109.332984 C 325.237987 99.022434 331.258203 89.746994 338.811709 81.532364 C 346.359347 73.276853 354.726586 66.138698 363.90877 60.1436 C 373.097938 54.109948 382.441075 49.497808 391.963883 46.311834 C 401.527572 43.119992 410.523442 41.524191 418.951494 41.524433 C 427.00808 41.523753 433.44559 43.207422 438.266352 46.562591 C 443.087114 49.917759 445.494173 54.508076 445.500381 60.335868 C 445.495048 66.373931 442.837226 72.913715 437.511738 79.965744 C 432.180527 78.402825 427.025058 77.628276 422.032482 77.63977 C 412.928081 77.636474 404.49906 79.693309 396.747746 83.797423 C 389.034984 87.908521 382.347342 93.028202 376.687146 99.143614 C 371.018756 105.230996 366.595599 111.331569 363.402499 117.455855 C 360.218709 123.528738 358.619371 128.548083 358.62199 132.490517 C 358.623688 136.804417 360.435723 138.964252 364.032393 138.965366 C 367.470196 138.964251 371.417334 137.250319 375.863283 133.808393 C 380.347785 130.37345 384.859637 125.9082 389.38599 120.410313 C 393.963746 114.921737 397.886005 109.168432 401.148113 103.176098 C 404.419532 97.132361 406.482233 91.533316 407.310513 86.374307 C 410.248971 85.539479 412.833761 85.118404 415.049704 85.121604 C 421.261813 85.118645 426.498703 87.12902 430.773226 91.155058 C 435.099153 95.190406 437.256177 99.695615 437.254819 104.685864 C 437.26447 106.904134 436.293568 110.139329 434.359619 114.368073 C 432.471207 118.565248 430.340226 123.368842 427.953827 128.776529 C 425.554576 134.181889 423.414867 139.912984 421.526503 145.941784 C 419.642795 151.944883 418.701765 157.946188 418.703415 163.945698 C 418.694299 171.323608 420.151987 176.39232 423.04845 179.160029 C 425.977598 181.893842 429.581009 183.249982 433.866879 183.25648 C 436.961246 183.246247 440.315785 182.752236 443.9223 181.746417 C 447.538125 180.689194 451.141002 179.483627 454.750766 178.093492 C 452.34977 187.905035 448.546031 196.228146 443.298667 203.068692 C 438.057171 209.950119 432.250378 215.189531 425.875959 218.799781 C 419.542421 222.404163 413.350196 224.202523 407.312133 224.197189 C 400.103613 224.205483 393.920019 221.41309 388.759021 215.832862 C 383.636577 210.259616 381.080882 201.726963 381.079086 190.232574 Z M 486.436928 136.887712 C 488.161091 136.894743 490.983114 134.870837 494.936895 130.848678 C 498.871958 126.78331 503.34002 121.460682 508.328231 114.878464 C 513.325753 108.244843 518.314691 100.999128 523.302028 93.102766 C 528.294022 85.180702 532.75447 77.188904 536.693896 69.14255 C 540.642633 61.044791 543.55214 53.555151 545.445789 46.691134 C 539.273445 43.250422 534.679588 38.569276 531.661889 32.660548 C 528.646518 26.738968 527.142615 20.679713 527.137328 14.480456 C 527.133593 7.100218 529.230724 0.578328 533.428722 -5.085215 C 537.665272 -10.741774 543.912879 -13.578638 552.169212 -13.582955 C 559.721168 -13.582132 566.451195 -11.168576 572.359294 -6.342287 C 578.276704 -1.567402 581.234755 5.989596 581.238103 16.303006 L 581.240479 18.121781 C 587.94849 15.527583 594.66067 12.177601 601.366498 8.056659 C 608.069998 3.948568 614.088566 -0.774672 619.417545 -6.08736 C 622.307413 -2.697033 624.409929 0.643588 625.716897 3.906472 C 627.008686 7.17988 627.666122 10.364932 627.661176 13.469822 C 627.664329 19.973963 625.16843 25.839629 620.171151 31.079672 C 615.186722 36.322043 608.727488 40.620377 600.806298 43.977002 C 592.91081 47.338282 584.589349 49.534053 575.824408 50.587688 C 572.388982 62.95929 567.669867 75.456734 561.667061 88.080021 C 555.677106 100.705636 548.922785 112.714986 541.414622 124.123251 C 533.947339 135.525648 526.27832 145.696971 518.394714 154.634892 C 510.513435 163.559962 502.898439 170.648556 495.564902 175.890151 C 488.257067 181.136402 481.782702 183.759649 476.116105 183.755237 C 468.735867 183.758972 462.512168 182.140575 457.44268 178.912898 C 452.367323 175.64434 448.480754 171.8213 445.806346 167.461282 C 443.1541 163.052189 441.844416 159.218091 441.838742 155.952006 C 441.836123 152.009572 442.650049 146.343605 444.291044 138.969283 C 445.928498 131.54123 447.9847 123.193582 450.459649 113.926337 C 452.973152 104.666076 455.55668 95.312318 458.195054 85.875586 C 460.87431 76.432986 463.250283 67.6389 465.304254 59.450118 C 467.355898 51.274187 468.746226 44.624273 469.46006 39.510897 C 478.551609 39.511866 486.435799 42.001752 493.110301 46.993406 C 499.817488 51.951162 503.165335 58.968226 503.17489 68.074954 C 503.165628 69.957984 502.314118 73.559892 500.592332 78.888873 C 498.870546 84.217854 496.901633 90.324973 494.675071 97.195052 C 492.459031 104.080309 490.488179 110.784343 488.760186 117.320005 C 487.049699 123.832294 486.190043 129.237798 486.19174 133.551698 C 486.1834 135.063262 486.27292 136.181103 486.436928 136.887712 Z M 601.638667 146.950536 C 605.911686 146.954706 610.493904 144.665633 615.354963 140.104363 C 620.259231 135.524375 624.696839 130.076777 628.685293 123.738195 C 617.151768 122.856911 607.006197 120.541411 598.240382 116.763664 C 594.639154 123.968741 592.830515 130.436706 592.834298 136.131333 C 592.836336 139.19767 593.523741 141.777611 594.909367 143.873482 C 596.289125 145.928473 598.531449 146.958441 601.638667 146.950536 Z M 608.806442 85.61549 C 608.808819 90.951503 611.069475 94.957852 615.601259 97.636865 C 620.17858 100.284309 626.166112 101.594477 633.597753 101.600052 C 634.432969 101.605338 635.270513 101.597773 636.105729 101.603059 C 636.994676 101.604804 637.766752 101.519018 638.434809 101.348027 C 639.822955 96.688606 640.519865 92.474701 640.512687 88.703985 C 640.509486 83.885455 638.795554 79.938317 635.355714 76.873095 C 631.920529 73.782172 628.472347 72.228514 625.034544 72.22963 C 620.761525 72.22546 616.990664 73.772232 613.719632 76.882797 C 610.445061 79.93963 608.815123 82.856363 608.806442 85.61549 Z M 554.462235 146.395478 C 554.464998 134.72937 556.683364 124.314025 561.12199 115.123741 C 565.612019 105.942767 571.21082 98.847336 577.926589 93.865476 C 577.754289 92.984821 577.624082 92.164881 577.548819 91.407983 C 577.467688 90.610205 577.416915 89.79138 577.4222 88.956164 C 577.415653 80.858697 579.930028 72.912581 584.965326 65.117814 C 590.041506 57.31718 597.385905 50.843201 606.988001 45.6807 C 616.62865 40.525182 628.245147 37.944076 641.837493 37.937381 C 649.043685 37.941939 655.614166 39.331152 661.525563 42.087513 C 667.441614 44.818173 672.155592 49.202534 675.680346 55.242925 C 679.199233 61.242434 680.960107 69.033854 680.958314 78.642885 C 680.957199 82.239555 680.713129 85.858582 680.207383 89.456755 C 688.26038 87.570717 695.406148 84.538179 701.662192 80.335767 C 707.95092 76.099457 713.76043 71.431258 719.080196 66.31599 C 721.517661 69.19965 723.187608 71.997378 724.109871 74.672949 C 725.07767 77.31695 725.564116 79.833945 725.556358 82.221606 C 725.563293 87.385901 723.606261 92.035187 719.708636 96.186971 C 715.856548 100.307185 711.049753 103.909384 705.311627 107.011075 C 699.554783 110.069558 693.671465 112.653863 687.625449 114.744159 C 681.637821 116.805212 676.408011 118.419537 671.961722 119.591788 C 667.305988 130.786726 661.086801 141.233933 653.280786 150.9159 C 645.487621 160.600196 636.505233 168.423284 626.361651 174.376968 C 616.212201 180.289772 605.23025 183.251267 593.390097 183.256797 C 587.021449 183.244674 580.812929 181.615754 574.782042 178.346663 C 568.779186 175.069377 563.898146 170.654755 560.117875 165.072441 C 556.350456 159.492455 554.464467 153.271084 554.462235 146.395478 Z M 840.447088 -15.399346 C 848.039924 -15.404391 853.928383 -13.767082 858.127643 -10.497942 C 862.314052 -7.23113 864.412591 -2.842695 864.412737 2.652185 C 864.407598 8.98228 861.416136 16.191624 855.423174 24.29074 C 854.029596 24.290498 852.604448 24.24472 851.145402 24.166256 C 849.673506 24.085465 848.261209 24.042015 846.921362 24.038232 C 831.789422 24.044781 818.81014 25.503052 807.991712 28.441076 C 797.167416 31.338219 787.944205 35.361542 780.3069 40.52157 C 772.669596 45.681598 766.156485 51.523066 760.75006 58.069349 C 755.337767 64.574752 750.637127 71.474509 746.648139 78.768621 C 742.712883 86.059194 739.019468 93.406843 735.5854 100.788196 C 735.5854 100.788196 734.475998 103.029405 732.244344 107.509495 C 730.030195 111.96621 727.200365 118.063388 723.752524 125.813879 C 720.32219 133.540996 716.671741 142.263505 712.814028 151.983735 C 708.948119 161.675934 705.38496 171.67515 702.122222 181.994235 C 698.179788 181.996854 693.63074 181.464873 688.470422 180.423994 C 683.312432 179.370264 678.77992 177.354748 674.885737 174.379774 C 671.026567 171.358052 669.090435 167.025579 669.094847 161.358982 C 669.095235 158.425809 670.188003 154.004882 672.362628 148.081023 C 674.506896 142.17821 677.25448 135.362687 680.603053 127.647306 C 683.960936 119.880521 687.559157 111.666183 691.428073 102.983245 C 695.284138 94.297979 698.893803 85.727354 702.246546 77.25619 C 705.593422 68.744146 708.339115 60.839928 710.483625 53.543537 C 712.628135 46.247146 713.685938 40.187357 713.697916 35.358304 C 713.688265 33.140033 713.446375 31.251329 712.931367 29.698059 C 712.931367 29.698059 714.427947 30.008955 717.405928 30.641271 C 720.418922 31.226838 723.946246 32.343562 727.977376 33.976265 C 732.041191 35.57507 735.68495 37.880873 738.921502 40.896 C 742.183757 43.915782 744.183853 47.821846 744.898416 52.596683 C 753.448186 38.881839 763.055131 26.951194 773.706398 16.802421 C 784.357666 6.653647 795.426275 -1.2561 806.922749 -6.911642 C 818.447252 -12.57538 829.631375 -15.407346 840.447088 -15.399346 Z M 750.262617 149.529146 C 750.266205 144.380031 751.734851 137.810665 754.6639 129.846751 C 757.602261 121.831433 761.288838 112.982742 765.736483 103.303005 C 770.221469 93.563669 774.777596 83.651403 779.38149 73.5487 C 784.048426 63.391053 788.17247 53.665974 791.783978 44.352417 C 792.619194 44.357703 793.502273 44.318568 794.420366 44.232685 C 795.39219 44.143261 796.313822 44.11111 797.189919 44.110528 C 805.246505 44.109847 811.884587 45.272398 817.125212 47.628537 C 822.375147 49.933273 825.000188 53.83308 825.000334 59.327959 C 824.992575 61.71562 823.773334 65.662371 821.344939 71.155359 C 818.957424 76.64248 815.96184 82.921996 812.349992 89.965878 C 808.738144 97.00976 805.091283 104.10039 801.411738 111.224918 C 797.717013 118.359969 794.674875 124.896504 792.282996 130.847375 C 789.898099 136.759693 788.69331 141.359418 788.698984 144.625503 C 788.7001 148.063306 790.232663 149.787615 793.28615 149.78325 C 795.727542 149.787469 798.744222 148.887173 802.349039 147.084691 C 805.953856 145.282209 809.807206 143.060204 813.924267 140.408152 C 818.033133 137.72807 821.886095 134.922 825.498331 131.979419 C 829.10824 129.049689 832.124968 126.463784 834.55671 124.249732 C 833.345616 129.910122 831.136172 136.172762 827.951752 143.055158 C 824.767332 149.937554 820.801234 156.519092 816.066308 162.8021 C 811.364068 169.051211 805.960213 174.191065 799.829041 178.217007 C 793.751602 182.239408 787.186892 184.262297 780.139567 184.25997 C 774.140057 184.26162 768.860152 182.561995 764.287002 179.158769 C 759.759388 175.723973 756.280121 171.337624 753.846875 166.012571 C 751.452181 160.694502 750.258205 155.195744 750.262617 149.529146 Z M 891.215208 77.878247 C 887.113811 84.767093 883.211725 92.753848 879.519474 101.853691 C 875.827223 110.953534 872.81617 120.322762 870.458286 129.96957 C 868.161116 139.574286 867.006083 148.735522 867.006035 157.455606 C 866.995561 162.789291 867.549123 167.86678 868.64102 172.683419 C 869.771469 177.507042 871.556833 181.719297 873.981932 185.330709 C 869.828985 186.715365 866.121796 187.397679 862.855711 187.403354 C 856.512765 187.395886 850.900966 185.476874 845.986416 181.613632 C 841.0917 177.714164 837.246351 172.637694 834.47607 166.388875 C 831.751325 160.108487 830.396589 153.518802 830.394358 146.643196 C 830.386888 138.917195 831.589447 130.9591 833.980986 122.738555 C 836.407539 114.471261 839.26181 106.48053 842.530949 98.764033 C 845.807072 91.008983 848.713426 84.049675 851.275714 77.890765 C 847.836649 75.993671 845.300014 73.291138 843.668134 69.770313 C 842.023404 66.24716 841.208022 62.688412 841.211465 59.078891 C 841.214325 54.593273 842.252731 50.9854 844.352385 48.259928 C 847.961906 48.263371 851.904146 47.968719 856.179105 47.375974 C 860.461047 46.744676 863.455758 46.185489 865.180746 45.675038 C 871.211727 35.021198 876.544198 24.413379 881.152456 13.846926 C 885.814446 3.276933 889.688162 -6.971302 892.788784 -16.9083 C 897.072423 -16.742935 901.602025 -15.590665 906.37759 -13.451489 C 911.206887 -11.315853 915.297277 -8.398247 918.651089 -4.711524 C 922.004901 -1.0248 923.675818 3.233089 923.676692 8.06447 C 923.675577 11.66114 922.652446 15.404506 920.601433 19.253686 C 918.548091 23.115717 916.33598 27.121533 913.9908 31.27579 C 911.680633 35.383299 910.113398 39.49265 909.276243 43.601517 C 909.939741 43.602244 910.571669 43.557435 911.156848 43.477614 C 911.79576 43.394252 912.440539 43.351771 913.116888 43.354826 C 919.316145 43.349539 923.948555 44.520431 927.014117 46.867502 C 930.112364 49.180676 932.16784 52.048235 933.17589 55.495883 C 934.22128 58.883931 934.745649 62.217423 934.748995 65.496359 C 934.745795 67.712302 934.672375 69.72971 934.505361 71.531076 C 934.338347 73.332442 934.081086 74.679466 933.748755 75.561624 C 931.52675 75.225511 929.315366 75.050593 927.137975 75.054376 C 925.001466 75.052291 922.824076 75.056074 920.595282 75.050546 C 915.776751 75.053747 910.946679 75.267219 906.133095 75.682767 C 901.345213 76.10297 896.381151 76.836349 891.215208 77.878247 Z M 1019.27858 71.158192 C 1019.288717 81.141017 1017.39531 90.128692 1013.621734 98.138725 C 1009.84229 106.107876 1004.983899 112.925969 999.033708 118.590676 C 993.111547 124.247188 986.931493 128.543 980.467846 131.473458 C 974.049734 134.372346 968.186687 135.81888 962.863525 135.823585 C 958.365057 135.818397 954.663687 134.709965 951.720864 132.491307 C 948.831772 130.269108 947.38679 126.742318 947.383589 121.923788 C 947.378739 118.140221 948.542114 114.501894 950.839818 110.976122 C 953.191254 107.446809 955.056535 105.355787 956.440317 104.677353 C 959.333725 108.121412 962.500494 109.836457 965.938297 109.835342 C 969.043188 109.840288 971.91841 108.768371 974.561635 106.632443 C 977.239873 104.449767 979.400338 101.828218 981.043031 98.767796 C 982.679856 95.666494 983.489757 92.733952 983.487914 89.959646 C 983.489998 84.3059 981.494122 81.475681 977.513135 81.471317 C 974.446797 81.473354 970.720356 83.06799 966.320962 86.252897 C 961.96012 89.444786 957.615136 93.648265 953.294206 98.891363 C 949.011828 104.141444 945.458706 109.908522 942.606811 116.200792 C 939.789928 122.446314 938.385343 128.735286 938.393054 135.067709 C 938.394752 139.381609 939.662246 143.008976 942.221238 145.954465 C 944.830421 148.842683 949.121916 150.28364 955.119099 150.294841 C 959.607044 150.284851 964.450791 149.556225 969.654996 148.083261 C 974.897754 146.61728 980.059575 144.645553 985.12528 142.178603 C 990.200296 139.660249 994.671317 137.032493 998.523163 134.305857 C 1002.381993 131.540667 1005.174386 128.87431 1006.898016 126.319634 C 1006.219098 134.757482 1003.598278 142.485229 999.0309 149.528578 C 994.496207 156.538029 988.665409 162.569449 981.546701 167.650868 C 974.415143 172.729959 966.584298 176.686942 958.077541 179.539325 C 949.564915 182.350826 940.921695 183.758324 932.163058 183.751293 C 925.326004 183.760508 919.018507 182.604746 913.225388 180.294531 C 907.483673 177.993627 902.89161 174.25516 899.446871 169.091982 C 896.012656 163.943982 894.294554 157.23539 894.292564 148.966205 C 894.285822 140.576706 896.093928 131.547035 899.706357 121.862013 C 903.302396 112.120931 908.241918 102.58338 914.488699 93.229524 C 920.768165 83.841771 927.86471 75.292191 935.739781 67.573803 C 943.668584 59.851874 951.968707 53.670461 960.657657 49.006189 C 969.344279 44.354769 977.809332 42.025736 986.063338 42.03427 C 997.89064 42.026412 1006.386002 44.87918 1011.551752 50.579723 C 1016.709306 56.252235 1019.2779 63.101606 1019.27858 71.158192 Z M 1084.201139 136.631918 C 1084.199781 134.587693 1082.320339 132.946552 1078.545307 131.731869 C 1074.770275 130.517187 1070.088789 129.324133 1064.516027 128.142184 C 1058.935071 126.932206 1053.295533 125.459437 1047.592759 123.749581 C 1042.644507 127.180159 1040.171642 130.793657 1040.165968 134.562046 C 1040.170673 139.885207 1042.226828 143.774879 1046.339089 146.20536 C 1050.445483 148.59496 1055.073237 149.791554 1060.237532 149.784619 C 1066.062996 149.791262 1071.517334 148.549421 1076.598218 146.071948 C 1081.660383 143.551267 1084.205989 140.415485 1084.201139 136.631918 Z M 1218.698426 80.468859 C 1232.449639 80.464396 1243.354727 83.12983 1251.403167 88.449984 C 1259.50301 93.779448 1263.546022 100.988792 1263.542726 110.093192 C 1263.541369 115.083441 1262.122235 120.573422 1259.270146 126.57366 C 1256.458937 132.56803 1251.951789 138.839206 1245.748701 145.387186 C 1235.978037 135.945849 1224.509057 128.479779 1211.328911 122.986647 C 1198.202497 117.489975 1184.350512 113.507681 1169.760107 111.037436 C 1155.163833 108.526311 1140.900133 107.256686 1126.977202 107.256591 C 1115.323945 107.256156 1104.338212 108.04026 1094.009478 109.593725 C 1098.124406 110.763793 1102.029354 112.360368 1105.713799 114.36827 C 1109.405228 116.33762 1112.444167 119.051501 1114.835271 122.484212 C 1117.271912 125.885353 1118.491009 130.512671 1118.487906 136.391867 C 1118.491641 143.772104 1116.413228 150.337203 1112.254996 156.074311 C 1108.148167 161.82073 1102.73248 166.732807 1096.023112 170.800018 C 1089.361608 174.822808 1081.940199 177.911599 1073.763542 180.04069 C 1065.625437 182.176764 1057.506488 183.254501 1049.411349 183.248198 C 1034.82492 183.247375 1023.312296 180.418807 1014.886329 174.764819 C 1006.488391 169.102636 1002.296017 162.13169 1002.304551 153.877684 C 1002.302901 147.878174 1004.654821 141.561705 1009.345132 134.938801 C 1014.089174 128.312358 1021.617027 121.924699 1031.933346 115.750123 C 1029.8318 113.869663 1028.182172 111.765791 1026.954104 109.459551 C 1025.786751 107.111219 1025.198613 104.496169 1025.192018 101.601549 C 1025.198321 93.50641 1027.614738 85.808002 1032.42609 78.516848 C 1037.252621 71.215171 1043.488491 64.779309 1051.107998 59.204607 C 1058.742684 53.619382 1067.069673 49.194817 1076.088966 45.930913 C 1085.110586 42.654157 1093.821408 41.019998 1102.262311 41.022567 C 1110.849229 41.025039 1117.338337 43.010052 1121.699277 46.998652 C 1126.09523 50.940503 1128.294443 55.652443 1128.294589 61.147323 C 1128.302446 65.940151 1126.388816 70.862751 1122.577075 75.932627 C 1118.803886 81.009487 1113.061687 85.012976 1105.335298 87.953618 C 1103.782707 82.456265 1101.862045 78.551318 1099.558133 76.249298 C 1097.248353 73.906397 1094.872767 72.732837 1092.444225 72.730946 C 1089.167617 72.721442 1085.948037 74.155707 1082.75159 77.001057 C 1079.61353 79.817165 1077.015405 83.023069 1074.954886 86.631621 C 1072.894367 90.240173 1071.87308 93.240607 1071.878172 95.630596 C 1071.878754 96.506692 1072.037088 97.464453 1072.376547 98.521384 C 1089.535157 93.187988 1110.162607 88.854542 1134.276402 85.497673 C 1158.428751 82.147786 1186.566693 80.462172 1218.698426 80.468859 Z M 1218.698426 80.468859 " stroke="#662e1c" stroke-width="9.662437" stroke-opacity="1" stroke-miterlimit="4"/><g fill="#b38272" fill-opacity="1"><g transform="translate(361.568489, 61.265541)"><g/></g></g></svg>