<svg xmlns="http://www.w3.org/2000/svg" xmlns:xlink="http://www.w3.org/1999/xlink" width="500" zoomAndPan="magnify" viewBox="0 0 375 374.999991" height="500" preserveAspectRatio="xMidYMid meet" version="1.0"><defs><g/><clipPath id="b548a2daff"><path d="M 118 3.324219 L 336 3.324219 L 336 221 L 118 221 Z M 118 3.324219 " clip-rule="nonzero"/></clipPath><clipPath id="1786132485"><path d="M 110.023438 132.152344 L 260 132.152344 L 260 277.652344 L 110.023438 277.652344 Z M 110.023438 132.152344 " clip-rule="nonzero"/></clipPath></defs><path fill="#ffffff" d="M 210.074219 317.265625 C 208.679688 318 206.921875 318.21875 205.527344 317.410156 C 203.839844 316.457031 203.109375 314.480469 202.667969 312.574219 C 201.640625 307.808594 203.839844 291.96875 211.90625 297.6875 C 217.992188 301.796875 216.085938 313.964844 210.074219 317.265625 Z M 251.496094 248.347656 C 246.585938 247.175781 243.507812 253.917969 242.480469 257.511719 C 241.894531 259.710938 241.453125 262.128906 242.40625 264.183594 C 243.800781 267.191406 247.832031 268.4375 250.910156 267.191406 C 253.992188 265.941406 256.042969 262.863281 256.628906 259.566406 C 257.289062 256.191406 255.601562 249.375 251.496094 248.347656 Z M 251.351562 198.050781 C 242.699219 192.917969 241.378906 213.375 246.070312 216.382812 C 253.550781 221.367188 259.5625 203.039062 251.351562 198.050781 Z M 161.609375 314.992188 C 161.757812 316.457031 162.050781 317.925781 162.855469 319.171875 C 162.929688 319.246094 162.929688 319.316406 163.003906 319.390625 C 164.46875 321.515625 167.328125 322.398438 169.96875 322.175781 C 195.117188 319.976562 158.164062 281.265625 161.609375 314.992188 Z M 325.695312 169.898438 C 325.765625 169.824219 325.765625 169.75 325.839844 169.679688 C 326.648438 168.503906 327.015625 167.039062 327.234375 165.574219 C 332.21875 132.066406 293.507812 168.945312 318.582031 172.390625 C 321.222656 172.683594 324.082031 171.949219 325.695312 169.898438 Z M 280.75 146.804688 C 276.058594 151.496094 274.738281 159.265625 278.550781 164.765625 C 279.578125 166.230469 280.972656 167.550781 282.65625 168.136719 C 284.34375 168.796875 286.324219 168.726562 287.863281 167.699219 C 289.695312 166.453125 290.503906 164.105469 290.867188 161.90625 C 291.308594 159.558594 291.382812 157.140625 291.308594 154.722656 C 290.941406 148.929688 286.835938 140.792969 280.75 146.804688 Z M 281.777344 296.222656 C 275.546875 300.109375 276.863281 312.351562 282.730469 315.871094 C 284.050781 316.679688 285.808594 316.972656 287.277344 316.238281 C 289.035156 315.359375 289.84375 313.378906 290.355469 311.546875 C 291.527344 306.855469 290.136719 290.945312 281.777344 296.222656 Z M 247.171875 296.148438 C 242.992188 296.957031 241.085938 303.703125 241.527344 307.148438 C 241.964844 310.445312 243.871094 313.671875 246.878906 315.066406 C 249.882812 316.457031 253.988281 315.359375 255.53125 312.425781 C 256.554688 310.375 256.261719 307.953125 255.75 305.753906 C 254.871094 302.160156 252.082031 295.269531 247.171875 296.148438 Z M 320.046875 200.179688 C 311.25 200.910156 312.421875 213.816406 316.457031 218.945312 C 317.554688 220.265625 319.09375 221.292969 320.855469 221.367188 C 322.90625 221.367188 324.8125 220.046875 325.839844 218.289062 C 328.773438 213.007812 328.554688 199.445312 320.046875 200.179688 Z M 285.296875 196.511719 C 279.429688 196.804688 278.476562 208.167969 279.285156 212.273438 C 279.796875 214.988281 281.628906 217.847656 284.34375 217.921875 C 285.808594 217.921875 287.203125 217.113281 288.15625 215.941406 C 289.035156 214.769531 289.550781 213.375 289.914062 211.910156 C 290.796875 208.167969 291.820312 196.21875 285.296875 196.511719 Z M 323.496094 272.101562 C 326.207031 271.003906 327.820312 268.214844 328.332031 265.355469 C 328.847656 262.496094 328.332031 259.566406 327.820312 256.777344 C 327.015625 252.746094 326.5 246.441406 321.222656 248.714844 C 317.554688 250.328125 314.328125 255.972656 313.375 259.566406 C 312.496094 262.789062 312.789062 266.457031 314.695312 269.167969 C 316.601562 271.957031 320.414062 273.421875 323.496094 272.101562 Z M 285.738281 250.691406 C 279.503906 247.6875 279.066406 259.492188 279.503906 263.082031 C 279.652344 264.625 280.019531 266.164062 280.75 267.410156 C 281.558594 268.730469 282.878906 269.753906 284.34375 269.902344 C 286.394531 270.121094 288.375 268.582031 289.253906 266.675781 C 291.160156 262.644531 290.429688 252.964844 285.738281 250.691406 Z M 251.496094 164.839844 C 256.335938 161.980469 255.96875 141.523438 247.097656 146.21875 C 238.59375 150.761719 243.726562 169.386719 251.496094 164.839844 Z M 322.613281 322.765625 C 325.179688 323.128906 328.113281 322.398438 329.652344 320.269531 C 329.726562 320.199219 329.726562 320.125 329.800781 320.050781 C 330.605469 318.878906 330.972656 317.410156 331.191406 315.945312 C 336.25 282.511719 297.539062 319.390625 322.613281 322.765625 Z M 157.503906 79.863281 C 165.644531 85.511719 167.769531 69.675781 166.742188 64.980469 C 166.375 63.074219 165.570312 61.023438 163.882812 60.144531 C 162.492188 59.410156 160.730469 59.554688 159.339844 60.289062 C 153.398438 63.441406 151.492188 75.613281 157.503906 79.863281 Z M 117.914062 129.0625 C 122.828125 130.234375 125.90625 123.488281 126.933594 119.894531 C 127.519531 117.695312 127.957031 115.277344 127.003906 113.222656 C 125.613281 110.21875 121.578125 108.972656 118.5 110.21875 C 115.421875 111.464844 113.367188 114.542969 112.78125 117.84375 C 112.195312 121.289062 113.808594 128.109375 117.914062 129.0625 Z M 118.132812 179.355469 C 126.785156 184.488281 128.105469 164.03125 123.414062 161.027344 C 115.859375 156.113281 109.921875 174.445312 118.132812 179.355469 Z M 207.875 62.414062 C 207.726562 60.949219 207.433594 59.484375 206.628906 58.238281 C 206.554688 58.164062 206.554688 58.089844 206.480469 58.015625 C 205.015625 55.890625 202.15625 55.011719 199.515625 55.230469 C 174.292969 57.503906 211.246094 96.140625 207.875 62.414062 Z M 43.789062 207.582031 C 43.71875 207.65625 43.71875 207.730469 43.644531 207.804688 C 42.835938 208.976562 42.472656 210.441406 42.25 211.910156 C 37.265625 245.414062 75.976562 208.535156 50.902344 205.089844 C 48.261719 204.722656 45.332031 205.53125 43.789062 207.582031 Z M 88.660156 230.679688 C 93.351562 225.984375 94.671875 218.214844 90.859375 212.714844 C 89.832031 211.25 88.441406 209.929688 86.753906 209.34375 C 85.066406 208.683594 83.089844 208.757812 81.550781 209.78125 C 79.714844 211.027344 78.910156 213.375 78.542969 215.574219 C 78.101562 217.921875 78.03125 220.339844 78.101562 222.757812 C 78.46875 228.550781 82.648438 236.691406 88.660156 230.679688 Z M 87.707031 81.257812 C 93.941406 77.371094 92.621094 65.128906 86.753906 61.609375 C 85.433594 60.800781 83.675781 60.507812 82.207031 61.242188 C 80.449219 62.121094 79.644531 64.101562 79.128906 65.933594 C 77.882812 70.628906 79.277344 86.464844 87.707031 81.257812 Z M 122.3125 81.257812 C 126.492188 80.453125 128.398438 73.707031 127.957031 70.261719 C 127.519531 66.960938 125.613281 63.734375 122.605469 62.34375 C 119.601562 60.949219 115.496094 62.050781 113.957031 64.980469 C 112.929688 67.035156 113.222656 69.453125 113.734375 71.652344 C 114.613281 75.320312 117.328125 82.210938 122.3125 81.257812 Z M 49.4375 177.230469 C 58.234375 176.496094 57.0625 163.59375 53.027344 158.460938 C 51.929688 157.140625 50.390625 156.113281 48.628906 156.042969 C 46.578125 156.042969 44.671875 157.359375 43.644531 159.121094 C 40.636719 164.398438 40.859375 177.964844 49.4375 177.230469 Z M 84.1875 180.894531 C 90.054688 180.601562 91.007812 169.238281 90.199219 165.132812 C 89.6875 162.417969 87.855469 159.558594 85.140625 159.488281 C 83.675781 159.488281 82.28125 160.292969 81.328125 161.464844 C 80.449219 162.640625 79.9375 164.03125 79.570312 165.5 C 78.617188 169.3125 77.664062 181.261719 84.1875 180.894531 Z M 45.992188 105.304688 C 43.277344 106.40625 41.664062 109.191406 41.152344 112.050781 C 40.636719 114.910156 41.152344 117.84375 41.664062 120.628906 C 42.472656 124.660156 42.984375 130.96875 48.261719 128.695312 C 51.929688 127.082031 55.15625 121.4375 56.109375 117.84375 C 56.988281 114.617188 56.695312 110.953125 54.789062 108.238281 C 52.882812 105.527344 49.070312 104.058594 45.992188 105.304688 Z M 83.75 126.789062 C 89.980469 129.792969 90.421875 117.988281 89.980469 114.398438 C 89.832031 112.859375 89.46875 111.316406 88.734375 110.070312 C 87.925781 108.75 86.609375 107.726562 85.140625 107.578125 C 83.089844 107.359375 81.109375 108.898438 80.230469 110.804688 C 78.324219 114.835938 79.054688 124.515625 83.75 126.789062 Z M 117.988281 212.640625 C 113.148438 215.5 113.515625 235.957031 122.386719 231.265625 C 130.890625 226.71875 125.757812 208.097656 117.988281 212.640625 Z M 46.871094 54.71875 C 44.304688 54.351562 41.371094 55.085938 39.832031 57.210938 C 39.757812 57.285156 39.757812 57.355469 39.683594 57.429688 C 38.878906 58.601562 38.511719 60.070312 38.292969 61.535156 C 33.160156 94.96875 71.945312 58.089844 46.871094 54.71875 Z M 46.871094 54.71875 " fill-opacity="1" fill-rule="nonzero"/><path fill="#b6b9ae" d="M 248.859375 220.632812 C 249.078125 230.972656 248.566406 241.457031 247.832031 251.792969 C 246.21875 275.035156 243.578125 298.570312 234.269531 319.976562 C 224.957031 341.3125 208.09375 360.449219 185.878906 367.339844 C 171.949219 371.667969 156.992188 371.007812 142.546875 368.953125 C 128.472656 366.972656 113.808594 363.308594 103.398438 353.628906 C 87.707031 339.039062 85.875 315.359375 79.347656 294.902344 C 72.382812 272.910156 58.820312 253.039062 40.929688 238.449219 C 33.601562 232.4375 25.316406 227.085938 20.328125 219.019531 C 13.949219 208.683594 14.097656 195.558594 16.589844 183.683594 C 20.476562 165.207031 30.667969 146.949219 47.53125 138.445312 C 66.007812 129.0625 89.027344 132.652344 107.503906 123.269531 C 112.707031 120.628906 117.621094 117.695312 122.460938 114.835938 C 134.265625 107.726562 248.566406 207.144531 248.859375 220.632812 Z M 248.859375 220.632812 " fill-opacity="1" fill-rule="nonzero"/><g clip-path="url(#b548a2daff)"><path fill="#f1bfa8" d="M 152.667969 23.851562 C 176.714844 15.054688 201.421875 4.496094 227.375 3.910156 C 254.355469 3.324219 281.265625 11.386719 304.210938 25.609375 C 313.742188 31.550781 322.90625 38.808594 328.480469 48.632812 C 335.003906 60.070312 336.03125 73.851562 334.566406 86.902344 C 332.953125 101.347656 328.625 115.277344 324.15625 129.0625 C 317.921875 148.195312 311.398438 167.183594 304.578125 186.101562 C 300.621094 197.023438 295.925781 208.683594 286.03125 214.769531 C 279.136719 219.019531 270.707031 219.753906 262.566406 220.195312 C 242.847656 221.292969 222.023438 220.925781 205.015625 211.027344 C 176.496094 194.460938 167.402344 157.289062 143.207031 134.925781 C 134.558594 126.933594 123.558594 120.261719 119.894531 109.117188 C 117.546875 102.078125 118.648438 94.382812 119.671875 87.050781 C 123.046875 63.882812 127.664062 32.941406 152.667969 23.851562 Z M 152.667969 23.851562 " fill-opacity="1" fill-rule="nonzero"/></g><path fill="#859588" d="M 205.015625 211.027344 C 176.496094 194.460938 167.402344 157.289062 143.207031 134.925781 C 136.097656 128.402344 127.519531 122.753906 122.53125 114.765625 C 134.335938 107.726562 145.703125 100.832031 160.144531 97.972656 C 183.53125 93.28125 200.101562 108.457031 213.007812 125.90625 C 225.542969 142.84375 237.128906 160.878906 243.210938 181.042969 C 247.097656 193.871094 248.566406 207.214844 248.859375 220.707031 C 233.535156 220.632812 218.136719 218.652344 205.015625 211.027344 Z M 205.015625 211.027344 " fill-opacity="1" fill-rule="nonzero"/><path fill="#cb836d" d="M 291.308594 319.023438 C 290.28125 282.953125 289.402344 238.667969 288.449219 195.851562 C 287.570312 153.035156 286.617188 108.75 285.589844 72.679688 L 285.589844 71.726562 L 284.636719 71.582031 C 277.597656 70.628906 270.191406 69.894531 262.128906 69.378906 C 261.761719 63.367188 261.101562 57.941406 260.222656 53.472656 C 259.050781 47.3125 255.894531 46.871094 254.578125 47.019531 C 251.570312 47.238281 248.566406 50.613281 248.417969 53.984375 C 248.199219 58.382812 248.417969 63.589844 248.785156 68.867188 C 237.128906 68.574219 225.324219 68.792969 214.253906 69.015625 C 213.738281 64.6875 213.152344 60.730469 212.417969 57.503906 C 211.832031 54.863281 210.21875 53.398438 208.167969 53.542969 C 205.675781 53.691406 203.546875 56.183594 203.183594 59.191406 C 202.886719 62.121094 202.667969 65.640625 202.59375 69.308594 C 192.402344 69.527344 181.480469 69.746094 167.550781 69.894531 C 166.15625 60.65625 164.105469 57.871094 162.199219 56.625 C 160.730469 55.742188 158.972656 55.742188 156.992188 56.695312 C 155.085938 57.648438 154.9375 60.289062 154.792969 63.367188 C 154.792969 63.734375 154.71875 64.175781 154.71875 64.542969 C 154.574219 66.226562 154.574219 68.0625 154.574219 70.039062 L 147.3125 70.113281 C 137.929688 70.1875 128.324219 70.332031 118.792969 70.480469 C 118.648438 67.914062 118.574219 65.421875 118.425781 63.148438 C 118.132812 58.96875 117.179688 56.257812 115.496094 54.863281 C 114.46875 53.984375 113.148438 53.691406 111.535156 53.910156 C 107.722656 54.425781 106.109375 57.648438 105.890625 64.910156 C 105.816406 66.742188 105.816406 68.648438 105.816406 70.628906 C 99.730469 70.699219 94.085938 70.847656 88.585938 70.992188 L 87.488281 70.992188 L 87.488281 72.09375 C 87.488281 107.210938 86.679688 152.449219 85.875 196.21875 C 85.066406 239.988281 84.335938 285.296875 84.261719 320.417969 L 84.261719 321.515625 L 85.363281 321.515625 C 118.867188 321.222656 153.839844 321.003906 187.710938 320.785156 C 221.585938 320.5625 256.628906 320.34375 290.0625 320.050781 L 291.160156 320.050781 Z M 262.640625 81.476562 C 263.816406 82.578125 264.914062 84.410156 265.28125 87.195312 C 265.574219 89.761719 264.621094 92.328125 262.863281 93.796875 C 262.789062 93.867188 262.714844 93.941406 262.566406 94.015625 C 262.640625 89.691406 262.714844 85.511719 262.640625 81.476562 Z M 250.691406 54.132812 C 250.765625 51.929688 252.964844 49.367188 254.796875 49.21875 C 256.847656 49.070312 257.730469 52.078125 258.097656 53.910156 C 260.003906 64.027344 260.808594 78.691406 260.296875 95.1875 C 259.195312 95.554688 258.167969 95.773438 257.289062 95.921875 C 256.261719 96.066406 255.089844 96.140625 253.917969 96.066406 C 253.769531 94.675781 253.550781 92.84375 253.257812 90.714844 C 252.15625 81.113281 250.25 65.054688 250.691406 54.132812 Z M 251.132812 91.007812 C 251.351562 92.769531 251.570312 94.382812 251.71875 95.703125 C 250.835938 95.410156 250.105469 95.042969 249.445312 94.382812 C 247.613281 92.550781 247.390625 89.542969 247.90625 87.34375 C 248.273438 85.511719 249.078125 83.972656 250.179688 82.652344 C 250.542969 85.730469 250.835938 88.589844 251.132812 91.007812 Z M 215.5 87.195312 C 216.378906 88.664062 216.964844 90.277344 217.257812 91.523438 C 217.699219 93.503906 217.257812 95.847656 216.085938 97.679688 C 215.792969 98.121094 215.570312 98.488281 215.207031 98.78125 C 215.5 95.335938 215.570312 91.375 215.5 87.195312 Z M 205.453125 59.410156 C 205.675781 57.285156 207.140625 55.742188 208.386719 55.671875 C 209.632812 55.597656 210.148438 57.0625 210.367188 57.941406 C 212.859375 68.648438 214.03125 88.371094 213.007812 100.539062 C 212.640625 100.6875 212.199219 100.832031 211.832031 100.90625 C 211.027344 101.054688 210.148438 101.125 209.121094 101.054688 C 208.242188 100.980469 206.847656 100.761719 205.527344 100.101562 C 205.234375 96.140625 204.0625 72.535156 205.453125 59.410156 Z M 203.109375 98.195312 C 201.714844 96.289062 201.421875 93.429688 202.15625 89.617188 C 202.300781 88.882812 202.523438 88.148438 202.742188 87.5625 C 202.816406 92.035156 203.035156 95.847656 203.109375 98.195312 Z M 169.601562 100.027344 C 169.527344 93.941406 169.308594 88.664062 169.089844 84.191406 C 171.507812 86.464844 173.046875 89.324219 173.339844 92.109375 C 173.5625 94.75 172.683594 97.09375 170.703125 99.074219 C 170.335938 99.441406 169.96875 99.734375 169.601562 100.027344 Z M 156.917969 64.6875 C 156.917969 64.25 156.992188 63.882812 156.992188 63.441406 C 157.140625 61.535156 157.285156 58.96875 158.019531 58.601562 C 159.703125 57.796875 160.585938 58.089844 161.097656 58.382812 C 164.984375 60.730469 167.035156 74.660156 167.402344 100.980469 C 165.128906 101.714844 162.417969 101.640625 160.144531 100.539062 C 159.484375 97.09375 156.039062 76.347656 156.917969 64.6875 Z M 157.578125 98.925781 C 155.304688 96.800781 153.839844 93.648438 153.621094 90.421875 C 153.472656 88.515625 153.765625 86.609375 154.5 85.070312 C 154.792969 84.410156 155.085938 83.824219 155.453125 83.3125 C 156.1875 89.691406 157.066406 95.628906 157.578125 98.925781 Z M 119.527344 101.492188 C 119.527344 98.707031 119.453125 93.503906 119.308594 87.417969 C 121.800781 91.375 122.898438 96.949219 120.625 100.246094 C 120.261719 100.6875 119.894531 101.128906 119.527344 101.492188 Z M 108.089844 65.054688 C 108.308594 56.625 110.582031 56.332031 111.828125 56.109375 C 112.78125 55.964844 113.515625 56.109375 114.027344 56.550781 C 114.835938 57.210938 115.859375 58.894531 116.15625 63.296875 C 117.035156 77.003906 117.253906 98.78125 117.328125 102.960938 C 115.714844 103.691406 113.882812 103.914062 112.195312 103.398438 C 111.535156 103.179688 110.875 102.886719 110.214844 102.519531 C 109.847656 99.074219 107.722656 79.5 108.089844 65.054688 Z M 106.476562 85.144531 C 106.917969 91.597656 107.503906 97.316406 107.796875 100.539062 C 105.597656 98.121094 104.203125 94.675781 104.203125 91.300781 C 104.203125 88.808594 105.011719 86.683594 106.476562 85.144531 Z M 88.222656 196.292969 C 88.953125 152.960938 89.761719 108.164062 89.832031 73.191406 C 94.964844 73.046875 100.246094 72.972656 105.964844 72.828125 C 106.035156 75.980469 106.183594 79.207031 106.332031 82.359375 C 103.617188 84.335938 102.078125 87.488281 102.078125 91.230469 C 102.078125 96.289062 104.71875 101.421875 108.675781 104.058594 C 109.703125 104.71875 110.65625 105.160156 111.609375 105.453125 C 112.414062 105.671875 113.296875 105.820312 114.175781 105.820312 C 117.328125 105.820312 120.554688 104.207031 122.460938 101.421875 C 125.832031 96.507812 123.558594 88.222656 119.234375 83.675781 C 119.160156 80.011719 119.015625 76.273438 118.867188 72.605469 C 128.398438 72.460938 138.003906 72.386719 147.3125 72.238281 L 154.644531 72.167969 C 154.71875 74.804688 154.9375 77.519531 155.160156 80.230469 C 154.058594 81.183594 153.179688 82.503906 152.445312 84.042969 C 151.640625 85.949219 151.273438 88.148438 151.421875 90.421875 C 151.714844 94.894531 153.914062 99 157.285156 101.421875 C 157.726562 101.714844 158.09375 102.007812 158.53125 102.226562 C 160.292969 103.179688 162.269531 103.621094 164.25 103.621094 C 167.257812 103.621094 170.1875 102.519531 172.167969 100.539062 C 174.589844 98.046875 175.6875 95.042969 175.394531 91.816406 C 175.027344 87.855469 172.535156 83.824219 168.796875 81.039062 C 168.574219 77.519531 168.28125 74.511719 167.917969 71.945312 C 181.699219 71.800781 192.476562 71.582031 202.59375 71.359375 C 202.523438 75.320312 202.523438 79.425781 202.59375 83.238281 C 201.347656 84.628906 200.542969 86.464844 199.957031 89.101562 C 199.003906 93.722656 199.515625 97.316406 201.570312 99.734375 C 203.183594 101.640625 205.746094 102.886719 208.828125 103.105469 C 209.265625 103.105469 209.632812 103.179688 210 103.179688 C 210.804688 103.179688 211.539062 103.105469 212.199219 102.960938 C 214.546875 102.445312 216.597656 100.980469 217.992188 98.78125 C 219.53125 96.363281 220.042969 93.503906 219.457031 90.9375 C 218.796875 88.078125 217.332031 85.289062 215.425781 83.457031 C 215.277344 79.277344 214.984375 75.097656 214.617188 71.066406 C 225.761719 70.847656 237.492188 70.628906 249.152344 70.921875 C 249.371094 73.925781 249.664062 76.933594 249.957031 79.792969 C 247.832031 81.550781 246.367188 83.898438 245.777344 86.757812 C 245.046875 90.347656 245.851562 93.796875 247.976562 95.847656 C 249.589844 97.460938 251.9375 98.195312 254.796875 98.195312 C 255.675781 98.195312 256.703125 98.121094 257.730469 97.972656 C 259.5625 97.679688 262.273438 97.167969 264.328125 95.410156 C 266.675781 93.429688 267.921875 90.128906 267.554688 86.832031 C 267.113281 83.089844 265.355469 80.230469 262.714844 78.546875 C 262.640625 76.125 262.566406 73.78125 262.421875 71.507812 C 269.972656 71.945312 276.9375 72.679688 283.683594 73.558594 C 284.710938 109.484375 285.589844 153.328125 286.46875 195.777344 C 287.203125 230.824219 287.9375 266.75 288.742188 298.496094 C 265.28125 297.46875 102.222656 298.054688 86.828125 298.054688 C 86.902344 267.261719 87.5625 231.335938 88.222656 196.292969 Z M 187.859375 318.65625 C 154.351562 318.878906 119.746094 319.097656 86.609375 319.390625 C 86.609375 315.871094 86.609375 312.28125 86.609375 308.613281 C 95.480469 308.46875 157.140625 307.808594 175.175781 308.46875 L 175.246094 306.265625 C 157.210938 305.535156 95.625 306.265625 86.609375 306.414062 C 86.609375 304.433594 86.609375 302.453125 86.679688 300.476562 C 101.929688 300.402344 265.941406 299.890625 288.667969 300.914062 C 288.816406 306.78125 288.960938 312.5 289.109375 318.070312 C 255.96875 318.21875 221.363281 318.4375 187.859375 318.65625 Z M 252.378906 312.9375 L 252.230469 315.140625 C 241.085938 314.550781 163.664062 314.480469 126.417969 314.480469 C 111.460938 314.480469 104.789062 314.480469 104.425781 314.480469 L 104.570312 312.28125 C 105.082031 312.28125 114.027344 312.28125 126.417969 312.28125 C 163.664062 312.28125 241.234375 312.28125 252.378906 312.9375 Z M 252.378906 312.9375 " fill-opacity="1" fill-rule="nonzero"/><g clip-path="url(#1786132485)"><path fill="#662e1c" d="M 256.660156 256.761719 C 256.65625 256.742188 256.65625 256.71875 256.652344 256.699219 L 252.242188 241.308594 L 246.246094 220.339844 L 232.464844 171.898438 C 232.457031 171.878906 232.445312 171.859375 232.4375 171.835938 L 229.152344 160.289062 C 229.078125 160.039062 228.882812 159.839844 228.628906 159.765625 C 228.378906 159.699219 222.382812 158.074219 216.460938 159.765625 C 210.53125 161.457031 206.355469 165.949219 206.183594 166.140625 C 206.152344 166.175781 206.128906 166.214844 206.101562 166.257812 L 206.109375 161.445312 C 206.109375 161.140625 205.925781 160.867188 205.648438 160.75 C 205.332031 160.613281 197.789062 157.457031 189.054688 157.457031 C 180.320312 157.457031 172.878906 160.585938 172.5625 160.71875 C 172.320312 160.820312 172.164062 161.039062 172.121094 161.289062 L 172.121094 147.375 C 172.121094 147.109375 171.984375 146.867188 171.757812 146.730469 C 171.574219 146.613281 167.113281 143.953125 159.929688 143.953125 C 152.746094 143.953125 148.285156 146.613281 148.097656 146.730469 C 147.996094 146.789062 147.917969 146.875 147.859375 146.972656 L 147.859375 135.878906 C 147.859375 135.589844 147.691406 135.320312 147.425781 135.199219 C 147.164062 135.078125 140.960938 132.167969 135.664062 132.167969 C 130.367188 132.167969 124.164062 135.078125 123.902344 135.199219 C 123.640625 135.324219 123.472656 135.589844 123.472656 135.878906 L 123.472656 136.601562 C 123.394531 136.480469 123.277344 136.382812 123.140625 136.320312 C 123 136.261719 119.667969 134.808594 116.804688 134.808594 C 113.945312 134.808594 110.613281 136.261719 110.472656 136.324219 C 110.199219 136.445312 110.023438 136.714844 110.023438 137.015625 L 110.023438 273.949219 C 110.023438 274.222656 110.171875 274.472656 110.410156 274.609375 C 110.550781 274.6875 113.910156 276.527344 116.804688 276.527344 C 119.703125 276.527344 123.058594 274.6875 123.199219 274.609375 C 123.441406 274.476562 123.589844 274.222656 123.589844 273.949219 L 123.589844 273.226562 C 123.664062 273.34375 123.769531 273.4375 123.902344 273.5 C 124.164062 273.621094 130.367188 276.527344 135.664062 276.527344 C 140.960938 276.527344 147.164062 273.621094 147.425781 273.5 C 147.5625 273.433594 147.671875 273.328125 147.75 273.203125 C 147.773438 273.425781 147.902344 273.632812 148.097656 273.753906 C 148.285156 273.867188 152.75 276.527344 159.929688 276.527344 C 167.113281 276.527344 171.574219 273.867188 171.757812 273.753906 C 171.941406 273.640625 172.0625 273.457031 172.101562 273.25 L 172.101562 273.804688 C 172.101562 274.105469 172.285156 274.378906 172.5625 274.496094 C 172.878906 274.628906 180.320312 277.757812 189.054688 277.757812 C 197.789062 277.757812 205.332031 274.601562 205.648438 274.46875 C 205.925781 274.351562 206.109375 274.078125 206.109375 273.773438 L 206.09375 261.78125 C 206.097656 261.753906 206.109375 261.730469 206.109375 261.703125 L 206.09375 254.867188 C 206.101562 254.824219 206.109375 254.777344 206.109375 254.734375 L 206.082031 245.710938 L 206.082031 245.6875 L 206.0625 227.136719 L 206.109375 180.503906 C 206.109375 180.488281 206.105469 180.472656 206.105469 180.457031 L 206.109375 173.519531 C 206.109375 173.492188 206.101562 173.464844 206.097656 173.4375 L 206.105469 167.164062 L 208.183594 174.472656 C 208.167969 174.578125 208.175781 174.683594 208.203125 174.785156 L 211.503906 186.316406 C 211.507812 186.34375 211.507812 186.367188 211.515625 186.394531 L 223.238281 227.390625 L 227.398438 242.015625 L 231.207031 255.445312 C 231.210938 255.46875 231.226562 255.488281 231.238281 255.515625 L 234.519531 267.054688 C 234.542969 267.144531 234.597656 267.222656 234.65625 267.296875 L 236.839844 274.933594 C 236.910156 275.1875 237.109375 275.382812 237.359375 275.453125 C 237.527344 275.5 240.152344 276.21875 243.621094 276.21875 C 245.414062 276.21875 247.4375 276.027344 249.453125 275.449219 C 255.382812 273.757812 259.613281 269.222656 259.792969 269.03125 C 259.972656 268.835938 260.035156 268.566406 259.960938 268.308594 Z M 204.597656 273.261719 C 202.839844 273.9375 196.277344 276.25 189.054688 276.25 C 181.832031 276.25 175.355469 273.960938 173.609375 273.292969 L 173.601562 265.585938 C 173.601562 265.46875 173.566406 265.359375 173.511719 265.257812 L 173.511719 262.800781 C 175.820312 263.65625 182.015625 265.6875 189.054688 265.6875 C 196 265.6875 202.183594 263.695312 204.589844 262.8125 Z M 135.664062 133.679688 C 139.855469 133.679688 144.867188 135.722656 146.347656 136.367188 L 146.347656 148.746094 C 144.304688 147.890625 139.71875 146.1875 135.664062 146.1875 C 131.609375 146.1875 127.023438 147.894531 124.980469 148.746094 L 124.980469 136.367188 C 126.457031 135.722656 131.464844 133.679688 135.664062 133.679688 Z M 170.613281 262.738281 C 169.445312 263.339844 165.542969 265.097656 159.929688 265.097656 C 154.3125 265.097656 150.410156 263.339844 149.246094 262.738281 L 149.246094 260.59375 C 151.023438 261.40625 154.777344 262.777344 159.929688 262.777344 C 165.085938 262.777344 168.832031 261.40625 170.613281 260.59375 Z M 170.613281 159.886719 C 168.835938 159.070312 165.085938 157.699219 159.929688 157.699219 C 154.773438 157.699219 151.019531 159.070312 149.246094 159.886719 L 149.246094 157.738281 C 150.410156 157.140625 154.3125 155.382812 159.929688 155.382812 C 165.542969 155.382812 169.445312 157.140625 170.613281 157.738281 Z M 149.242188 161.5625 C 150.402344 160.964844 154.289062 159.207031 159.925781 159.207031 C 165.539062 159.207031 169.441406 160.964844 170.609375 161.5625 L 170.609375 258.914062 C 169.449219 259.511719 165.566406 261.269531 159.925781 261.269531 C 154.3125 261.269531 150.40625 259.511719 149.242188 258.914062 Z M 170.613281 147.820312 L 170.613281 156.058594 C 168.835938 155.246094 165.085938 153.875 159.929688 153.875 C 154.773438 153.875 151.019531 155.246094 149.246094 156.058594 L 149.246094 147.820312 C 150.410156 147.222656 154.3125 145.464844 159.929688 145.464844 C 165.542969 145.464844 169.445312 147.222656 170.613281 147.820312 Z M 146.347656 261.828125 C 144.867188 262.476562 139.855469 264.519531 135.664062 264.519531 C 131.472656 264.519531 126.457031 262.472656 124.980469 261.828125 L 124.980469 239.882812 C 126.925781 240.296875 131.578125 241.175781 135.664062 241.175781 C 139.75 241.175781 144.402344 240.296875 146.347656 239.882812 Z M 124.976562 150.386719 C 126.457031 149.742188 131.46875 147.699219 135.660156 147.699219 C 139.851562 147.699219 144.867188 149.742188 146.34375 150.386719 L 146.34375 172.332031 C 144.398438 171.921875 139.746094 171.039062 135.660156 171.039062 C 131.574219 171.039062 126.921875 171.921875 124.976562 172.332031 Z M 124.976562 195.914062 L 146.347656 195.914062 L 146.347656 216.300781 L 124.976562 216.300781 Z M 146.347656 194.40625 L 124.976562 194.40625 L 124.976562 173.875 C 126.628906 173.515625 131.523438 172.542969 135.660156 172.542969 C 139.796875 172.542969 144.691406 173.515625 146.34375 173.875 L 146.34375 194.40625 Z M 124.976562 217.808594 L 146.347656 217.808594 L 146.347656 238.34375 C 144.695312 238.699219 139.800781 239.671875 135.664062 239.671875 C 131.527344 239.671875 126.632812 238.699219 124.980469 238.34375 L 124.980469 217.808594 Z M 124.976562 272.324219 L 124.976562 263.472656 C 127.019531 264.328125 131.605469 266.027344 135.660156 266.027344 C 139.714844 266.027344 144.300781 264.324219 146.34375 263.472656 L 146.34375 272.324219 C 144.863281 272.972656 139.851562 275.015625 135.660156 275.015625 C 131.46875 275.015625 126.457031 272.972656 124.976562 272.324219 Z M 149.242188 264.417969 C 151.019531 265.234375 154.773438 266.605469 159.925781 266.605469 C 165.082031 266.605469 168.832031 265.234375 170.609375 264.417969 L 170.609375 272.660156 C 169.449219 273.257812 165.566406 275.015625 159.925781 275.015625 C 154.3125 275.015625 150.40625 273.257812 149.242188 272.660156 Z M 173.507812 170 C 173.566406 169.894531 173.601562 169.769531 173.601562 169.636719 L 173.609375 161.929688 C 175.351562 161.257812 181.832031 158.972656 189.054688 158.972656 C 196.277344 158.972656 202.839844 161.285156 204.597656 161.960938 L 204.585938 172.414062 C 202.179688 171.527344 195.996094 169.535156 189.054688 169.535156 C 182.015625 169.535156 175.820312 171.566406 173.511719 172.425781 Z M 173.527344 246.261719 L 173.535156 241.640625 L 173.558594 236.664062 L 173.550781 231.988281 L 173.558594 229.679688 L 173.550781 223.644531 L 173.558594 217.609375 L 173.53125 189.007812 C 173.574219 188.914062 173.605469 188.804688 173.605469 188.691406 L 173.613281 180.984375 C 175.355469 180.3125 181.835938 178.027344 189.054688 178.027344 C 196.257812 178.027344 202.796875 180.324219 204.582031 181.007812 L 204.542969 217.609375 L 204.550781 223.644531 L 204.542969 229.679688 L 204.546875 232.246094 L 204.542969 236.664062 L 204.570312 245.457031 L 204.574219 246.445312 L 204.582031 254.226562 C 202.800781 254.910156 196.261719 257.207031 189.058594 257.207031 C 181.839844 257.207031 175.359375 254.921875 173.613281 254.25 L 173.609375 246.546875 C 173.601562 246.445312 173.574219 246.351562 173.527344 246.261719 Z M 204.582031 179.394531 C 202.167969 178.511719 195.992188 176.523438 189.054688 176.523438 C 182.109375 176.523438 175.980469 178.5 173.605469 179.375 L 173.613281 174.003906 C 175.355469 173.332031 181.835938 171.042969 189.054688 171.042969 C 196.265625 171.042969 202.8125 173.34375 204.589844 174.027344 Z M 189.054688 258.71875 C 195.992188 258.71875 202.167969 256.730469 204.582031 255.84375 L 204.585938 261.191406 C 202.8125 261.871094 196.265625 264.175781 189.054688 264.175781 C 181.832031 264.175781 175.355469 261.886719 173.609375 261.21875 L 173.601562 255.867188 C 175.980469 256.742188 182.105469 258.71875 189.054688 258.71875 Z M 116.804688 136.316406 C 118.777344 136.316406 121.117188 137.140625 122.082031 137.519531 L 122.082031 142.464844 C 120.863281 142.117188 118.722656 141.589844 116.804688 141.589844 C 114.886719 141.589844 112.75 142.113281 111.53125 142.464844 L 111.53125 137.519531 C 112.496094 137.144531 114.835938 136.316406 116.804688 136.316406 Z M 122.082031 144.042969 L 122.082031 265.847656 C 121.125 266.238281 118.777344 267.113281 116.804688 267.113281 C 114.832031 267.113281 112.488281 266.238281 111.53125 265.847656 L 111.53125 144.042969 C 112.535156 143.734375 114.847656 143.097656 116.804688 143.097656 C 118.765625 143.097656 121.082031 143.734375 122.082031 144.042969 Z M 111.53125 273.488281 L 111.53125 267.46875 C 112.773438 267.941406 114.894531 268.621094 116.804688 268.621094 C 118.71875 268.621094 120.839844 267.945312 122.082031 267.46875 L 122.082031 273.488281 C 121.164062 273.941406 118.796875 275.015625 116.804688 275.015625 C 114.824219 275.015625 112.449219 273.941406 111.53125 273.488281 Z M 249.042969 274 C 244.375 275.332031 239.566406 274.417969 238.171875 274.101562 L 236.03125 266.621094 C 236.003906 266.523438 235.957031 266.441406 235.894531 266.367188 L 235.253906 264.121094 C 236.375 264.339844 238.183594 264.609375 240.308594 264.609375 C 242.101562 264.609375 244.125 264.417969 246.148438 263.84375 C 250.519531 262.59375 253.964844 259.804688 255.546875 258.34375 L 258.394531 268.304688 C 257.367188 269.316406 253.726562 272.660156 249.042969 274 Z M 227.824219 161.125 L 230.65625 171.09375 C 228.542969 170.6875 224.140625 170.128906 219.773438 171.378906 C 215.355469 172.636719 211.910156 175.453125 210.371094 176.886719 L 209.734375 174.664062 C 209.75 174.558594 209.742188 174.457031 209.710938 174.351562 L 207.585938 166.871094 C 208.601562 165.863281 212.207031 162.550781 216.875 161.21875 C 221.542969 159.890625 226.410156 160.808594 227.824219 161.125 Z M 232.71875 255.011719 C 232.695312 254.925781 232.648438 254.847656 232.59375 254.777344 L 222.839844 220.492188 L 213.046875 186.246094 C 213.054688 186.152344 213.050781 186.058594 213.019531 185.960938 L 210.894531 178.480469 C 211.910156 177.472656 215.515625 174.160156 220.183594 172.828125 C 224.839844 171.5 229.699219 172.414062 231.121094 172.734375 L 243.070312 214.726562 L 244.796875 220.765625 L 246.378906 226.332031 L 250.734375 241.519531 L 255.074219 256.703125 C 254.039062 257.726562 250.394531 261.0625 245.734375 262.390625 C 241.066406 263.722656 236.257812 262.816406 234.859375 262.492188 Z M 232.71875 255.011719 " fill-opacity="1" fill-rule="nonzero"/></g><g fill="#b38272" fill-opacity="1"><g transform="translate(39.15424, 130.341952)"><g><path d="M 37.921875 -12.71875 C 37.617188 -12.539062 37.332031 -12.351562 37.0625 -12.15625 C 36.800781 -11.96875 36.507812 -11.8125 36.1875 -11.6875 C 34.832031 -11.125 33.34375 -10.921875 31.71875 -11.078125 C 30.09375 -11.234375 28.613281 -11.710938 27.28125 -12.515625 C 25.945312 -13.316406 25.007812 -14.375 24.46875 -15.6875 C 24.09375 -16.59375 23.875 -17.863281 23.8125 -19.5 C 23.75 -21.144531 23.738281 -22.847656 23.78125 -24.609375 C 23.820312 -26.378906 23.8125 -27.859375 23.75 -29.046875 C 21.96875 -21.765625 19.757812 -15.976562 17.125 -11.6875 C 14.488281 -7.40625 11.832031 -4.710938 9.15625 -3.609375 C 7.125 -2.773438 5.175781 -2.898438 3.3125 -3.984375 C 1.457031 -5.078125 -0.109375 -7.1875 -1.390625 -10.3125 C -2.453125 -12.90625 -3.113281 -15.847656 -3.375 -19.140625 C -3.644531 -22.441406 -3.703125 -25.875 -3.546875 -29.4375 C -3.398438 -33.007812 -3.21875 -36.53125 -3 -40 C -2.78125 -43.46875 -2.738281 -46.695312 -2.875 -49.6875 C -3.019531 -52.6875 -3.519531 -55.234375 -4.375 -57.328125 C -4.800781 -58.367188 -5.316406 -59.160156 -5.921875 -59.703125 C -5.460938 -60.003906 -5.003906 -60.269531 -4.546875 -60.5 C -4.085938 -60.738281 -3.628906 -60.953125 -3.171875 -61.140625 C -1.492188 -61.828125 0.175781 -62.128906 1.84375 -62.046875 C 3.519531 -61.972656 5.046875 -61.476562 6.421875 -60.5625 C 7.804688 -59.65625 8.882812 -58.269531 9.65625 -56.40625 C 10.175781 -55.132812 10.421875 -53.429688 10.390625 -51.296875 C 10.367188 -49.171875 10.222656 -46.859375 9.953125 -44.359375 C 9.679688 -41.859375 9.398438 -39.375 9.109375 -36.90625 C 8.828125 -34.4375 8.632812 -32.226562 8.53125 -30.28125 C 8.4375 -28.332031 8.597656 -26.859375 9.015625 -25.859375 C 9.453125 -24.773438 10.234375 -24.46875 11.359375 -24.9375 C 12.222656 -25.289062 13.117188 -26.4375 14.046875 -28.375 C 14.972656 -30.3125 15.875 -32.757812 16.75 -35.71875 C 17.632812 -38.675781 18.441406 -41.867188 19.171875 -45.296875 C 19.910156 -48.722656 20.503906 -52.144531 20.953125 -55.5625 C 21.410156 -58.976562 21.664062 -62.101562 21.71875 -64.9375 C 21.78125 -67.769531 21.59375 -70.019531 21.15625 -71.6875 C 24.113281 -72.53125 26.6875 -72.660156 28.875 -72.078125 C 31.070312 -71.503906 32.671875 -69.992188 33.671875 -67.546875 C 34.421875 -65.734375 34.898438 -63.460938 35.109375 -60.734375 C 35.328125 -58.015625 35.410156 -55.046875 35.359375 -51.828125 C 35.316406 -48.609375 35.222656 -45.269531 35.078125 -41.8125 C 34.929688 -38.363281 34.847656 -34.953125 34.828125 -31.578125 C 34.804688 -28.203125 34.960938 -25.050781 35.296875 -22.125 C 35.628906 -19.195312 36.242188 -16.644531 37.140625 -14.46875 C 37.265625 -14.144531 37.390625 -13.835938 37.515625 -13.546875 C 37.640625 -13.253906 37.773438 -12.976562 37.921875 -12.71875 Z M 37.921875 -12.71875 "/></g></g></g><g fill="#b38272" fill-opacity="1"><g transform="translate(85.459136, 111.328714)"><g><path d="M -4.65625 -8.421875 C -5.25 -9.867188 -5.359375 -11.367188 -4.984375 -12.921875 C -4.617188 -14.472656 -4.132812 -15.9375 -3.53125 -17.3125 C -2.082031 -15.988281 -0.523438 -15.085938 1.140625 -14.609375 C 2.816406 -14.140625 4.503906 -14 6.203125 -14.1875 C 7.898438 -14.375 9.425781 -14.75 10.78125 -15.3125 C 12.414062 -15.988281 13.695312 -16.832031 14.625 -17.84375 C 15.5625 -18.863281 15.851562 -19.8125 15.5 -20.6875 C 15.257812 -21.269531 14.550781 -21.503906 13.375 -21.390625 C 12.207031 -21.273438 10.785156 -21.0625 9.109375 -20.75 C 7.441406 -20.4375 5.71875 -20.21875 3.9375 -20.09375 C 2.164062 -19.976562 0.578125 -20.144531 -0.828125 -20.59375 C -2.242188 -21.039062 -3.253906 -22.015625 -3.859375 -23.515625 C -4.742188 -25.648438 -4.941406 -27.941406 -4.453125 -30.390625 C -3.960938 -32.835938 -3.015625 -35.207031 -1.609375 -37.5 C -0.210938 -39.800781 1.5 -41.875 3.53125 -43.71875 C 5.5625 -45.5625 7.691406 -46.941406 9.921875 -47.859375 C 12.316406 -48.835938 14.265625 -48.878906 15.765625 -47.984375 C 17.265625 -47.097656 18.398438 -45.722656 19.171875 -43.859375 C 19.796875 -42.316406 20.1875 -40.613281 20.34375 -38.75 C 20.507812 -36.882812 20.488281 -35.113281 20.28125 -33.4375 C 18.925781 -35.15625 17.539062 -36.160156 16.125 -36.453125 C 14.71875 -36.753906 13.425781 -36.660156 12.25 -36.171875 C 11.25 -35.765625 10.375 -35.179688 9.625 -34.421875 C 8.875 -33.660156 8.328125 -32.890625 7.984375 -32.109375 C 7.640625 -31.335938 7.578125 -30.679688 7.796875 -30.140625 C 8.171875 -29.234375 8.863281 -28.734375 9.875 -28.640625 C 10.894531 -28.554688 12.085938 -28.59375 13.453125 -28.75 C 14.816406 -28.914062 16.203125 -28.992188 17.609375 -28.984375 C 19.015625 -28.984375 20.335938 -28.664062 21.578125 -28.03125 C 22.816406 -27.40625 23.800781 -26.207031 24.53125 -24.4375 C 25.320312 -22.488281 25.484375 -20.53125 25.015625 -18.5625 C 24.554688 -16.601562 23.660156 -14.726562 22.328125 -12.9375 C 21.003906 -11.15625 19.382812 -9.535156 17.46875 -8.078125 C 15.550781 -6.617188 13.523438 -5.457031 11.390625 -4.59375 C 9.210938 -3.695312 7.050781 -3.175781 4.90625 -3.03125 C 2.757812 -2.894531 0.835938 -3.25 -0.859375 -4.09375 C -2.554688 -4.9375 -3.820312 -6.378906 -4.65625 -8.421875 Z M -4.65625 -8.421875 "/></g></g></g><g fill="#b38272" fill-opacity="1"><g transform="translate(115.717102, 98.904501)"><g><path d="M 21.125 -43.171875 C 22.207031 -40.535156 22.679688 -37.957031 22.546875 -35.4375 C 22.410156 -32.914062 21.867188 -30.585938 20.921875 -28.453125 C 19.972656 -26.316406 18.804688 -24.515625 17.421875 -23.046875 C 16.046875 -21.578125 14.65625 -20.550781 13.25 -19.96875 C 12.070312 -19.488281 10.976562 -19.382812 9.96875 -19.65625 C 8.957031 -19.925781 8.1875 -20.695312 7.65625 -21.96875 C 7.25 -22.96875 7.160156 -24.054688 7.390625 -25.234375 C 7.617188 -26.421875 7.878906 -27.179688 8.171875 -27.515625 C 9.316406 -26.921875 10.347656 -26.8125 11.265625 -27.1875 C 12.066406 -27.519531 12.703125 -28.113281 13.171875 -28.96875 C 13.640625 -29.820312 13.921875 -30.742188 14.015625 -31.734375 C 14.117188 -32.722656 14.019531 -33.582031 13.71875 -34.3125 C 13.101562 -35.800781 12.273438 -36.332031 11.234375 -35.90625 C 10.421875 -35.570312 9.609375 -34.75 8.796875 -33.4375 C 7.984375 -32.125 7.289062 -30.539062 6.71875 -28.6875 C 6.15625 -26.84375 5.835938 -24.941406 5.765625 -22.984375 C 5.703125 -21.023438 6.015625 -19.207031 6.703125 -17.53125 C 7.160156 -16.394531 7.890625 -15.578125 8.890625 -15.078125 C 9.890625 -14.585938 11.179688 -14.671875 12.765625 -15.328125 C 13.941406 -15.804688 15.144531 -16.519531 16.375 -17.46875 C 17.601562 -18.425781 18.75 -19.507812 19.8125 -20.71875 C 20.882812 -21.9375 21.78125 -23.113281 22.5 -24.25 C 23.21875 -25.394531 23.664062 -26.398438 23.84375 -27.265625 C 24.582031 -24.972656 24.726562 -22.648438 24.28125 -20.296875 C 23.84375 -17.953125 22.957031 -15.722656 21.625 -13.609375 C 20.289062 -11.492188 18.65625 -9.601562 16.71875 -7.9375 C 14.78125 -6.269531 12.65625 -4.960938 10.34375 -4.015625 C 8.53125 -3.265625 6.738281 -2.882812 4.96875 -2.875 C 3.195312 -2.875 1.582031 -3.363281 0.125 -4.34375 C -1.332031 -5.320312 -2.507812 -6.898438 -3.40625 -9.078125 C -4.3125 -11.296875 -4.816406 -13.878906 -4.921875 -16.828125 C -5.023438 -19.785156 -4.753906 -22.84375 -4.109375 -26 C -3.472656 -29.15625 -2.53125 -32.175781 -1.28125 -35.0625 C -0.03125 -37.957031 1.484375 -40.488281 3.265625 -42.65625 C 5.054688 -44.820312 7.035156 -46.347656 9.203125 -47.234375 C 12.335938 -48.515625 14.890625 -48.6875 16.859375 -47.75 C 18.828125 -46.820312 20.25 -45.296875 21.125 -43.171875 Z M 21.125 -43.171875 "/></g></g></g><g fill="#b38272" fill-opacity="1"><g transform="translate(145.635105, 86.619879)"><g><path d="M 22.625 -70.484375 C 24.625 -71.296875 26.351562 -71.5 27.8125 -71.09375 C 29.269531 -70.6875 30.296875 -69.757812 30.890625 -68.3125 C 31.578125 -66.632812 31.570312 -64.40625 30.875 -61.625 C 30.507812 -61.476562 30.128906 -61.332031 29.734375 -61.1875 C 29.347656 -61.039062 28.96875 -60.894531 28.59375 -60.75 C 24.613281 -59.113281 21.351562 -57.320312 18.8125 -55.375 C 16.28125 -53.4375 14.28125 -51.375 12.8125 -49.1875 C 11.351562 -47.007812 10.257812 -44.765625 9.53125 -42.453125 C 8.8125 -40.140625 8.328125 -37.804688 8.078125 -35.453125 C 7.828125 -33.097656 7.648438 -30.757812 7.546875 -28.4375 C 7.546875 -28.4375 7.492188 -27.726562 7.390625 -26.3125 C 7.285156 -24.894531 7.195312 -22.976562 7.125 -20.5625 C 7.0625 -18.15625 7.046875 -15.457031 7.078125 -12.46875 C 7.109375 -9.488281 7.253906 -6.46875 7.515625 -3.40625 C 6.472656 -2.976562 5.210938 -2.617188 3.734375 -2.328125 C 2.265625 -2.035156 0.859375 -2.078125 -0.484375 -2.453125 C -1.828125 -2.835938 -2.804688 -3.773438 -3.421875 -5.265625 C -3.734375 -6.035156 -3.929688 -7.316406 -4.015625 -9.109375 C -4.097656 -10.910156 -4.113281 -13.007812 -4.0625 -15.40625 C -4.019531 -17.8125 -3.957031 -20.367188 -3.875 -23.078125 C -3.800781 -25.785156 -3.78125 -28.441406 -3.8125 -31.046875 C -3.851562 -33.660156 -3.984375 -36.046875 -4.203125 -38.203125 C -4.421875 -40.367188 -4.789062 -42.082031 -5.3125 -43.34375 C -5.550781 -43.9375 -5.828125 -44.40625 -6.140625 -44.75 C -6.140625 -44.75 -5.710938 -44.832031 -4.859375 -45 C -4.003906 -45.175781 -2.953125 -45.265625 -1.703125 -45.265625 C -0.460938 -45.273438 0.75 -45.0625 1.9375 -44.625 C 3.125 -44.1875 4.070312 -43.367188 4.78125 -42.171875 C 5.550781 -46.722656 6.789062 -50.914062 8.5 -54.75 C 10.21875 -58.582031 12.285156 -61.867188 14.703125 -64.609375 C 17.128906 -67.347656 19.769531 -69.304688 22.625 -70.484375 Z M 22.625 -70.484375 "/></g></g></g><path stroke-linecap="butt" transform="matrix(0.263896, -0.108358, 0.108358, 0.263896, -109.547676, 131.453399)" fill="none" stroke-linejoin="miter" d="M 612.180043 192.24599 C 610.967731 192.458709 609.793419 192.687031 608.657106 192.930956 C 607.57146 193.195685 606.438756 193.322674 605.258994 193.311923 C 600.107265 193.313289 594.985498 191.979957 589.916763 189.291795 C 584.845092 186.646833 580.67377 183.142981 577.397599 178.792906 C 574.129564 174.386962 572.491592 169.688194 572.483681 164.696602 C 572.492194 161.251183 573.4784 156.830609 575.447502 151.422215 C 577.459805 146.016756 579.707323 140.471044 582.179656 134.810412 C 584.651988 129.14978 586.579979 124.346197 587.958427 120.412331 C 572.492254 141.712294 557.622485 157.558297 543.356585 167.968207 C 529.142024 178.325185 516.963083 183.508313 506.812296 183.499722 C 499.099969 183.500639 492.958429 180.505192 488.387676 174.513383 C 483.807192 168.473172 481.528973 159.529719 481.524748 147.715823 C 481.527715 137.903177 483.288505 127.450508 486.809382 116.388349 C 490.33546 105.313523 494.711968 94.114221 499.951574 82.795645 C 505.199316 71.421201 510.480778 60.253032 515.806362 49.265803 C 521.131946 38.278575 525.559867 27.855296 529.090125 17.995968 C 532.605452 8.100904 534.372263 -0.780259 534.370426 -8.67059 C 534.36351 -12.655224 533.765194 -15.920548 532.53748 -18.482166 C 534.470619 -18.82817 536.331617 -19.070577 538.148741 -19.242185 C 539.947998 -19.406328 541.685514 -19.492206 543.36129 -19.49982 C 549.735982 -19.487498 555.593507 -18.251716 560.915998 -15.785008 C 566.233287 -13.305633 570.538068 -9.658168 573.812473 -4.835147 C 577.086878 -0.0121264 578.718628 5.927472 578.712926 12.970981 C 578.717651 17.754035 577.245733 23.573809 574.317302 30.453372 C 571.376205 37.327734 567.805459 44.654063 563.615468 52.407025 C 559.423212 60.129453 555.20856 67.798277 550.978976 75.431367 C 546.779927 83.062192 543.215478 89.976644 540.280428 96.18739 C 537.391516 102.357872 535.942591 107.32856 535.946322 111.104654 C 535.946693 115.249425 538.084065 117.326029 542.358438 117.334468 C 545.631054 117.331234 550.048145 114.793086 555.627581 109.712557 C 561.201815 104.644694 567.394052 97.8915 574.186423 89.46044 C 580.978795 81.02938 587.862695 71.762572 594.825457 61.654816 C 601.778488 51.498658 608.259919 41.193262 614.254817 30.702894 C 620.262382 20.217726 625.228671 10.429969 629.171552 1.332156 C 633.144968 -7.767922 635.5633 -15.315805 636.401216 -21.321896 C 647.059662 -20.098305 655.54806 -17.086558 661.88134 -12.250918 C 668.253292 -7.473411 671.439004 -0.451674 671.438477 8.814291 C 671.439319 15.697663 669.968046 23.678825 667.032124 32.775643 C 664.139403 41.875398 660.460082 51.629113 655.963626 62.039053 C 651.515573 72.439263 646.757225 83.126524 641.683381 94.113504 C 636.609537 105.100484 631.790369 116.044014 627.220677 126.956761 C 622.686719 137.854578 618.990948 148.297242 616.151232 158.277289 C 613.339786 168.224538 611.932169 177.312398 611.925445 185.584072 C 611.929625 186.799569 611.929276 187.953998 611.929599 189.034692 C 611.934451 190.176454 612.013711 191.245153 612.180043 192.24599 Z M 643.914418 149.531317 C 643.908946 143.993045 645.526145 138.973035 648.751082 134.435551 C 652.022157 129.857803 655.545469 125.783286 659.323955 122.168798 C 662.252653 128.374496 666.110393 133.363029 670.891976 137.147065 C 675.721962 140.92137 681.006701 143.624215 686.746195 145.255599 C 692.541557 146.89512 698.011369 147.705263 703.163098 147.703897 C 709.334452 147.706738 714.594657 146.684154 718.96158 144.628681 C 723.359036 142.570943 725.562482 139.908367 725.559248 136.635751 C 725.55701 134.370094 723.594282 132.661245 719.650934 131.486134 C 715.710522 130.267823 710.801152 129.066109 704.930288 127.898861 C 699.098096 126.673481 693.208196 125.083954 687.25312 123.112414 C 681.341246 121.143809 676.409579 118.482324 672.470786 115.13316 C 668.524527 111.766127 666.5568 107.257607 666.554936 101.602399 C 666.562581 93.50873 668.951722 85.815641 673.727563 78.510466 C 678.541404 71.220893 684.781619 64.783444 692.417675 59.200382 C 700.079064 53.627722 708.426789 49.195407 717.450448 45.928769 C 726.461441 42.656929 735.182842 41.027644 743.619853 41.028246 C 752.713015 41.017027 759.103532 43.478211 762.801808 48.386465 C 766.487418 53.289517 768.342638 59.261666 768.336936 66.305175 C 768.33972 72.138388 767.346196 78.199002 765.381697 84.497419 C 763.41267 90.734769 760.950068 96.443802 758.016959 101.604389 C 755.971168 94.221792 752.816387 89.107439 748.588352 86.246399 C 744.38565 83.395761 740.068177 81.978218 735.628466 81.975901 C 731.852371 81.979632 728.252762 82.707126 724.806571 84.178517 C 721.365581 85.637242 718.554985 87.399219 716.374783 89.464448 C 714.242983 91.519948 713.166543 93.564722 713.165597 95.62184 C 713.174952 99.059794 714.763876 101.606904 717.942773 103.237838 C 721.134336 104.873974 725.031796 106.341088 729.647818 107.644384 C 734.312243 108.937949 738.895043 110.538449 743.42449 112.413086 C 747.991936 114.303325 751.877301 117.097672 755.067917 120.790926 C 758.245867 124.478978 759.841136 129.678289 759.841058 136.383657 C 759.842398 143.770508 757.768677 150.334925 753.619897 156.076906 C 749.514318 161.821824 744.094099 166.730893 737.389774 170.80185 C 730.71892 174.827342 723.296381 177.90769 715.122158 180.042893 C 706.978468 182.175833 698.867255 183.256348 690.773586 183.248704 C 682.514579 183.247181 674.818205 182.055669 667.689664 179.661501 C 660.558858 177.236798 654.807644 173.543095 650.456155 168.603461 C 646.087469 163.597558 643.910133 157.25631 643.914418 149.531317 Z M 888.404529 71.15506 C 888.407684 81.133043 886.520328 90.127534 882.742462 98.138532 C 878.967533 106.106329 874.112259 112.92002 868.146106 118.581869 C 862.23582 124.251856 856.045625 128.548722 849.588188 131.477668 C 843.171687 134.379017 837.310104 135.820768 831.98037 135.823055 C 827.497459 135.817801 823.779845 134.705775 820.840196 132.492177 C 817.948949 130.268848 816.508764 126.746657 816.506975 121.920403 C 816.503244 118.144308 817.657799 114.503366 819.963175 110.979709 C 822.316953 107.446322 824.182082 105.355336 825.568964 104.681418 C 828.464392 108.120244 831.619548 109.845045 835.057501 109.83569 C 838.164779 109.838579 841.03266 108.766223 843.686479 106.629025 C 846.355901 104.453828 848.525875 101.836717 850.153201 98.774757 C 851.801331 95.66213 852.608761 92.72238 852.618692 89.958445 C 852.616828 84.303237 850.62618 81.472757 846.62888 81.474472 C 843.582671 81.467055 839.845397 83.070562 835.445326 86.252194 C 831.07579 89.431562 826.734847 93.658825 822.420231 98.903448 C 818.141351 104.133141 814.57205 109.905831 811.72273 116.196185 C 808.919547 122.446275 807.50693 128.734465 807.510211 135.071157 C 807.511503 139.393932 808.793144 143.013847 811.349932 145.94357 C 813.947657 148.845694 818.242062 150.28337 824.235412 150.287131 C 828.736191 150.284919 833.57663 149.563646 838.772333 148.085313 C 844.018701 146.627784 849.170705 144.643035 854.255942 142.172002 C 859.326248 139.665235 863.792413 137.043621 867.649237 134.319828 C 871.501532 131.534966 874.294859 128.877766 876.009083 126.325157 C 875.344866 134.756121 872.718915 142.485194 868.151365 149.535444 C 863.617285 156.54023 857.795242 162.572099 850.662168 167.651184 C 843.529094 172.730269 835.717149 176.686878 827.203266 179.541142 C 818.679652 182.347004 810.046669 183.760957 801.284183 183.759932 C 794.449212 183.751044 788.125536 182.605098 782.354089 180.294495 C 776.59531 177.989093 772.014128 174.25774 768.567343 169.097498 C 765.133225 163.942457 763.419527 157.2291 763.408383 148.964893 C 763.418715 140.576283 765.217404 131.545386 768.827519 121.852067 C 772.43537 112.128214 777.358707 102.58926 783.59753 93.235204 C 789.895157 83.846085 796.978612 75.282909 804.868027 67.568745 C 812.787975 59.852317 821.098224 53.672755 829.778641 49.006991 C 838.453857 44.353893 846.927301 42.030706 855.186308 42.032228 C 867.01287 42.033205 875.507813 44.884816 880.671136 50.58706 C 885.824728 56.240903 888.409237 63.104592 888.404529 71.15506 Z M 1042.987106 -15.407015 C 1050.564629 -15.404074 1056.46426 -13.766146 1060.655465 -10.490965 C 1064.85187 -7.22845 1066.945343 -2.845925 1066.941085 2.643946 C 1066.944367 8.980638 1063.949243 16.202872 1057.948249 24.29278 C 1056.572615 24.290415 1055.138849 24.249378 1053.677485 24.167405 C 1052.203454 24.080231 1050.800222 24.03693 1049.455122 24.032301 C 1034.325409 24.036822 1021.330979 25.510198 1010.520233 28.442701 C 999.694555 31.339468 990.480971 35.357045 982.838545 40.523029 C 975.213986 45.681547 968.684205 51.526428 963.274537 58.068073 C 957.867804 64.566516 953.166794 71.473154 949.181908 78.762652 C 945.252889 86.060288 941.554806 93.408342 938.110726 100.786681 C 938.110726 100.786681 936.999472 103.024391 934.78443 107.517679 C 932.559657 111.962564 929.727284 118.067449 926.292512 125.819664 C 922.842808 133.536145 919.203429 142.255304 915.338637 151.992072 C 911.481984 161.672972 907.919847 171.682035 904.649964 181.988727 C 900.708531 181.998579 896.161789 181.463842 890.994133 180.422514 C 885.844346 179.37372 881.311043 177.36428 877.412091 174.386727 C 873.546609 171.363709 871.628204 167.023464 871.626341 161.368255 C 871.622684 158.421115 872.71316 153.998948 874.890304 148.083889 C 877.036912 142.171094 879.774 135.360985 883.137302 127.638632 C 886.485672 119.880543 890.095015 111.667128 893.957865 102.98052 C 897.815513 94.306578 901.428216 85.724487 904.772904 77.25438 C 908.133195 68.746274 910.87516 60.842805 913.016668 53.536508 C 915.152975 46.242878 916.220234 40.182935 916.231112 35.361882 C 916.225937 33.139426 915.981266 31.247895 915.461363 29.702219 C 915.461363 29.702219 916.958711 30.021 919.933275 30.635494 C 922.961442 31.227592 926.470517 32.342804 930.503701 33.984066 C 934.575556 35.567196 938.21615 37.87618 941.448549 40.890886 C 944.718948 43.921195 946.71512 47.819702 947.431863 52.599072 C 955.981189 38.879739 965.58468 26.955058 976.234871 16.807164 C 986.885061 6.65927 997.959769 -1.242005 1009.451528 -6.914527 C 1020.981286 -12.571447 1032.162301 -15.39632 1042.987106 -15.407015 Z M 1042.987106 -15.407015 " stroke="#662e1c" stroke-width="9.662437" stroke-opacity="1" stroke-miterlimit="4"/><g fill="#b38272" fill-opacity="1"><g transform="translate(163.791709, 79.164602)"><g/></g></g><g fill="#b38272" fill-opacity="1"><g transform="translate(184.205539, 107.450796)"><g><path d="M -1.921875 -8.234375 C -2.117188 -8.710938 -2.253906 -9.785156 -2.328125 -11.453125 C -2.398438 -13.128906 -2.425781 -15.203125 -2.40625 -17.671875 C -2.382812 -20.148438 -2.359375 -22.847656 -2.328125 -25.765625 C -2.296875 -28.679688 -2.285156 -31.65625 -2.296875 -34.6875 C -2.304688 -37.71875 -2.363281 -40.625 -2.46875 -43.40625 C -2.582031 -46.1875 -2.769531 -48.65625 -3.03125 -50.8125 C -3.300781 -52.96875 -3.671875 -54.617188 -4.140625 -55.765625 C -4.441406 -56.503906 -4.773438 -57.222656 -5.140625 -57.921875 C -5.515625 -58.617188 -6.0625 -59.285156 -6.78125 -59.921875 C -6.320312 -60.304688 -5.742188 -60.640625 -5.046875 -60.921875 C -3.640625 -61.503906 -2.023438 -61.769531 -0.203125 -61.71875 C 1.609375 -61.675781 3.3125 -61.25 4.90625 -60.4375 C 6.507812 -59.625 7.65625 -58.382812 8.34375 -56.71875 C 8.738281 -55.75 9.050781 -54.128906 9.28125 -51.859375 C 9.519531 -49.597656 9.695312 -47 9.8125 -44.0625 C 9.9375 -41.125 10.03125 -38.113281 10.09375 -35.03125 C 10.15625 -31.945312 10.1875 -29.054688 10.1875 -26.359375 C 10.1875 -23.660156 10.179688 -21.457031 10.171875 -19.75 C 11.296875 -20.375 12.539062 -20.96875 13.90625 -21.53125 C 15.707031 -22.269531 17.5625 -22.847656 19.46875 -23.265625 C 21.382812 -23.691406 23.226562 -23.84375 25 -23.71875 C 26.769531 -23.59375 28.363281 -23.085938 29.78125 -22.203125 C 31.195312 -21.316406 32.289062 -19.929688 33.0625 -18.046875 C 33.550781 -16.859375 33.894531 -15.460938 34.09375 -13.859375 C 31.53125 -13.617188 29.097656 -13.191406 26.796875 -12.578125 C 24.503906 -11.972656 22.347656 -11.253906 20.328125 -10.421875 C 17.503906 -9.265625 14.945312 -7.972656 12.65625 -6.546875 C 10.363281 -5.117188 8.226562 -3.6875 6.25 -2.25 C 5.050781 -1.757812 3.929688 -1.84375 2.890625 -2.5 C 1.859375 -3.15625 0.929688 -4.046875 0.109375 -5.171875 C -0.710938 -6.296875 -1.390625 -7.316406 -1.921875 -8.234375 Z M -1.921875 -8.234375 "/></g></g></g><g fill="#b38272" fill-opacity="1"><g transform="translate(219.242746, 93.064182)"><g><path d="M -4 -8.390625 C -4.539062 -9.710938 -4.851562 -11.546875 -4.9375 -13.890625 C -5.03125 -16.242188 -5.015625 -18.898438 -4.890625 -21.859375 C -4.765625 -24.816406 -4.640625 -27.835938 -4.515625 -30.921875 C -4.390625 -34.003906 -4.359375 -36.925781 -4.421875 -39.6875 C -4.191406 -39.78125 -3.960938 -39.882812 -3.734375 -40 C -3.503906 -40.125 -3.28125 -40.226562 -3.0625 -40.3125 C -0.988281 -41.164062 0.835938 -41.570312 2.421875 -41.53125 C 4.003906 -41.488281 5.082031 -40.765625 5.65625 -39.359375 C 5.914062 -38.742188 6.023438 -37.601562 5.984375 -35.9375 C 5.953125 -34.269531 5.84375 -32.34375 5.65625 -30.15625 C 5.476562 -27.976562 5.289062 -25.78125 5.09375 -23.5625 C 4.894531 -21.351562 4.796875 -19.363281 4.796875 -17.59375 C 4.804688 -15.820312 4.984375 -14.515625 5.328125 -13.671875 C 5.679688 -12.796875 6.257812 -12.523438 7.0625 -12.859375 C 7.664062 -13.109375 8.335938 -13.65625 9.078125 -14.5 C 9.816406 -15.34375 10.570312 -16.316406 11.34375 -17.421875 C 12.125 -18.535156 12.820312 -19.65625 13.4375 -20.78125 C 14.050781 -21.914062 14.550781 -22.894531 14.9375 -23.71875 C 15.226562 -22.132812 15.328125 -20.296875 15.234375 -18.203125 C 15.148438 -16.117188 14.828125 -14.023438 14.265625 -11.921875 C 13.710938 -9.816406 12.867188 -7.925781 11.734375 -6.25 C 10.609375 -4.570312 9.144531 -3.363281 7.34375 -2.625 C 5.800781 -1.988281 4.265625 -1.867188 2.734375 -2.265625 C 1.203125 -2.671875 -0.148438 -3.429688 -1.328125 -4.546875 C -2.503906 -5.660156 -3.394531 -6.941406 -4 -8.390625 Z M 4.046875 -48.171875 C 2.929688 -47.398438 1.890625 -46.816406 0.921875 -46.421875 C -0.578125 -45.804688 -1.789062 -45.679688 -2.71875 -46.046875 C -3.644531 -46.410156 -4.304688 -47.078125 -4.703125 -48.046875 C -5.117188 -49.054688 -5.285156 -50.285156 -5.203125 -51.734375 C -5.128906 -53.179688 -4.875 -54.632812 -4.4375 -56.09375 C -1.976562 -57.101562 -0.09375 -57.503906 1.21875 -57.296875 C 2.539062 -57.097656 3.460938 -56.359375 3.984375 -55.078125 C 4.640625 -53.492188 4.660156 -51.191406 4.046875 -48.171875 Z M 4.046875 -48.171875 "/></g></g></g><g fill="#b38272" fill-opacity="1"><g transform="translate(237.652127, 85.505113)"><g><path d="M -4.515625 -8.171875 C -5.085938 -9.585938 -5.195312 -11.046875 -4.84375 -12.546875 C -4.488281 -14.054688 -4.015625 -15.472656 -3.421875 -16.796875 C -2.023438 -15.515625 -0.507812 -14.644531 1.125 -14.1875 C 2.757812 -13.726562 4.394531 -13.59375 6.03125 -13.78125 C 7.675781 -13.96875 9.15625 -14.332031 10.46875 -14.875 C 12.050781 -15.519531 13.296875 -16.335938 14.203125 -17.328125 C 15.117188 -18.316406 15.40625 -19.226562 15.0625 -20.0625 C 14.820312 -20.632812 14.128906 -20.863281 12.984375 -20.75 C 11.847656 -20.644531 10.46875 -20.4375 8.84375 -20.125 C 7.226562 -19.820312 5.554688 -19.613281 3.828125 -19.5 C 2.097656 -19.382812 0.550781 -19.546875 -0.8125 -19.984375 C -2.175781 -20.421875 -3.15625 -21.367188 -3.75 -22.828125 C -4.59375 -24.890625 -4.78125 -27.113281 -4.3125 -29.5 C -3.851562 -31.882812 -2.941406 -34.1875 -1.578125 -36.40625 C -0.210938 -38.632812 1.453125 -40.640625 3.421875 -42.421875 C 5.390625 -44.210938 7.457031 -45.550781 9.625 -46.4375 C 11.957031 -47.394531 13.851562 -47.441406 15.3125 -46.578125 C 16.769531 -45.722656 17.875 -44.390625 18.625 -42.578125 C 19.226562 -41.085938 19.609375 -39.4375 19.765625 -37.625 C 19.921875 -35.8125 19.894531 -34.085938 19.6875 -32.453125 C 18.375 -34.117188 17.03125 -35.097656 15.65625 -35.390625 C 14.28125 -35.679688 13.019531 -35.585938 11.875 -35.109375 C 10.914062 -34.710938 10.070312 -34.144531 9.34375 -33.40625 C 8.625 -32.675781 8.09375 -31.9375 7.75 -31.1875 C 7.414062 -30.4375 7.359375 -29.796875 7.578125 -29.265625 C 7.941406 -28.390625 8.613281 -27.90625 9.59375 -27.8125 C 10.582031 -27.726562 11.738281 -27.757812 13.0625 -27.90625 C 14.382812 -28.0625 15.726562 -28.140625 17.09375 -28.140625 C 18.457031 -28.140625 19.738281 -27.832031 20.9375 -27.21875 C 22.132812 -26.613281 23.085938 -25.445312 23.796875 -23.71875 C 24.578125 -21.832031 24.742188 -19.9375 24.296875 -18.03125 C 23.847656 -16.125 22.972656 -14.300781 21.671875 -12.5625 C 20.378906 -10.832031 18.800781 -9.257812 16.9375 -7.84375 C 15.082031 -6.425781 13.125 -5.296875 11.0625 -4.453125 C 8.9375 -3.578125 6.832031 -3.070312 4.75 -2.9375 C 2.675781 -2.8125 0.820312 -3.15625 -0.8125 -3.96875 C -2.457031 -4.789062 -3.691406 -6.191406 -4.515625 -8.171875 Z M -4.515625 -8.171875 "/></g></g></g><g fill="#b38272" fill-opacity="1"><g transform="translate(267.014766, 73.448531)"><g><path d="M 6.171875 -34 C 5.835938 -31.800781 5.675781 -29.34375 5.6875 -26.625 C 5.707031 -23.90625 5.925781 -21.191406 6.34375 -18.484375 C 6.757812 -15.785156 7.425781 -13.3125 8.34375 -11.0625 C 8.90625 -9.695312 9.578125 -8.457031 10.359375 -7.34375 C 11.148438 -6.226562 12.050781 -5.335938 13.0625 -4.671875 C 12.144531 -3.878906 11.265625 -3.3125 10.421875 -2.96875 C 8.804688 -2.300781 7.164062 -2.203125 5.5 -2.671875 C 3.832031 -3.148438 2.316406 -4.046875 0.953125 -5.359375 C -0.410156 -6.671875 -1.457031 -8.210938 -2.1875 -9.984375 C -2.988281 -11.953125 -3.515625 -14.117188 -3.765625 -16.484375 C -4.015625 -18.859375 -4.125 -21.207031 -4.09375 -23.53125 C -4.070312 -25.863281 -4.0625 -27.953125 -4.0625 -29.796875 C -5.132812 -29.921875 -6.066406 -30.347656 -6.859375 -31.078125 C -7.648438 -31.804688 -8.234375 -32.628906 -8.609375 -33.546875 C -9.078125 -34.691406 -9.191406 -35.726562 -8.953125 -36.65625 C -8.023438 -37.039062 -7.039062 -37.535156 -6 -38.140625 C -4.96875 -38.742188 -4.257812 -39.207031 -3.875 -39.53125 C -3.46875 -42.875 -3.222656 -46.140625 -3.140625 -49.328125 C -3.054688 -52.523438 -3.144531 -55.5625 -3.40625 -58.4375 C -2.289062 -58.851562 -1.003906 -59.035156 0.453125 -58.984375 C 1.910156 -58.941406 3.265625 -58.625 4.515625 -58.03125 C 5.765625 -57.4375 6.644531 -56.523438 7.15625 -55.296875 C 7.53125 -54.367188 7.65625 -53.300781 7.53125 -52.09375 C 7.40625 -50.882812 7.257812 -49.632812 7.09375 -48.34375 C 6.9375 -47.050781 6.96875 -45.828125 7.1875 -44.671875 C 7.363281 -44.742188 7.523438 -44.820312 7.671875 -44.90625 C 7.816406 -44.988281 7.976562 -45.066406 8.15625 -45.140625 C 9.726562 -45.785156 11.035156 -45.972656 12.078125 -45.703125 C 13.117188 -45.441406 13.945312 -44.925781 14.5625 -44.15625 C 15.1875 -43.382812 15.671875 -42.582031 16.015625 -41.75 C 16.253906 -41.175781 16.445312 -40.648438 16.59375 -40.171875 C 16.738281 -39.691406 16.8125 -39.320312 16.8125 -39.0625 C 16.207031 -38.914062 15.628906 -38.726562 15.078125 -38.5 C 14.523438 -38.28125 13.960938 -38.050781 13.390625 -37.8125 C 12.148438 -37.3125 10.9375 -36.75 9.75 -36.125 C 8.570312 -35.507812 7.378906 -34.800781 6.171875 -34 Z M 6.171875 -34 "/></g></g></g><path stroke-linecap="butt" transform="matrix(0.961287, -0.394714, 0.394714, 0.961287, 38.675414, 111.000703)" fill="none" stroke-linejoin="miter" d="M 129.119518 38.973318 C 129.119224 38.469316 129.393644 37.464516 129.940727 35.954013 C 130.487188 34.435127 131.219585 32.582169 132.13587 30.390234 C 133.051532 28.189916 134.057583 25.799153 135.154024 23.217946 C 136.259653 20.624257 137.360125 17.983751 138.454816 15.288046 C 139.552364 12.585386 140.554112 9.977488 141.473347 7.461679 C 142.388484 4.93606 143.120471 2.668451 143.66931 0.658851 C 144.214672 -1.352177 144.488292 -2.958712 144.490793 -4.152372 C 144.490848 -4.924426 144.456568 -5.682134 144.38733 -6.433877 C 144.320947 -7.192576 144.081759 -7.985657 143.668338 -8.809645 C 144.214484 -8.991749 144.85682 -9.081529 145.595344 -9.078988 C 147.058484 -9.079615 148.590268 -8.722909 150.18579 -8.006819 C 151.795406 -7.305259 153.1614 -6.297377 154.278244 -4.989506 C 155.395895 -3.693494 155.955171 -2.175701 155.954644 -0.43265 C 155.951754 0.573926 155.644351 2.134082 155.030387 4.242911 C 154.4158 6.343358 153.628312 8.726339 152.667301 11.383473 C 151.705669 14.032225 150.686234 16.742577 149.602042 19.511674 C 148.529089 22.273195 147.501757 24.854335 146.515141 27.257141 C 145.533431 29.657899 144.723242 31.621139 144.08743 33.139909 C 145.317338 32.994751 146.640143 32.920246 148.057894 32.921299 C 149.935685 32.920262 151.80219 33.08526 153.656788 33.407911 C 155.511386 33.730562 157.202018 34.2744 158.735017 35.033898 C 160.265345 35.780109 161.499892 36.811225 162.439463 38.115387 C 163.376985 39.414643 163.845182 41.04539 163.846103 43.012532 C 163.845283 44.251581 163.647083 45.624954 163.243123 47.133271 C 160.863065 46.407937 158.539033 45.892531 156.273077 45.59196 C 154.003643 45.289961 151.817986 45.140204 149.717532 45.139212 C 146.779393 45.139662 144.032641 45.356858 141.472371 45.79285 C 138.912102 46.228842 136.487447 46.720519 134.198406 47.26788 C 132.959357 47.267059 131.989931 46.787733 131.299939 45.8258 C 130.616901 44.866724 130.113419 43.737561 129.788064 42.441789 C 129.475375 41.134963 129.254845 39.979758 129.119518 38.973318 Z M 163.773759 38.082172 C 163.773015 36.708383 164.165902 34.959832 164.947514 32.83857 C 165.731361 30.70197 166.714752 28.346602 167.897066 25.764083 C 169.095523 23.171938 170.305587 20.531733 171.533591 17.837941 C 172.77426 15.133095 173.874985 12.541456 174.837191 10.059546 C 175.059854 10.061575 175.29661 10.049073 175.541127 10.027567 C 175.798931 10.00339 176.042642 9.993744 176.278592 9.993102 C 178.424436 9.992413 180.193966 10.304516 181.590661 10.930839 C 182.988163 11.545302 183.685799 12.587581 183.686427 14.05072 C 183.686235 14.684557 183.359725 15.737049 182.714656 17.199191 C 182.076542 18.664188 181.276696 20.335036 180.315119 22.211734 C 179.357018 24.089859 178.382775 25.97761 177.399343 27.877843 C 176.417339 29.774598 175.607752 31.518653 174.972008 33.106531 C 174.333593 34.681121 174.014611 35.90331 174.013634 36.776574 C 174.015765 37.691751 174.424124 38.152003 175.23809 38.14895 C 175.887264 38.151376 176.690156 37.908089 177.650865 37.428899 C 178.611574 36.94971 179.639643 36.355955 180.737121 35.652539 C 181.8305 34.939312 182.857189 34.190575 183.820665 33.407755 C 184.780664 32.623507 185.586187 31.938372 186.231706 31.346017 C 185.908713 32.855072 185.324576 34.525093 184.474388 36.35813 C 183.6242 38.191167 182.567424 39.94344 181.306109 41.619855 C 180.053984 43.283789 178.613258 44.654913 176.98331 45.724845 C 175.360317 46.797633 173.611663 47.335259 171.733872 47.336297 C 170.13742 47.335011 168.730061 46.883106 167.513222 45.977104 C 166.304143 45.062098 165.377996 43.893483 164.729875 42.473307 C 164.093613 41.053937 163.776067 39.590701 163.773759 38.082172 Z M 185.477154 5.602362 C 184.192988 5.879656 183.050381 6.020025 182.042377 6.020612 C 180.489886 6.021124 179.366237 5.689776 178.673478 5.031475 C 177.993384 4.36212 177.651305 3.522727 177.652768 2.519628 C 177.653978 1.467662 177.949309 0.31297 178.541617 -0.951404 C 179.132497 -2.2123 179.886188 -3.414472 180.801263 -4.554442 C 183.373617 -4.554734 185.207166 -4.220408 186.300483 -3.547986 C 187.396034 -2.890901 187.944769 -1.901635 187.943211 -0.581618 C 187.9428 1.072083 187.121257 3.13225 185.477154 5.602362 Z M 182.388928 38.082181 C 182.389107 36.607182 182.820838 35.268747 183.678595 34.060543 C 184.552495 32.842713 185.491542 31.753222 186.495734 30.792069 C 187.279237 32.446631 188.306547 33.774628 189.579713 34.780966 C 190.864738 35.78811 192.271749 36.508067 193.802795 36.945742 C 195.343651 37.379318 196.802712 37.596447 198.176501 37.595703 C 199.821819 37.596736 201.222532 37.322598 202.385593 36.776145 C 203.557037 36.22907 204.144987 35.519614 204.144536 34.649827 C 204.145165 34.044615 203.61883 33.584683 202.567582 33.274937 C 201.518568 32.949855 200.210506 32.632184 198.644824 32.318448 C 197.091808 31.993659 195.522949 31.568903 193.938248 31.04418 C 192.361929 30.518835 191.048368 29.808804 189.997564 28.914088 C 188.950238 28.0208 188.422968 26.820916 188.424137 25.313815 C 188.424254 23.156112 189.059335 21.104716 190.332858 19.161056 C 191.61824 17.218201 193.27781 15.502135 195.31014 14.016336 C 197.355757 12.527866 199.57793 11.351641 201.980943 10.47723 C 204.386005 9.607724 206.706847 9.170947 208.9539 9.17118 C 211.379655 9.171646 213.081846 9.825883 214.065379 11.131841 C 215.047484 12.441277 215.539769 14.033152 215.540806 15.910943 C 215.541318 17.463433 215.276701 19.077729 214.751862 20.751781 C 214.226401 22.41745 213.573824 23.937463 212.794132 25.311819 C 212.243819 23.346651 211.406012 21.982685 210.279281 21.223399 C 209.160933 20.463491 208.008407 20.083714 206.826606 20.08202 C 205.818602 20.082607 204.860476 20.278407 203.943844 20.670042 C 203.027212 21.061678 202.278112 21.53023 201.696544 22.0757 C 201.125407 22.625453 200.843992 23.172262 200.842489 23.720225 C 200.841143 24.633974 201.265666 25.312168 202.115436 25.746427 C 202.963778 26.184163 204.005906 26.575498 205.233437 26.921056 C 206.472828 27.267419 207.696144 27.692516 208.903385 28.196348 C 210.120436 28.696081 211.155144 29.441964 212.003411 30.424186 C 212.855156 31.407836 213.278127 32.792453 213.279281 34.580894 C 213.276725 36.546608 212.725379 38.295111 211.616861 39.827024 C 210.525107 41.357693 209.082885 42.663186 207.295721 43.749835 C 205.519174 44.820525 203.54037 45.641561 201.362787 46.21437 C 199.195014 46.78308 197.031252 47.064923 194.877026 47.066234 C 192.673934 47.067797 190.622443 46.749635 188.722552 46.111746 C 186.826944 45.463425 185.292496 44.479836 184.131068 43.161785 C 182.970447 41.831875 182.389733 40.138674 182.388928 38.082181 Z M 231.874551 18.993039 C 230.776553 20.825912 229.73937 22.956015 228.756047 25.380491 C 227.772724 27.804968 226.966743 30.302263 226.343009 32.870327 C 225.727036 35.429386 225.419277 37.871188 225.419734 40.195733 C 225.422158 41.614911 225.566209 42.966272 225.855363 44.251243 C 226.156377 45.537021 226.63409 46.659667 227.280121 47.619802 C 226.173113 47.990157 225.187168 48.174535 224.313904 48.173557 C 222.628101 48.172156 221.128467 47.657981 219.823384 46.63041 C 218.514202 45.593029 217.49341 44.239263 216.754675 42.574639 C 216.028605 40.89896 215.66763 39.145634 215.664796 37.311804 C 215.667468 35.256739 215.986991 33.132662 216.621935 30.943049 C 217.269546 28.742383 218.030295 26.612553 218.902754 24.557038 C 219.771114 22.491713 220.548901 20.637074 221.231209 18.995172 C 220.312262 18.491873 219.638248 17.768125 219.201408 16.832932 C 218.765996 15.894262 218.547098 14.942905 218.548192 13.98029 C 218.550693 12.78663 218.826793 11.827219 219.386302 11.097959 C 220.348917 11.099053 221.396715 11.021343 222.538079 10.86421 C 223.678822 10.698694 224.476692 10.546808 224.933741 10.413455 C 226.542109 7.57514 227.962586 4.749074 229.193125 1.930352 C 230.430618 -0.885514 231.467002 -3.617352 232.293895 -6.264539 C 233.433414 -6.219252 234.639644 -5.910886 235.914012 -5.342919 C 237.195335 -4.772096 238.286302 -3.994986 239.179958 -3.014445 C 240.075664 -2.028998 240.52047 -0.895483 240.52133 0.388955 C 240.520236 1.35157 240.246623 2.34451 239.699062 3.371253 C 239.153551 4.402901 238.566564 5.466282 237.940775 6.574684 C 237.325601 7.667126 236.907943 8.763463 236.682274 9.857361 C 236.860975 9.857593 237.030673 9.850065 237.187267 9.824966 C 237.354293 9.80415 237.525418 9.793144 237.704119 9.793376 C 239.359248 9.79031 240.594724 10.106621 241.411354 10.73045 C 242.235744 11.345275 242.783031 12.11045 243.053214 13.025974 C 243.331158 13.932495 243.471069 14.81891 243.470091 15.692175 C 243.470269 16.285527 243.44933 16.821447 243.402369 17.301982 C 243.360313 17.780468 243.294217 18.139367 243.202031 18.373773 C 242.612272 18.286027 242.025621 18.240194 241.444128 18.241177 C 240.872445 18.238062 240.290952 18.239045 239.701077 18.24065 C 238.413161 18.240083 237.131025 18.294715 235.844858 18.408645 C 234.571978 18.519904 233.248067 18.715861 231.874551 18.993039 Z M 231.874551 18.993039 " stroke="#662e1c" stroke-width="2.574383" stroke-opacity="1" stroke-miterlimit="4"/><g fill="#b38272" fill-opacity="1"><g transform="translate(284.765217, 66.160024)"><g/></g></g></svg>