<svg xmlns="http://www.w3.org/2000/svg" xmlns:xlink="http://www.w3.org/1999/xlink" width="500" zoomAndPan="magnify" viewBox="0 0 375 374.999991" height="500" preserveAspectRatio="xMidYMid meet" version="1.0"><defs><g/><clipPath id="bdd4c34b79"><path d="M 118 3.324219 L 336 3.324219 L 336 221 L 118 221 Z M 118 3.324219 " clip-rule="nonzero"/></clipPath><clipPath id="4df106d8d0"><path d="M 110.023438 132.152344 L 260 132.152344 L 260 277.652344 L 110.023438 277.652344 Z M 110.023438 132.152344 " clip-rule="nonzero"/></clipPath></defs><path fill="#ffffff" d="M 210.074219 317.265625 C 208.679688 318 206.921875 318.21875 205.527344 317.410156 C 203.839844 316.457031 203.109375 314.480469 202.667969 312.574219 C 201.640625 307.808594 203.839844 291.96875 211.90625 297.6875 C 217.992188 301.796875 216.085938 313.964844 210.074219 317.265625 Z M 251.496094 248.347656 C 246.585938 247.175781 243.507812 253.917969 242.480469 257.511719 C 241.894531 259.710938 241.453125 262.128906 242.40625 264.183594 C 243.800781 267.191406 247.832031 268.4375 250.910156 267.191406 C 253.992188 265.941406 256.042969 262.863281 256.628906 259.566406 C 257.289062 256.191406 255.601562 249.375 251.496094 248.347656 Z M 251.351562 198.050781 C 242.699219 192.917969 241.378906 213.375 246.070312 216.382812 C 253.550781 221.367188 259.5625 203.039062 251.351562 198.050781 Z M 161.609375 314.992188 C 161.757812 316.457031 162.050781 317.925781 162.855469 319.171875 C 162.929688 319.246094 162.929688 319.316406 163.003906 319.390625 C 164.46875 321.515625 167.328125 322.398438 169.96875 322.175781 C 195.117188 319.976562 158.164062 281.265625 161.609375 314.992188 Z M 325.695312 169.898438 C 325.765625 169.824219 325.765625 169.75 325.839844 169.679688 C 326.648438 168.503906 327.015625 167.039062 327.234375 165.574219 C 332.21875 132.066406 293.507812 168.945312 318.582031 172.390625 C 321.222656 172.683594 324.082031 171.949219 325.695312 169.898438 Z M 280.75 146.804688 C 276.058594 151.496094 274.738281 159.265625 278.550781 164.765625 C 279.578125 166.230469 280.972656 167.550781 282.65625 168.136719 C 284.34375 168.796875 286.324219 168.726562 287.863281 167.699219 C 289.695312 166.453125 290.503906 164.105469 290.867188 161.90625 C 291.308594 159.558594 291.382812 157.140625 291.308594 154.722656 C 290.941406 148.929688 286.835938 140.792969 280.75 146.804688 Z M 281.777344 296.222656 C 275.546875 300.109375 276.863281 312.351562 282.730469 315.871094 C 284.050781 316.679688 285.808594 316.972656 287.277344 316.238281 C 289.035156 315.359375 289.84375 313.378906 290.355469 311.546875 C 291.527344 306.855469 290.136719 290.945312 281.777344 296.222656 Z M 247.171875 296.148438 C 242.992188 296.957031 241.085938 303.703125 241.527344 307.148438 C 241.964844 310.445312 243.871094 313.671875 246.878906 315.066406 C 249.882812 316.457031 253.988281 315.359375 255.53125 312.425781 C 256.554688 310.375 256.261719 307.953125 255.75 305.753906 C 254.871094 302.160156 252.082031 295.269531 247.171875 296.148438 Z M 320.046875 200.179688 C 311.25 200.910156 312.421875 213.816406 316.457031 218.945312 C 317.554688 220.265625 319.09375 221.292969 320.855469 221.367188 C 322.90625 221.367188 324.8125 220.046875 325.839844 218.289062 C 328.773438 213.007812 328.554688 199.445312 320.046875 200.179688 Z M 285.296875 196.511719 C 279.429688 196.804688 278.476562 208.167969 279.285156 212.273438 C 279.796875 214.988281 281.628906 217.847656 284.34375 217.921875 C 285.808594 217.921875 287.203125 217.113281 288.15625 215.941406 C 289.035156 214.769531 289.550781 213.375 289.914062 211.910156 C 290.796875 208.167969 291.820312 196.21875 285.296875 196.511719 Z M 323.496094 272.101562 C 326.207031 271.003906 327.820312 268.214844 328.332031 265.355469 C 328.847656 262.496094 328.332031 259.566406 327.820312 256.777344 C 327.015625 252.746094 326.5 246.441406 321.222656 248.714844 C 317.554688 250.328125 314.328125 255.972656 313.375 259.566406 C 312.496094 262.789062 312.789062 266.457031 314.695312 269.167969 C 316.601562 271.957031 320.414062 273.421875 323.496094 272.101562 Z M 285.738281 250.691406 C 279.503906 247.6875 279.066406 259.492188 279.503906 263.082031 C 279.652344 264.625 280.019531 266.164062 280.75 267.410156 C 281.558594 268.730469 282.878906 269.753906 284.34375 269.902344 C 286.394531 270.121094 288.375 268.582031 289.253906 266.675781 C 291.160156 262.644531 290.429688 252.964844 285.738281 250.691406 Z M 251.496094 164.839844 C 256.335938 161.980469 255.96875 141.523438 247.097656 146.21875 C 238.59375 150.761719 243.726562 169.386719 251.496094 164.839844 Z M 322.613281 322.765625 C 325.179688 323.128906 328.113281 322.398438 329.652344 320.269531 C 329.726562 320.199219 329.726562 320.125 329.800781 320.050781 C 330.605469 318.878906 330.972656 317.410156 331.191406 315.945312 C 336.25 282.511719 297.539062 319.390625 322.613281 322.765625 Z M 157.503906 79.863281 C 165.644531 85.511719 167.769531 69.675781 166.742188 64.980469 C 166.375 63.074219 165.570312 61.023438 163.882812 60.144531 C 162.492188 59.410156 160.730469 59.554688 159.339844 60.289062 C 153.398438 63.441406 151.492188 75.613281 157.503906 79.863281 Z M 117.914062 129.0625 C 122.828125 130.234375 125.90625 123.488281 126.933594 119.894531 C 127.519531 117.695312 127.957031 115.277344 127.003906 113.222656 C 125.613281 110.21875 121.578125 108.972656 118.5 110.21875 C 115.421875 111.464844 113.367188 114.542969 112.78125 117.84375 C 112.195312 121.289062 113.808594 128.109375 117.914062 129.0625 Z M 118.132812 179.355469 C 126.785156 184.488281 128.105469 164.03125 123.414062 161.027344 C 115.859375 156.113281 109.921875 174.445312 118.132812 179.355469 Z M 207.875 62.414062 C 207.726562 60.949219 207.433594 59.484375 206.628906 58.238281 C 206.554688 58.164062 206.554688 58.089844 206.480469 58.015625 C 205.015625 55.890625 202.15625 55.011719 199.515625 55.230469 C 174.292969 57.503906 211.246094 96.140625 207.875 62.414062 Z M 43.789062 207.582031 C 43.71875 207.65625 43.71875 207.730469 43.644531 207.804688 C 42.835938 208.976562 42.472656 210.441406 42.25 211.910156 C 37.265625 245.414062 75.976562 208.535156 50.902344 205.089844 C 48.261719 204.722656 45.332031 205.53125 43.789062 207.582031 Z M 88.660156 230.679688 C 93.351562 225.984375 94.671875 218.214844 90.859375 212.714844 C 89.832031 211.25 88.441406 209.929688 86.753906 209.34375 C 85.066406 208.683594 83.089844 208.757812 81.550781 209.78125 C 79.714844 211.027344 78.910156 213.375 78.542969 215.574219 C 78.101562 217.921875 78.03125 220.339844 78.101562 222.757812 C 78.46875 228.550781 82.648438 236.691406 88.660156 230.679688 Z M 87.707031 81.257812 C 93.941406 77.371094 92.621094 65.128906 86.753906 61.609375 C 85.433594 60.800781 83.675781 60.507812 82.207031 61.242188 C 80.449219 62.121094 79.644531 64.101562 79.128906 65.933594 C 77.882812 70.628906 79.277344 86.464844 87.707031 81.257812 Z M 122.3125 81.257812 C 126.492188 80.453125 128.398438 73.707031 127.957031 70.261719 C 127.519531 66.960938 125.613281 63.734375 122.605469 62.34375 C 119.601562 60.949219 115.496094 62.050781 113.957031 64.980469 C 112.929688 67.035156 113.222656 69.453125 113.734375 71.652344 C 114.613281 75.320312 117.328125 82.210938 122.3125 81.257812 Z M 49.4375 177.230469 C 58.234375 176.496094 57.0625 163.59375 53.027344 158.460938 C 51.929688 157.140625 50.390625 156.113281 48.628906 156.042969 C 46.578125 156.042969 44.671875 157.359375 43.644531 159.121094 C 40.636719 164.398438 40.859375 177.964844 49.4375 177.230469 Z M 84.1875 180.894531 C 90.054688 180.601562 91.007812 169.238281 90.199219 165.132812 C 89.6875 162.417969 87.855469 159.558594 85.140625 159.488281 C 83.675781 159.488281 82.28125 160.292969 81.328125 161.464844 C 80.449219 162.640625 79.9375 164.03125 79.570312 165.5 C 78.617188 169.3125 77.664062 181.261719 84.1875 180.894531 Z M 45.992188 105.304688 C 43.277344 106.40625 41.664062 109.191406 41.152344 112.050781 C 40.636719 114.910156 41.152344 117.84375 41.664062 120.628906 C 42.472656 124.660156 42.984375 130.96875 48.261719 128.695312 C 51.929688 127.082031 55.15625 121.4375 56.109375 117.84375 C 56.988281 114.617188 56.695312 110.953125 54.789062 108.238281 C 52.882812 105.527344 49.070312 104.058594 45.992188 105.304688 Z M 83.75 126.789062 C 89.980469 129.792969 90.421875 117.988281 89.980469 114.398438 C 89.832031 112.859375 89.46875 111.316406 88.734375 110.070312 C 87.925781 108.75 86.609375 107.726562 85.140625 107.578125 C 83.089844 107.359375 81.109375 108.898438 80.230469 110.804688 C 78.324219 114.835938 79.054688 124.515625 83.75 126.789062 Z M 117.988281 212.640625 C 113.148438 215.5 113.515625 235.957031 122.386719 231.265625 C 130.890625 226.71875 125.757812 208.097656 117.988281 212.640625 Z M 46.871094 54.71875 C 44.304688 54.351562 41.371094 55.085938 39.832031 57.210938 C 39.757812 57.285156 39.757812 57.355469 39.683594 57.429688 C 38.878906 58.601562 38.511719 60.070312 38.292969 61.535156 C 33.160156 94.96875 71.945312 58.089844 46.871094 54.71875 Z M 46.871094 54.71875 " fill-opacity="1" fill-rule="nonzero"/><path fill="#b6b9ae" d="M 248.859375 220.632812 C 249.078125 230.972656 248.566406 241.457031 247.832031 251.792969 C 246.21875 275.035156 243.578125 298.570312 234.269531 319.976562 C 224.957031 341.3125 208.09375 360.449219 185.878906 367.339844 C 171.949219 371.667969 156.992188 371.007812 142.546875 368.953125 C 128.472656 366.972656 113.808594 363.308594 103.398438 353.628906 C 87.707031 339.039062 85.875 315.359375 79.347656 294.902344 C 72.382812 272.910156 58.820312 253.039062 40.929688 238.449219 C 33.601562 232.4375 25.316406 227.085938 20.328125 219.019531 C 13.949219 208.683594 14.097656 195.558594 16.589844 183.683594 C 20.476562 165.207031 30.667969 146.949219 47.53125 138.445312 C 66.007812 129.0625 89.027344 132.652344 107.503906 123.269531 C 112.707031 120.628906 117.621094 117.695312 122.460938 114.835938 C 134.265625 107.726562 248.566406 207.144531 248.859375 220.632812 Z M 248.859375 220.632812 " fill-opacity="1" fill-rule="nonzero"/><g clip-path="url(#bdd4c34b79)"><path fill="#f1bfa8" d="M 152.667969 23.851562 C 176.714844 15.054688 201.421875 4.496094 227.375 3.910156 C 254.355469 3.324219 281.265625 11.386719 304.210938 25.609375 C 313.742188 31.550781 322.90625 38.808594 328.480469 48.632812 C 335.003906 60.070312 336.03125 73.851562 334.566406 86.902344 C 332.953125 101.347656 328.625 115.277344 324.15625 129.0625 C 317.921875 148.195312 311.398438 167.183594 304.578125 186.101562 C 300.621094 197.023438 295.925781 208.683594 286.03125 214.769531 C 279.136719 219.019531 270.707031 219.753906 262.566406 220.195312 C 242.847656 221.292969 222.023438 220.925781 205.015625 211.027344 C 176.496094 194.460938 167.402344 157.289062 143.207031 134.925781 C 134.558594 126.933594 123.558594 120.261719 119.894531 109.117188 C 117.546875 102.078125 118.648438 94.382812 119.671875 87.050781 C 123.046875 63.882812 127.664062 32.941406 152.667969 23.851562 Z M 152.667969 23.851562 " fill-opacity="1" fill-rule="nonzero"/></g><path fill="#859588" d="M 205.015625 211.027344 C 176.496094 194.460938 167.402344 157.289062 143.207031 134.925781 C 136.097656 128.402344 127.519531 122.753906 122.53125 114.765625 C 134.335938 107.726562 145.703125 100.832031 160.144531 97.972656 C 183.53125 93.28125 200.101562 108.457031 213.007812 125.90625 C 225.542969 142.84375 237.128906 160.878906 243.210938 181.042969 C 247.097656 193.871094 248.566406 207.214844 248.859375 220.707031 C 233.535156 220.632812 218.136719 218.652344 205.015625 211.027344 Z M 205.015625 211.027344 " fill-opacity="1" fill-rule="nonzero"/><path fill="#cb836d" d="M 291.308594 319.023438 C 290.28125 282.953125 289.402344 238.667969 288.449219 195.851562 C 287.570312 153.035156 286.617188 108.75 285.589844 72.679688 L 285.589844 71.726562 L 284.636719 71.582031 C 277.597656 70.628906 270.191406 69.894531 262.128906 69.378906 C 261.761719 63.367188 261.101562 57.941406 260.222656 53.472656 C 259.050781 47.3125 255.894531 46.871094 254.578125 47.019531 C 251.570312 47.238281 248.566406 50.613281 248.417969 53.984375 C 248.199219 58.382812 248.417969 63.589844 248.785156 68.867188 C 237.128906 68.574219 225.324219 68.792969 214.253906 69.015625 C 213.738281 64.6875 213.152344 60.730469 212.417969 57.503906 C 211.832031 54.863281 210.21875 53.398438 208.167969 53.542969 C 205.675781 53.691406 203.546875 56.183594 203.183594 59.191406 C 202.886719 62.121094 202.667969 65.640625 202.59375 69.308594 C 192.402344 69.527344 181.480469 69.746094 167.550781 69.894531 C 166.15625 60.65625 164.105469 57.871094 162.199219 56.625 C 160.730469 55.742188 158.972656 55.742188 156.992188 56.695312 C 155.085938 57.648438 154.9375 60.289062 154.792969 63.367188 C 154.792969 63.734375 154.71875 64.175781 154.71875 64.542969 C 154.574219 66.226562 154.574219 68.0625 154.574219 70.039062 L 147.3125 70.113281 C 137.929688 70.1875 128.324219 70.332031 118.792969 70.480469 C 118.648438 67.914062 118.574219 65.421875 118.425781 63.148438 C 118.132812 58.96875 117.179688 56.257812 115.496094 54.863281 C 114.46875 53.984375 113.148438 53.691406 111.535156 53.910156 C 107.722656 54.425781 106.109375 57.648438 105.890625 64.910156 C 105.816406 66.742188 105.816406 68.648438 105.816406 70.628906 C 99.730469 70.699219 94.085938 70.847656 88.585938 70.992188 L 87.488281 70.992188 L 87.488281 72.09375 C 87.488281 107.210938 86.679688 152.449219 85.875 196.21875 C 85.066406 239.988281 84.335938 285.296875 84.261719 320.417969 L 84.261719 321.515625 L 85.363281 321.515625 C 118.867188 321.222656 153.839844 321.003906 187.710938 320.785156 C 221.585938 320.5625 256.628906 320.34375 290.0625 320.050781 L 291.160156 320.050781 Z M 262.640625 81.476562 C 263.816406 82.578125 264.914062 84.410156 265.28125 87.195312 C 265.574219 89.761719 264.621094 92.328125 262.863281 93.796875 C 262.789062 93.867188 262.714844 93.941406 262.566406 94.015625 C 262.640625 89.691406 262.714844 85.511719 262.640625 81.476562 Z M 250.691406 54.132812 C 250.765625 51.929688 252.964844 49.367188 254.796875 49.21875 C 256.847656 49.070312 257.730469 52.078125 258.097656 53.910156 C 260.003906 64.027344 260.808594 78.691406 260.296875 95.1875 C 259.195312 95.554688 258.167969 95.773438 257.289062 95.921875 C 256.261719 96.066406 255.089844 96.140625 253.917969 96.066406 C 253.769531 94.675781 253.550781 92.84375 253.257812 90.714844 C 252.15625 81.113281 250.25 65.054688 250.691406 54.132812 Z M 251.132812 91.007812 C 251.351562 92.769531 251.570312 94.382812 251.71875 95.703125 C 250.835938 95.410156 250.105469 95.042969 249.445312 94.382812 C 247.613281 92.550781 247.390625 89.542969 247.90625 87.34375 C 248.273438 85.511719 249.078125 83.972656 250.179688 82.652344 C 250.542969 85.730469 250.835938 88.589844 251.132812 91.007812 Z M 215.5 87.195312 C 216.378906 88.664062 216.964844 90.277344 217.257812 91.523438 C 217.699219 93.503906 217.257812 95.847656 216.085938 97.679688 C 215.792969 98.121094 215.570312 98.488281 215.207031 98.78125 C 215.5 95.335938 215.570312 91.375 215.5 87.195312 Z M 205.453125 59.410156 C 205.675781 57.285156 207.140625 55.742188 208.386719 55.671875 C 209.632812 55.597656 210.148438 57.0625 210.367188 57.941406 C 212.859375 68.648438 214.03125 88.371094 213.007812 100.539062 C 212.640625 100.6875 212.199219 100.832031 211.832031 100.90625 C 211.027344 101.054688 210.148438 101.125 209.121094 101.054688 C 208.242188 100.980469 206.847656 100.761719 205.527344 100.101562 C 205.234375 96.140625 204.0625 72.535156 205.453125 59.410156 Z M 203.109375 98.195312 C 201.714844 96.289062 201.421875 93.429688 202.15625 89.617188 C 202.300781 88.882812 202.523438 88.148438 202.742188 87.5625 C 202.816406 92.035156 203.035156 95.847656 203.109375 98.195312 Z M 169.601562 100.027344 C 169.527344 93.941406 169.308594 88.664062 169.089844 84.191406 C 171.507812 86.464844 173.046875 89.324219 173.339844 92.109375 C 173.5625 94.75 172.683594 97.09375 170.703125 99.074219 C 170.335938 99.441406 169.96875 99.734375 169.601562 100.027344 Z M 156.917969 64.6875 C 156.917969 64.25 156.992188 63.882812 156.992188 63.441406 C 157.140625 61.535156 157.285156 58.96875 158.019531 58.601562 C 159.703125 57.796875 160.585938 58.089844 161.097656 58.382812 C 164.984375 60.730469 167.035156 74.660156 167.402344 100.980469 C 165.128906 101.714844 162.417969 101.640625 160.144531 100.539062 C 159.484375 97.09375 156.039062 76.347656 156.917969 64.6875 Z M 157.578125 98.925781 C 155.304688 96.800781 153.839844 93.648438 153.621094 90.421875 C 153.472656 88.515625 153.765625 86.609375 154.5 85.070312 C 154.792969 84.410156 155.085938 83.824219 155.453125 83.3125 C 156.1875 89.691406 157.066406 95.628906 157.578125 98.925781 Z M 119.527344 101.492188 C 119.527344 98.707031 119.453125 93.503906 119.308594 87.417969 C 121.800781 91.375 122.898438 96.949219 120.625 100.246094 C 120.261719 100.6875 119.894531 101.128906 119.527344 101.492188 Z M 108.089844 65.054688 C 108.308594 56.625 110.582031 56.332031 111.828125 56.109375 C 112.78125 55.964844 113.515625 56.109375 114.027344 56.550781 C 114.835938 57.210938 115.859375 58.894531 116.15625 63.296875 C 117.035156 77.003906 117.253906 98.78125 117.328125 102.960938 C 115.714844 103.691406 113.882812 103.914062 112.195312 103.398438 C 111.535156 103.179688 110.875 102.886719 110.214844 102.519531 C 109.847656 99.074219 107.722656 79.5 108.089844 65.054688 Z M 106.476562 85.144531 C 106.917969 91.597656 107.503906 97.316406 107.796875 100.539062 C 105.597656 98.121094 104.203125 94.675781 104.203125 91.300781 C 104.203125 88.808594 105.011719 86.683594 106.476562 85.144531 Z M 88.222656 196.292969 C 88.953125 152.960938 89.761719 108.164062 89.832031 73.191406 C 94.964844 73.046875 100.246094 72.972656 105.964844 72.828125 C 106.035156 75.980469 106.183594 79.207031 106.332031 82.359375 C 103.617188 84.335938 102.078125 87.488281 102.078125 91.230469 C 102.078125 96.289062 104.71875 101.421875 108.675781 104.058594 C 109.703125 104.71875 110.65625 105.160156 111.609375 105.453125 C 112.414062 105.671875 113.296875 105.820312 114.175781 105.820312 C 117.328125 105.820312 120.554688 104.207031 122.460938 101.421875 C 125.832031 96.507812 123.558594 88.222656 119.234375 83.675781 C 119.160156 80.011719 119.015625 76.273438 118.867188 72.605469 C 128.398438 72.460938 138.003906 72.386719 147.3125 72.238281 L 154.644531 72.167969 C 154.71875 74.804688 154.9375 77.519531 155.160156 80.230469 C 154.058594 81.183594 153.179688 82.503906 152.445312 84.042969 C 151.640625 85.949219 151.273438 88.148438 151.421875 90.421875 C 151.714844 94.894531 153.914062 99 157.285156 101.421875 C 157.726562 101.714844 158.09375 102.007812 158.53125 102.226562 C 160.292969 103.179688 162.269531 103.621094 164.25 103.621094 C 167.257812 103.621094 170.1875 102.519531 172.167969 100.539062 C 174.589844 98.046875 175.6875 95.042969 175.394531 91.816406 C 175.027344 87.855469 172.535156 83.824219 168.796875 81.039062 C 168.574219 77.519531 168.28125 74.511719 167.917969 71.945312 C 181.699219 71.800781 192.476562 71.582031 202.59375 71.359375 C 202.523438 75.320312 202.523438 79.425781 202.59375 83.238281 C 201.347656 84.628906 200.542969 86.464844 199.957031 89.101562 C 199.003906 93.722656 199.515625 97.316406 201.570312 99.734375 C 203.183594 101.640625 205.746094 102.886719 208.828125 103.105469 C 209.265625 103.105469 209.632812 103.179688 210 103.179688 C 210.804688 103.179688 211.539062 103.105469 212.199219 102.960938 C 214.546875 102.445312 216.597656 100.980469 217.992188 98.78125 C 219.53125 96.363281 220.042969 93.503906 219.457031 90.9375 C 218.796875 88.078125 217.332031 85.289062 215.425781 83.457031 C 215.277344 79.277344 214.984375 75.097656 214.617188 71.066406 C 225.761719 70.847656 237.492188 70.628906 249.152344 70.921875 C 249.371094 73.925781 249.664062 76.933594 249.957031 79.792969 C 247.832031 81.550781 246.367188 83.898438 245.777344 86.757812 C 245.046875 90.347656 245.851562 93.796875 247.976562 95.847656 C 249.589844 97.460938 251.9375 98.195312 254.796875 98.195312 C 255.675781 98.195312 256.703125 98.121094 257.730469 97.972656 C 259.5625 97.679688 262.273438 97.167969 264.328125 95.410156 C 266.675781 93.429688 267.921875 90.128906 267.554688 86.832031 C 267.113281 83.089844 265.355469 80.230469 262.714844 78.546875 C 262.640625 76.125 262.566406 73.78125 262.421875 71.507812 C 269.972656 71.945312 276.9375 72.679688 283.683594 73.558594 C 284.710938 109.484375 285.589844 153.328125 286.46875 195.777344 C 287.203125 230.824219 287.9375 266.75 288.742188 298.496094 C 265.28125 297.46875 102.222656 298.054688 86.828125 298.054688 C 86.902344 267.261719 87.5625 231.335938 88.222656 196.292969 Z M 187.859375 318.65625 C 154.351562 318.878906 119.746094 319.097656 86.609375 319.390625 C 86.609375 315.871094 86.609375 312.28125 86.609375 308.613281 C 95.480469 308.46875 157.140625 307.808594 175.175781 308.46875 L 175.246094 306.265625 C 157.210938 305.535156 95.625 306.265625 86.609375 306.414062 C 86.609375 304.433594 86.609375 302.453125 86.679688 300.476562 C 101.929688 300.402344 265.941406 299.890625 288.667969 300.914062 C 288.816406 306.78125 288.960938 312.5 289.109375 318.070312 C 255.96875 318.21875 221.363281 318.4375 187.859375 318.65625 Z M 252.378906 312.9375 L 252.230469 315.140625 C 241.085938 314.550781 163.664062 314.480469 126.417969 314.480469 C 111.460938 314.480469 104.789062 314.480469 104.425781 314.480469 L 104.570312 312.28125 C 105.082031 312.28125 114.027344 312.28125 126.417969 312.28125 C 163.664062 312.28125 241.234375 312.28125 252.378906 312.9375 Z M 252.378906 312.9375 " fill-opacity="1" fill-rule="nonzero"/><g clip-path="url(#4df106d8d0)"><path fill="#662e1c" d="M 256.660156 256.761719 C 256.65625 256.742188 256.65625 256.71875 256.652344 256.699219 L 252.242188 241.308594 L 246.246094 220.339844 L 232.464844 171.898438 C 232.457031 171.878906 232.445312 171.859375 232.4375 171.835938 L 229.152344 160.289062 C 229.078125 160.039062 228.882812 159.839844 228.628906 159.765625 C 228.378906 159.699219 222.382812 158.074219 216.460938 159.765625 C 210.53125 161.457031 206.355469 165.949219 206.183594 166.140625 C 206.152344 166.175781 206.128906 166.214844 206.101562 166.257812 L 206.109375 161.445312 C 206.109375 161.140625 205.925781 160.867188 205.648438 160.75 C 205.332031 160.613281 197.789062 157.457031 189.054688 157.457031 C 180.320312 157.457031 172.878906 160.585938 172.5625 160.71875 C 172.320312 160.820312 172.164062 161.039062 172.121094 161.289062 L 172.121094 147.375 C 172.121094 147.109375 171.984375 146.867188 171.757812 146.730469 C 171.574219 146.613281 167.113281 143.953125 159.929688 143.953125 C 152.746094 143.953125 148.285156 146.613281 148.097656 146.730469 C 147.996094 146.789062 147.917969 146.875 147.859375 146.972656 L 147.859375 135.878906 C 147.859375 135.589844 147.691406 135.320312 147.425781 135.199219 C 147.164062 135.078125 140.960938 132.167969 135.664062 132.167969 C 130.367188 132.167969 124.164062 135.078125 123.902344 135.199219 C 123.640625 135.324219 123.472656 135.589844 123.472656 135.878906 L 123.472656 136.601562 C 123.394531 136.480469 123.277344 136.382812 123.140625 136.320312 C 123 136.261719 119.667969 134.808594 116.804688 134.808594 C 113.945312 134.808594 110.613281 136.261719 110.472656 136.324219 C 110.199219 136.445312 110.023438 136.714844 110.023438 137.015625 L 110.023438 273.949219 C 110.023438 274.222656 110.171875 274.472656 110.410156 274.609375 C 110.550781 274.6875 113.910156 276.527344 116.804688 276.527344 C 119.703125 276.527344 123.058594 274.6875 123.199219 274.609375 C 123.441406 274.476562 123.589844 274.222656 123.589844 273.949219 L 123.589844 273.226562 C 123.664062 273.34375 123.769531 273.4375 123.902344 273.5 C 124.164062 273.621094 130.367188 276.527344 135.664062 276.527344 C 140.960938 276.527344 147.164062 273.621094 147.425781 273.5 C 147.5625 273.433594 147.671875 273.328125 147.75 273.203125 C 147.773438 273.425781 147.902344 273.632812 148.097656 273.753906 C 148.285156 273.867188 152.75 276.527344 159.929688 276.527344 C 167.113281 276.527344 171.574219 273.867188 171.757812 273.753906 C 171.941406 273.640625 172.0625 273.457031 172.101562 273.25 L 172.101562 273.804688 C 172.101562 274.105469 172.285156 274.378906 172.5625 274.496094 C 172.878906 274.628906 180.320312 277.757812 189.054688 277.757812 C 197.789062 277.757812 205.332031 274.601562 205.648438 274.46875 C 205.925781 274.351562 206.109375 274.078125 206.109375 273.773438 L 206.09375 261.78125 C 206.097656 261.753906 206.109375 261.730469 206.109375 261.703125 L 206.09375 254.867188 C 206.101562 254.824219 206.109375 254.777344 206.109375 254.734375 L 206.082031 245.710938 L 206.082031 245.6875 L 206.0625 227.136719 L 206.109375 180.503906 C 206.109375 180.488281 206.105469 180.472656 206.105469 180.457031 L 206.109375 173.519531 C 206.109375 173.492188 206.101562 173.464844 206.097656 173.4375 L 206.105469 167.164062 L 208.183594 174.472656 C 208.167969 174.578125 208.175781 174.683594 208.203125 174.785156 L 211.503906 186.316406 C 211.507812 186.34375 211.507812 186.367188 211.515625 186.394531 L 223.238281 227.390625 L 227.398438 242.015625 L 231.207031 255.445312 C 231.210938 255.46875 231.226562 255.488281 231.238281 255.515625 L 234.519531 267.054688 C 234.542969 267.144531 234.597656 267.222656 234.65625 267.296875 L 236.839844 274.933594 C 236.910156 275.1875 237.109375 275.382812 237.359375 275.453125 C 237.527344 275.5 240.152344 276.21875 243.621094 276.21875 C 245.414062 276.21875 247.4375 276.027344 249.453125 275.449219 C 255.382812 273.757812 259.613281 269.222656 259.792969 269.03125 C 259.972656 268.835938 260.035156 268.566406 259.960938 268.308594 Z M 204.597656 273.261719 C 202.839844 273.9375 196.277344 276.25 189.054688 276.25 C 181.832031 276.25 175.355469 273.960938 173.609375 273.292969 L 173.601562 265.585938 C 173.601562 265.46875 173.566406 265.359375 173.511719 265.257812 L 173.511719 262.800781 C 175.820312 263.65625 182.015625 265.6875 189.054688 265.6875 C 196 265.6875 202.183594 263.695312 204.589844 262.8125 Z M 135.664062 133.679688 C 139.855469 133.679688 144.867188 135.722656 146.347656 136.367188 L 146.347656 148.746094 C 144.304688 147.890625 139.71875 146.1875 135.664062 146.1875 C 131.609375 146.1875 127.023438 147.894531 124.980469 148.746094 L 124.980469 136.367188 C 126.457031 135.722656 131.464844 133.679688 135.664062 133.679688 Z M 170.613281 262.738281 C 169.445312 263.339844 165.542969 265.097656 159.929688 265.097656 C 154.3125 265.097656 150.410156 263.339844 149.246094 262.738281 L 149.246094 260.59375 C 151.023438 261.40625 154.777344 262.777344 159.929688 262.777344 C 165.085938 262.777344 168.832031 261.40625 170.613281 260.59375 Z M 170.613281 159.886719 C 168.835938 159.070312 165.085938 157.699219 159.929688 157.699219 C 154.773438 157.699219 151.019531 159.070312 149.246094 159.886719 L 149.246094 157.738281 C 150.410156 157.140625 154.3125 155.382812 159.929688 155.382812 C 165.542969 155.382812 169.445312 157.140625 170.613281 157.738281 Z M 149.242188 161.5625 C 150.402344 160.964844 154.289062 159.207031 159.925781 159.207031 C 165.539062 159.207031 169.441406 160.964844 170.609375 161.5625 L 170.609375 258.914062 C 169.449219 259.511719 165.566406 261.269531 159.925781 261.269531 C 154.3125 261.269531 150.40625 259.511719 149.242188 258.914062 Z M 170.613281 147.820312 L 170.613281 156.058594 C 168.835938 155.246094 165.085938 153.875 159.929688 153.875 C 154.773438 153.875 151.019531 155.246094 149.246094 156.058594 L 149.246094 147.820312 C 150.410156 147.222656 154.3125 145.464844 159.929688 145.464844 C 165.542969 145.464844 169.445312 147.222656 170.613281 147.820312 Z M 146.347656 261.828125 C 144.867188 262.476562 139.855469 264.519531 135.664062 264.519531 C 131.472656 264.519531 126.457031 262.472656 124.980469 261.828125 L 124.980469 239.882812 C 126.925781 240.296875 131.578125 241.175781 135.664062 241.175781 C 139.75 241.175781 144.402344 240.296875 146.347656 239.882812 Z M 124.976562 150.386719 C 126.457031 149.742188 131.46875 147.699219 135.660156 147.699219 C 139.851562 147.699219 144.867188 149.742188 146.34375 150.386719 L 146.34375 172.332031 C 144.398438 171.921875 139.746094 171.039062 135.660156 171.039062 C 131.574219 171.039062 126.921875 171.921875 124.976562 172.332031 Z M 124.976562 195.914062 L 146.347656 195.914062 L 146.347656 216.300781 L 124.976562 216.300781 Z M 146.347656 194.40625 L 124.976562 194.40625 L 124.976562 173.875 C 126.628906 173.515625 131.523438 172.542969 135.660156 172.542969 C 139.796875 172.542969 144.691406 173.515625 146.34375 173.875 L 146.34375 194.40625 Z M 124.976562 217.808594 L 146.347656 217.808594 L 146.347656 238.34375 C 144.695312 238.699219 139.800781 239.671875 135.664062 239.671875 C 131.527344 239.671875 126.632812 238.699219 124.980469 238.34375 L 124.980469 217.808594 Z M 124.976562 272.324219 L 124.976562 263.472656 C 127.019531 264.328125 131.605469 266.027344 135.660156 266.027344 C 139.714844 266.027344 144.300781 264.324219 146.34375 263.472656 L 146.34375 272.324219 C 144.863281 272.972656 139.851562 275.015625 135.660156 275.015625 C 131.46875 275.015625 126.457031 272.972656 124.976562 272.324219 Z M 149.242188 264.417969 C 151.019531 265.234375 154.773438 266.605469 159.925781 266.605469 C 165.082031 266.605469 168.832031 265.234375 170.609375 264.417969 L 170.609375 272.660156 C 169.449219 273.257812 165.566406 275.015625 159.925781 275.015625 C 154.3125 275.015625 150.40625 273.257812 149.242188 272.660156 Z M 173.507812 170 C 173.566406 169.894531 173.601562 169.769531 173.601562 169.636719 L 173.609375 161.929688 C 175.351562 161.257812 181.832031 158.972656 189.054688 158.972656 C 196.277344 158.972656 202.839844 161.285156 204.597656 161.960938 L 204.585938 172.414062 C 202.179688 171.527344 195.996094 169.535156 189.054688 169.535156 C 182.015625 169.535156 175.820312 171.566406 173.511719 172.425781 Z M 173.527344 246.261719 L 173.535156 241.640625 L 173.558594 236.664062 L 173.550781 231.988281 L 173.558594 229.679688 L 173.550781 223.644531 L 173.558594 217.609375 L 173.53125 189.007812 C 173.574219 188.914062 173.605469 188.804688 173.605469 188.691406 L 173.613281 180.984375 C 175.355469 180.3125 181.835938 178.027344 189.054688 178.027344 C 196.257812 178.027344 202.796875 180.324219 204.582031 181.007812 L 204.542969 217.609375 L 204.550781 223.644531 L 204.542969 229.679688 L 204.546875 232.246094 L 204.542969 236.664062 L 204.570312 245.457031 L 204.574219 246.445312 L 204.582031 254.226562 C 202.800781 254.910156 196.261719 257.207031 189.058594 257.207031 C 181.839844 257.207031 175.359375 254.921875 173.613281 254.25 L 173.609375 246.546875 C 173.601562 246.445312 173.574219 246.351562 173.527344 246.261719 Z M 204.582031 179.394531 C 202.167969 178.511719 195.992188 176.523438 189.054688 176.523438 C 182.109375 176.523438 175.980469 178.5 173.605469 179.375 L 173.613281 174.003906 C 175.355469 173.332031 181.835938 171.042969 189.054688 171.042969 C 196.265625 171.042969 202.8125 173.34375 204.589844 174.027344 Z M 189.054688 258.71875 C 195.992188 258.71875 202.167969 256.730469 204.582031 255.84375 L 204.585938 261.191406 C 202.8125 261.871094 196.265625 264.175781 189.054688 264.175781 C 181.832031 264.175781 175.355469 261.886719 173.609375 261.21875 L 173.601562 255.867188 C 175.980469 256.742188 182.105469 258.71875 189.054688 258.71875 Z M 116.804688 136.316406 C 118.777344 136.316406 121.117188 137.140625 122.082031 137.519531 L 122.082031 142.464844 C 120.863281 142.117188 118.722656 141.589844 116.804688 141.589844 C 114.886719 141.589844 112.75 142.113281 111.53125 142.464844 L 111.53125 137.519531 C 112.496094 137.144531 114.835938 136.316406 116.804688 136.316406 Z M 122.082031 144.042969 L 122.082031 265.847656 C 121.125 266.238281 118.777344 267.113281 116.804688 267.113281 C 114.832031 267.113281 112.488281 266.238281 111.53125 265.847656 L 111.53125 144.042969 C 112.535156 143.734375 114.847656 143.097656 116.804688 143.097656 C 118.765625 143.097656 121.082031 143.734375 122.082031 144.042969 Z M 111.53125 273.488281 L 111.53125 267.46875 C 112.773438 267.941406 114.894531 268.621094 116.804688 268.621094 C 118.71875 268.621094 120.839844 267.945312 122.082031 267.46875 L 122.082031 273.488281 C 121.164062 273.941406 118.796875 275.015625 116.804688 275.015625 C 114.824219 275.015625 112.449219 273.941406 111.53125 273.488281 Z M 249.042969 274 C 244.375 275.332031 239.566406 274.417969 238.171875 274.101562 L 236.03125 266.621094 C 236.003906 266.523438 235.957031 266.441406 235.894531 266.367188 L 235.253906 264.121094 C 236.375 264.339844 238.183594 264.609375 240.308594 264.609375 C 242.101562 264.609375 244.125 264.417969 246.148438 263.84375 C 250.519531 262.59375 253.964844 259.804688 255.546875 258.34375 L 258.394531 268.304688 C 257.367188 269.316406 253.726562 272.660156 249.042969 274 Z M 227.824219 161.125 L 230.65625 171.09375 C 228.542969 170.6875 224.140625 170.128906 219.773438 171.378906 C 215.355469 172.636719 211.910156 175.453125 210.371094 176.886719 L 209.734375 174.664062 C 209.75 174.558594 209.742188 174.457031 209.710938 174.351562 L 207.585938 166.871094 C 208.601562 165.863281 212.207031 162.550781 216.875 161.21875 C 221.542969 159.890625 226.410156 160.808594 227.824219 161.125 Z M 232.71875 255.011719 C 232.695312 254.925781 232.648438 254.847656 232.59375 254.777344 L 222.839844 220.492188 L 213.046875 186.246094 C 213.054688 186.152344 213.050781 186.058594 213.019531 185.960938 L 210.894531 178.480469 C 211.910156 177.472656 215.515625 174.160156 220.183594 172.828125 C 224.839844 171.5 229.699219 172.414062 231.121094 172.734375 L 243.070312 214.726562 L 244.796875 220.765625 L 246.378906 226.332031 L 250.734375 241.519531 L 255.074219 256.703125 C 254.039062 257.726562 250.394531 261.0625 245.734375 262.390625 C 241.066406 263.722656 236.257812 262.816406 234.859375 262.492188 Z M 232.71875 255.011719 " fill-opacity="1" fill-rule="nonzero"/></g><g fill="#b38272" fill-opacity="1"><g transform="translate(29.497279, 134.307193)"><g><path d="M 42.203125 -16.21875 C 41.460938 -15.695312 40.734375 -15.25 40.015625 -14.875 C 39.296875 -14.5 38.617188 -14.179688 37.984375 -13.921875 C 35.222656 -12.785156 32.785156 -12.753906 30.671875 -13.828125 C 28.566406 -14.898438 26.707031 -17.40625 25.09375 -21.34375 C 24.675781 -22.332031 24.273438 -23.421875 23.890625 -24.609375 C 23.503906 -25.804688 23.144531 -27.082031 22.8125 -28.4375 C 22.144531 -26.832031 21.441406 -25.019531 20.703125 -23 C 19.972656 -20.976562 19.238281 -18.890625 18.5 -16.734375 C 17.769531 -14.578125 17.070312 -12.507812 16.40625 -10.53125 C 15.738281 -8.5625 15.128906 -6.832031 14.578125 -5.34375 C 14.398438 -5.113281 14.050781 -4.8125 13.53125 -4.4375 C 13.019531 -4.070312 12.269531 -3.6875 11.28125 -3.28125 C 9.738281 -2.644531 8.09375 -2.523438 6.34375 -2.921875 C 4.59375 -3.316406 2.945312 -4.203125 1.40625 -5.578125 C -0.132812 -6.953125 -1.390625 -8.820312 -2.359375 -11.1875 C -3.179688 -13.1875 -3.851562 -15.53125 -4.375 -18.21875 C -4.90625 -20.914062 -5.332031 -23.785156 -5.65625 -26.828125 C -5.976562 -29.878906 -6.238281 -32.9375 -6.4375 -36 C -6.632812 -39.070312 -6.828125 -41.972656 -7.015625 -44.703125 C -7.210938 -47.429688 -7.445312 -49.835938 -7.71875 -51.921875 C -8 -54.003906 -8.363281 -55.585938 -8.8125 -56.671875 C -9.300781 -57.859375 -9.898438 -58.863281 -10.609375 -59.6875 C -10.378906 -59.882812 -10.113281 -60.046875 -9.8125 -60.171875 C -9.507812 -60.296875 -9.226562 -60.410156 -8.96875 -60.515625 C -7.332031 -61.191406 -5.570312 -61.4375 -3.6875 -61.25 C -1.8125 -61.0625 -0.0976562 -60.492188 1.453125 -59.546875 C 3.003906 -58.597656 4.132812 -57.257812 4.84375 -55.53125 C 5.53125 -53.851562 5.976562 -51.890625 6.1875 -49.640625 C 6.394531 -47.398438 6.503906 -45.039062 6.515625 -42.5625 C 6.523438 -40.082031 6.585938 -37.601562 6.703125 -35.125 C 6.816406 -32.65625 7.109375 -30.351562 7.578125 -28.21875 C 8.765625 -31.09375 9.957031 -34.234375 11.15625 -37.640625 C 12.351562 -41.046875 13.367188 -44.546875 14.203125 -48.140625 C 15.035156 -51.742188 15.453125 -55.273438 15.453125 -58.734375 C 15.460938 -62.203125 14.84375 -65.460938 13.59375 -68.515625 C 14.425781 -69.171875 15.289062 -69.6875 16.1875 -70.0625 C 18.6875 -71.082031 21.066406 -71.035156 23.328125 -69.921875 C 25.585938 -68.816406 27.226562 -67.015625 28.25 -64.515625 C 28.914062 -62.890625 29.40625 -61.023438 29.71875 -58.921875 C 30.03125 -56.816406 30.296875 -54.59375 30.515625 -52.25 C 30.734375 -49.914062 30.988281 -47.578125 31.28125 -45.234375 C 31.582031 -42.890625 32.066406 -40.660156 32.734375 -38.546875 C 33.109375 -39.441406 33.597656 -40.953125 34.203125 -43.078125 C 34.804688 -45.210938 35.4375 -47.738281 36.09375 -50.65625 C 36.75 -53.570312 37.390625 -56.679688 38.015625 -59.984375 C 38.640625 -63.296875 39.160156 -66.597656 39.578125 -69.890625 C 40.003906 -73.191406 40.289062 -76.273438 40.4375 -79.140625 C 43.0625 -79.835938 45.128906 -79.832031 46.640625 -79.125 C 48.148438 -78.425781 49.269531 -77.1875 50 -75.40625 C 50.738281 -73.59375 51.125 -71.332031 51.15625 -68.625 C 51.1875 -65.925781 50.96875 -62.941406 50.5 -59.671875 C 50.039062 -56.410156 49.4375 -53.035156 48.6875 -49.546875 C 47.945312 -46.066406 47.164062 -42.617188 46.34375 -39.203125 C 45.53125 -35.796875 44.769531 -32.582031 44.0625 -29.5625 C 43.363281 -26.550781 42.828125 -23.882812 42.453125 -21.5625 C 42.085938 -19.238281 42.003906 -17.457031 42.203125 -16.21875 Z M 42.203125 -16.21875 "/></g></g></g><g fill="#b38272" fill-opacity="1"><g transform="translate(87.157421, 110.631382)"><g><path d="M -4.109375 -8.640625 C -4.671875 -10.003906 -5 -11.894531 -5.09375 -14.3125 C -5.1875 -16.738281 -5.164062 -19.472656 -5.03125 -22.515625 C -4.90625 -25.566406 -4.78125 -28.679688 -4.65625 -31.859375 C -4.53125 -35.035156 -4.492188 -38.039062 -4.546875 -40.875 C -4.316406 -40.96875 -4.082031 -41.078125 -3.84375 -41.203125 C -3.601562 -41.328125 -3.375 -41.4375 -3.15625 -41.53125 C -1.019531 -42.40625 0.859375 -42.820312 2.484375 -42.78125 C 4.117188 -42.738281 5.234375 -41.992188 5.828125 -40.546875 C 6.085938 -39.910156 6.203125 -38.734375 6.171875 -37.015625 C 6.140625 -35.304688 6.023438 -33.328125 5.828125 -31.078125 C 5.640625 -28.828125 5.441406 -26.5625 5.234375 -24.28125 C 5.035156 -22 4.941406 -19.945312 4.953125 -18.125 C 4.960938 -16.300781 5.144531 -14.957031 5.5 -14.09375 C 5.863281 -13.195312 6.457031 -12.914062 7.28125 -13.25 C 7.90625 -13.507812 8.597656 -14.070312 9.359375 -14.9375 C 10.117188 -15.800781 10.898438 -16.804688 11.703125 -17.953125 C 12.503906 -19.097656 13.21875 -20.25 13.84375 -21.40625 C 14.476562 -22.570312 14.988281 -23.585938 15.375 -24.453125 C 15.6875 -22.804688 15.796875 -20.90625 15.703125 -18.75 C 15.609375 -16.59375 15.273438 -14.429688 14.703125 -12.265625 C 14.140625 -10.109375 13.269531 -8.164062 12.09375 -6.4375 C 10.925781 -4.707031 9.414062 -3.460938 7.5625 -2.703125 C 5.96875 -2.046875 4.382812 -1.925781 2.8125 -2.34375 C 1.238281 -2.769531 -0.148438 -3.550781 -1.359375 -4.6875 C -2.578125 -5.820312 -3.492188 -7.140625 -4.109375 -8.640625 Z M 4.171875 -49.625 C 3.015625 -48.832031 1.9375 -48.234375 0.9375 -47.828125 C -0.601562 -47.191406 -1.847656 -47.0625 -2.796875 -47.4375 C -3.753906 -47.8125 -4.4375 -48.5 -4.84375 -49.5 C -5.269531 -50.53125 -5.441406 -51.789062 -5.359375 -53.28125 C -5.273438 -54.78125 -5.015625 -56.285156 -4.578125 -57.796875 C -2.046875 -58.835938 -0.101562 -59.25 1.25 -59.03125 C 2.613281 -58.8125 3.566406 -58.050781 4.109375 -56.75 C 4.773438 -55.113281 4.796875 -52.738281 4.171875 -49.625 Z M 4.171875 -49.625 "/></g></g></g><g fill="#b38272" fill-opacity="1"><g transform="translate(106.128151, 102.841816)"><g><path d="M -4.65625 -8.421875 C -5.25 -9.867188 -5.359375 -11.367188 -4.984375 -12.921875 C -4.617188 -14.472656 -4.132812 -15.9375 -3.53125 -17.3125 C -2.082031 -15.988281 -0.523438 -15.085938 1.140625 -14.609375 C 2.816406 -14.140625 4.503906 -14 6.203125 -14.1875 C 7.898438 -14.375 9.425781 -14.75 10.78125 -15.3125 C 12.414062 -15.988281 13.695312 -16.832031 14.625 -17.84375 C 15.5625 -18.863281 15.851562 -19.8125 15.5 -20.6875 C 15.257812 -21.269531 14.550781 -21.503906 13.375 -21.390625 C 12.207031 -21.273438 10.785156 -21.0625 9.109375 -20.75 C 7.441406 -20.4375 5.71875 -20.21875 3.9375 -20.09375 C 2.164062 -19.976562 0.578125 -20.144531 -0.828125 -20.59375 C -2.242188 -21.039062 -3.253906 -22.015625 -3.859375 -23.515625 C -4.742188 -25.648438 -4.941406 -27.941406 -4.453125 -30.390625 C -3.960938 -32.835938 -3.015625 -35.207031 -1.609375 -37.5 C -0.210938 -39.800781 1.5 -41.875 3.53125 -43.71875 C 5.5625 -45.5625 7.691406 -46.941406 9.921875 -47.859375 C 12.316406 -48.835938 14.265625 -48.878906 15.765625 -47.984375 C 17.265625 -47.097656 18.398438 -45.722656 19.171875 -43.859375 C 19.796875 -42.316406 20.1875 -40.613281 20.34375 -38.75 C 20.507812 -36.882812 20.488281 -35.113281 20.28125 -33.4375 C 18.925781 -35.15625 17.539062 -36.160156 16.125 -36.453125 C 14.71875 -36.753906 13.425781 -36.660156 12.25 -36.171875 C 11.25 -35.765625 10.375 -35.179688 9.625 -34.421875 C 8.875 -33.660156 8.328125 -32.890625 7.984375 -32.109375 C 7.640625 -31.335938 7.578125 -30.679688 7.796875 -30.140625 C 8.171875 -29.234375 8.863281 -28.734375 9.875 -28.640625 C 10.894531 -28.554688 12.085938 -28.59375 13.453125 -28.75 C 14.816406 -28.914062 16.203125 -28.992188 17.609375 -28.984375 C 19.015625 -28.984375 20.335938 -28.664062 21.578125 -28.03125 C 22.816406 -27.40625 23.800781 -26.207031 24.53125 -24.4375 C 25.320312 -22.488281 25.484375 -20.53125 25.015625 -18.5625 C 24.554688 -16.601562 23.660156 -14.726562 22.328125 -12.9375 C 21.003906 -11.15625 19.382812 -9.535156 17.46875 -8.078125 C 15.550781 -6.617188 13.523438 -5.457031 11.390625 -4.59375 C 9.210938 -3.695312 7.050781 -3.175781 4.90625 -3.03125 C 2.757812 -2.894531 0.835938 -3.25 -0.859375 -4.09375 C -2.554688 -4.9375 -3.820312 -6.378906 -4.65625 -8.421875 Z M -4.65625 -8.421875 "/></g></g></g><g fill="#b38272" fill-opacity="1"><g transform="translate(136.386116, 90.417603)"><g><path d="M 24.921875 -46.703125 C 25.484375 -45.347656 25.6875 -43.660156 25.53125 -41.640625 C 25.382812 -39.617188 25.128906 -37.5 24.765625 -35.28125 C 24.398438 -33.0625 24.132812 -30.953125 23.96875 -28.953125 C 23.8125 -26.960938 24.003906 -25.304688 24.546875 -23.984375 C 24.992188 -22.898438 25.71875 -22.5625 26.71875 -22.96875 C 27.394531 -23.25 28.109375 -23.765625 28.859375 -24.515625 C 29.609375 -25.273438 30.289062 -26.097656 30.90625 -26.984375 C 31.519531 -27.867188 31.984375 -28.585938 32.296875 -29.140625 C 32.640625 -27.640625 32.757812 -25.890625 32.65625 -23.890625 C 32.550781 -21.890625 32.1875 -19.898438 31.5625 -17.921875 C 30.945312 -15.941406 30.070312 -14.164062 28.9375 -12.59375 C 27.8125 -11.03125 26.410156 -9.90625 24.734375 -9.21875 C 22.828125 -8.425781 21.25 -8.195312 20 -8.53125 C 18.757812 -8.863281 17.753906 -9.546875 16.984375 -10.578125 C 16.210938 -11.617188 15.585938 -12.726562 15.109375 -13.90625 C 14.421875 -15.582031 13.953125 -17.523438 13.703125 -19.734375 C 13.460938 -21.941406 13.375 -24.195312 13.4375 -26.5 C 13.5 -28.800781 13.617188 -30.957031 13.796875 -32.96875 C 13.984375 -34.976562 14.144531 -36.644531 14.28125 -37.96875 C 12.925781 -37.40625 11.671875 -36.035156 10.515625 -33.859375 C 9.367188 -31.691406 8.40625 -28.972656 7.625 -25.703125 C 6.851562 -22.429688 6.375 -18.832031 6.1875 -14.90625 C 6 -10.976562 6.1875 -6.984375 6.75 -2.921875 C 4.4375 -1.960938 2.367188 -1.800781 0.546875 -2.4375 C -1.265625 -3.070312 -2.648438 -4.546875 -3.609375 -6.859375 C -4.160156 -8.210938 -4.53125 -10.175781 -4.71875 -12.75 C -4.90625 -15.320312 -4.984375 -18.285156 -4.953125 -21.640625 C -4.921875 -24.992188 -4.84375 -28.507812 -4.71875 -32.1875 C -4.59375 -35.875 -4.488281 -39.546875 -4.40625 -43.203125 C -4.320312 -46.867188 -4.304688 -50.289062 -4.359375 -53.46875 C -4.421875 -56.644531 -4.648438 -59.375 -5.046875 -61.65625 C -4.453125 -62 -3.875 -62.320312 -3.3125 -62.625 C -2.75 -62.9375 -2.175781 -63.210938 -1.59375 -63.453125 C -0.0078125 -64.109375 1.484375 -64.34375 2.890625 -64.15625 C 4.296875 -63.96875 5.378906 -62.941406 6.140625 -61.078125 C 6.640625 -59.859375 6.875 -58.25 6.84375 -56.25 C 6.820312 -54.25 6.703125 -52.09375 6.484375 -49.78125 C 6.273438 -47.46875 6.128906 -45.25 6.046875 -43.125 C 5.972656 -41 6.117188 -39.21875 6.484375 -37.78125 C 6.523438 -39.125 7.035156 -40.566406 8.015625 -42.109375 C 9.003906 -43.648438 10.273438 -45.109375 11.828125 -46.484375 C 13.378906 -47.859375 14.96875 -48.882812 16.59375 -49.5625 C 18.320312 -50.269531 19.9375 -50.46875 21.4375 -50.15625 C 22.9375 -49.851562 24.097656 -48.703125 24.921875 -46.703125 Z M 24.921875 -46.703125 "/></g></g></g><path stroke-linecap="butt" transform="matrix(0.263896, -0.108358, 0.108358, 0.263896, -109.547676, 131.453399)" fill="none" stroke-linejoin="miter" d="M 594.149729 186.589229 C 591.046134 187.298359 588.066692 187.777225 585.211402 188.025827 C 582.399314 188.277366 579.799373 188.408784 577.41678 188.407414 C 566.935317 188.411067 558.984542 185.279621 553.571919 179.030945 C 548.157031 172.751735 545.45412 162.138877 545.457985 147.205037 C 545.454255 143.428942 545.626015 139.369652 545.953135 135.0041 C 546.295857 130.600547 546.813399 125.987535 547.536295 121.1628 C 543.217748 125.443665 538.519277 130.397454 533.446083 136.0115 C 528.40636 141.58008 523.273018 147.376659 518.031126 153.365501 C 512.784033 159.367011 507.757897 165.118796 502.927385 170.610456 C 498.109539 176.107316 493.80642 180.927397 490.030697 185.075898 C 489.20224 185.579452 487.6923 186.084423 485.506076 186.578146 C 483.367583 187.135874 480.41549 187.403937 476.639395 187.407668 C 470.811383 187.397785 465.317507 185.600815 460.155502 181.986223 C 455.000963 178.389499 450.823621 173.31414 447.636141 166.765349 C 444.486662 160.232161 442.929842 152.487856 442.924745 143.560032 C 442.917284 136.007843 443.871913 127.518498 445.750634 118.076396 C 447.63682 108.652161 450.066252 98.770087 453.046396 88.448041 C 456.06454 78.141598 459.300953 67.880372 462.745233 57.689696 C 466.174581 47.463285 469.387751 37.799405 472.359409 28.687656 C 475.384669 19.553509 477.838911 11.413481 479.716934 4.280236 C 481.607623 -2.847808 482.553914 -8.468947 482.550607 -12.570517 C 482.552923 -17.010228 481.959063 -21.043438 480.789157 -24.647078 C 481.804677 -25.029415 482.871783 -25.212944 483.995678 -25.21033 C 485.13744 -25.215182 486.205467 -25.220706 487.207225 -25.209035 C 493.414314 -25.221126 499.436754 -23.66599 505.267079 -20.561497 C 511.084737 -17.462204 515.886029 -13.329625 519.670955 -8.163759 C 523.443215 -3.003094 525.330313 2.81932 525.32705 9.316149 C 525.327395 15.696042 524.173136 22.6528 521.87174 30.204292 C 519.557677 37.750582 516.773183 45.57738 513.498124 53.661615 C 510.233467 61.720517 507.126011 69.829165 504.195888 78.010628 C 501.299235 86.146625 499.162753 94.01747 497.778978 101.605294 C 505.493324 93.84885 513.568806 85.248944 521.987557 75.813042 C 530.424175 66.369674 538.364954 56.367457 545.840427 45.804125 C 553.303235 35.235593 559.334964 24.331084 563.94828 13.095798 C 568.612936 1.807581 570.931405 -9.570671 570.931959 -21.071759 C 574.539456 -22.106861 578.06105 -22.644357 581.506469 -22.635844 C 590.980973 -22.638502 598.632527 -19.319073 604.466334 -12.690224 C 610.287474 -6.066577 613.209775 1.957166 613.210168 11.401136 C 613.209592 17.603024 612.306825 24.307795 610.496664 31.528113 C 608.691705 38.735765 606.58098 46.291536 604.144357 54.17236 C 601.750935 62.05612 599.496845 69.997091 597.35902 78.015406 C 595.216665 85.972653 593.804868 93.845016 593.139232 101.594496 C 595.526132 99.170072 599.109592 94.913021 603.902279 88.828544 C 608.7203 82.754469 614.132159 75.414404 620.119988 66.815816 C 626.168887 58.212699 632.398901 48.988245 638.81003 39.142456 C 645.259831 29.238535 651.364698 19.237387 657.111962 9.13381 C 662.892697 -1.015231 667.936579 -10.667513 672.207871 -19.808104 C 681.643354 -18.598201 688.33359 -15.821521 692.276315 -11.508598 C 696.259975 -7.223274 698.251767 -1.727927 698.251688 4.977441 C 698.252531 11.860813 696.489926 19.722351 692.976541 28.567255 C 689.448224 37.376424 684.747436 46.769924 678.874177 56.747755 C 673.04412 66.728522 666.612435 76.876717 659.561255 87.199806 C 652.518213 97.467027 645.397579 107.598773 638.17922 117.571975 C 630.971264 127.519843 624.213358 136.912396 617.930836 145.760036 C 611.678849 154.605412 606.41655 162.554569 602.131273 169.602306 C 597.863864 176.642578 595.19566 182.311596 594.149729 186.589229 Z M 652.364096 149.53712 C 652.355264 144.367523 653.833902 137.810398 656.76201 129.850141 C 659.698255 121.834016 663.389645 112.988191 667.828714 103.294799 C 672.326587 93.566343 676.871942 83.650152 681.482645 73.538761 C 686.134285 63.399772 690.263482 53.667956 693.877703 44.361181 C 694.711858 44.34844 695.599616 44.313303 696.520845 44.2327 C 697.485275 44.155033 698.408768 44.104965 699.280923 44.107827 C 707.336592 44.099868 713.988008 45.276772 719.222504 47.633338 C 724.465138 49.934036 727.094392 53.840854 727.090134 59.330725 C 727.088764 61.713318 725.870452 65.65373 723.435199 71.15196 C 721.048348 76.640461 718.056759 82.916804 714.452966 89.963124 C 710.836506 97.004242 707.186576 104.090826 703.503175 111.222875 C 699.807108 118.349723 696.762164 124.900203 694.378747 130.848982 C 691.993065 136.767227 690.791775 141.351123 690.795008 144.623738 C 690.786495 148.069157 692.332145 149.784377 695.383555 149.779128 C 697.822016 149.788635 700.843489 148.882962 704.442775 147.074773 C 708.049526 145.284452 711.912049 143.051472 716.01474 140.413832 C 720.120367 137.732991 723.983064 134.922796 727.590165 131.978046 C 731.204731 129.051164 734.21859 126.469714 736.657077 124.244099 C 735.438241 129.916154 733.237606 136.176821 730.04477 143.051432 C 726.864599 149.931244 722.901363 156.519126 718.160263 162.802412 C 713.460099 169.0581 708.050531 174.193576 701.926357 178.221507 C 695.850585 182.239707 689.27681 184.262356 682.2333 184.256653 C 676.239951 184.252892 670.956206 182.557006 666.387267 179.156328 C 661.859265 175.728053 658.377491 171.337961 655.94421 166.016588 C 653.55933 160.685484 652.365959 155.192328 652.364096 149.53712 Z M 733.820031 27.619744 C 728.991835 28.671693 724.702356 29.204734 720.931462 29.195798 C 715.098249 29.198582 710.885966 27.95745 708.276744 25.479869 C 705.726326 22.967224 704.442918 19.820254 704.439187 16.044159 C 704.442002 12.107927 705.557139 7.769898 707.784599 3.030072 C 709.999393 -1.714956 712.827386 -6.223 716.268576 -10.494062 C 725.921085 -10.49764 732.793034 -9.244985 736.909758 -6.725695 C 741.01155 -4.24214 743.073071 -0.538834 743.06605 4.417023 C 743.065475 10.618912 739.991912 18.356619 733.820031 27.619744 Z M 722.230111 149.538103 C 722.237306 144.005032 723.847039 138.967154 727.071977 134.42967 C 730.350517 129.86979 733.866364 125.777405 737.639649 122.175584 C 740.586214 128.373816 744.438753 133.375016 749.212871 137.141184 C 754.042856 140.91549 759.327596 143.618334 765.06709 145.249718 C 770.862451 146.889239 776.327063 147.712049 781.491458 147.715885 C 787.650146 147.713524 792.915552 146.678273 797.282474 144.6228 C 801.679931 142.565062 803.883376 139.902486 803.874942 136.642537 C 803.88537 134.382081 801.915177 132.655364 797.971829 131.480254 C 794.031417 130.261942 789.116845 129.072895 783.251183 127.89298 C 777.41379 126.680267 771.52909 125.078074 765.568814 123.1192 C 759.662141 121.137929 754.730474 118.476444 750.791681 115.127279 C 746.852888 111.778114 744.872493 107.264393 744.875831 101.596518 C 744.883475 93.50285 747.272617 85.809761 752.043257 78.517252 C 756.874965 71.220214 763.102513 64.777563 770.733368 59.207168 C 778.412625 53.627043 786.755149 49.207394 795.766142 45.935555 C 804.782335 42.651049 813.503736 41.021763 821.940747 41.022365 C 831.041375 41.029014 837.437094 43.477532 841.122703 48.380584 C 844.820979 53.288838 846.658332 59.268452 846.652629 66.311961 C 846.655413 72.145174 845.679757 78.198322 843.702592 84.491539 C 841.728363 90.741555 839.283629 96.443123 836.337854 101.598509 C 834.292063 94.215911 831.137282 89.101558 826.904046 86.253185 C 822.719211 83.395082 818.389071 81.972337 813.94936 81.97002 C 810.173265 81.973751 806.568456 82.713912 803.127465 84.172637 C 799.693941 85.649229 796.883345 87.411206 794.695677 89.458568 C 792.563877 91.514067 791.494903 93.576709 791.499158 95.621161 C 791.490645 99.06658 793.084771 101.601024 796.276334 103.237159 C 799.455231 104.868093 803.365357 106.340409 807.968713 107.638503 C 812.627936 108.944735 817.215938 110.532568 821.75285 112.425073 C 826.325497 114.302646 830.198195 117.091792 833.388812 120.785045 C 836.579428 124.478299 838.162031 129.672408 838.174619 136.382977 C 838.163292 143.764628 836.089572 150.329044 831.940792 156.071025 C 827.830012 161.82861 822.414994 166.725013 815.710669 170.79597 C 809.039815 174.821461 801.617276 177.901809 793.443052 180.037013 C 785.306828 182.18782 777.188149 183.250467 769.089279 183.25549 C 760.830273 183.253967 753.139099 182.049789 746.005357 179.668287 C 738.879753 177.230918 733.141206 173.542416 728.777049 168.597581 C 724.415829 163.609545 722.231028 157.25043 722.230111 149.538103 Z M 983.713772 64.743564 C 983.715138 69.895293 982.116553 75.663057 978.935886 82.03939 C 975.788689 88.370257 972.133732 94.892293 967.988883 101.598032 C 963.872304 108.270972 960.220284 114.749807 957.045489 121.039738 C 953.891499 127.279003 952.319591 132.909698 952.327502 137.90129 C 952.327873 142.046061 954.213505 144.122914 957.984399 144.13185 C 960.544996 144.132299 963.542057 143.394228 966.975582 141.917636 C 970.416572 140.458911 973.730648 138.696437 976.912607 136.642879 C 980.112434 134.581856 982.53355 132.867186 984.211691 131.483937 C 983.372357 136.808544 981.447626 142.64962 978.427095 149.032497 C 975.457902 155.362444 971.637782 161.313387 966.979401 166.890528 C 962.32102 172.467669 957.117228 177.065946 951.373227 180.672693 C 945.629226 184.27944 939.573612 186.085587 933.193719 186.085932 C 925.984872 186.086351 920.578567 184.724998 916.962138 181.996672 C 913.361312 179.230346 910.99084 175.666621 909.86859 171.298031 C 908.77461 166.896643 908.225046 162.46716 908.227362 158.027449 C 908.227017 151.647556 909.291937 144.728125 911.434789 137.274358 C 913.613377 129.80566 916.323041 122.3774 919.545915 114.997046 C 922.811989 107.619627 926.083091 100.806757 929.359218 94.558434 C 932.638282 88.26691 935.37619 83.040975 937.598275 78.891029 C 932.446546 78.892395 926.552736 81.63831 919.929512 87.133975 C 913.336822 92.627376 906.615846 100.19962 899.728587 109.835103 C 892.851729 119.445253 886.503584 130.471476 880.67895 142.926439 C 874.836448 155.388868 870.13419 168.571129 866.518573 182.49562 C 857.756087 182.494595 850.837005 180.275246 845.766529 175.824906 C 840.681122 171.338831 838.145264 164.717151 838.146289 155.954665 C 838.150124 150.790269 839.550249 143.919664 842.357066 135.317515 C 845.219751 126.723504 848.908802 117.018191 853.429421 106.188909 C 858.005907 95.367765 862.960302 84.094903 868.28514 72.352455 C 873.612914 60.566807 878.843884 48.800619 884.003384 37.064293 C 889.171021 25.272099 893.752459 14.186549 897.788636 3.780043 C 901.850146 -6.616061 904.727936 -15.751551 906.401875 -23.649496 C 908.833293 -23.983331 911.157505 -24.272373 913.379712 -24.529287 C 915.609385 -24.768334 917.853317 -24.897911 920.118974 -24.900149 C 926.112324 -24.896388 931.245164 -23.662125 935.530162 -21.192157 C 939.840493 -18.711788 942.004342 -13.959914 942.011306 -6.911204 C 942.006973 -2.250288 940.618943 3.293085 937.856945 9.767317 C 935.120953 16.178216 931.849852 22.991086 928.043642 30.205929 C 924.267966 37.418507 920.832448 44.415504 917.731886 51.209586 C 914.661858 58.001404 912.796851 63.98542 912.1294 69.143769 C 914.007221 64.822861 917.578264 60.812349 922.819457 57.132364 C 928.065852 53.439712 934.097153 50.394999 940.938695 48.008628 C 947.813707 45.57679 954.354758 44.354826 960.556647 44.355402 C 967.066142 44.363867 972.532172 45.868161 976.980069 48.878687 C 981.465965 51.904816 983.706311 57.191375 983.713772 64.743564 Z M 983.713772 64.743564 " stroke="#662e1c" stroke-width="9.662437" stroke-opacity="1" stroke-miterlimit="4"/><g fill="#b38272" fill-opacity="1"><g transform="translate(173.444545, 75.201054)"><g/></g></g><g fill="#b38272" fill-opacity="1"><g transform="translate(184.205539, 107.450796)"><g><path d="M -1.921875 -8.234375 C -2.117188 -8.710938 -2.253906 -9.785156 -2.328125 -11.453125 C -2.398438 -13.128906 -2.425781 -15.203125 -2.40625 -17.671875 C -2.382812 -20.148438 -2.359375 -22.847656 -2.328125 -25.765625 C -2.296875 -28.679688 -2.285156 -31.65625 -2.296875 -34.6875 C -2.304688 -37.71875 -2.363281 -40.625 -2.46875 -43.40625 C -2.582031 -46.1875 -2.769531 -48.65625 -3.03125 -50.8125 C -3.300781 -52.96875 -3.671875 -54.617188 -4.140625 -55.765625 C -4.441406 -56.503906 -4.773438 -57.222656 -5.140625 -57.921875 C -5.515625 -58.617188 -6.0625 -59.285156 -6.78125 -59.921875 C -6.320312 -60.304688 -5.742188 -60.640625 -5.046875 -60.921875 C -3.640625 -61.503906 -2.023438 -61.769531 -0.203125 -61.71875 C 1.609375 -61.675781 3.3125 -61.25 4.90625 -60.4375 C 6.507812 -59.625 7.65625 -58.382812 8.34375 -56.71875 C 8.738281 -55.75 9.050781 -54.128906 9.28125 -51.859375 C 9.519531 -49.597656 9.695312 -47 9.8125 -44.0625 C 9.9375 -41.125 10.03125 -38.113281 10.09375 -35.03125 C 10.15625 -31.945312 10.1875 -29.054688 10.1875 -26.359375 C 10.1875 -23.660156 10.179688 -21.457031 10.171875 -19.75 C 11.296875 -20.375 12.539062 -20.96875 13.90625 -21.53125 C 15.707031 -22.269531 17.5625 -22.847656 19.46875 -23.265625 C 21.382812 -23.691406 23.226562 -23.84375 25 -23.71875 C 26.769531 -23.59375 28.363281 -23.085938 29.78125 -22.203125 C 31.195312 -21.316406 32.289062 -19.929688 33.0625 -18.046875 C 33.550781 -16.859375 33.894531 -15.460938 34.09375 -13.859375 C 31.53125 -13.617188 29.097656 -13.191406 26.796875 -12.578125 C 24.503906 -11.972656 22.347656 -11.253906 20.328125 -10.421875 C 17.503906 -9.265625 14.945312 -7.972656 12.65625 -6.546875 C 10.363281 -5.117188 8.226562 -3.6875 6.25 -2.25 C 5.050781 -1.757812 3.929688 -1.84375 2.890625 -2.5 C 1.859375 -3.15625 0.929688 -4.046875 0.109375 -5.171875 C -0.710938 -6.296875 -1.390625 -7.316406 -1.921875 -8.234375 Z M -1.921875 -8.234375 "/></g></g></g><g fill="#b38272" fill-opacity="1"><g transform="translate(219.242746, 93.064182)"><g><path d="M -4 -8.390625 C -4.539062 -9.710938 -4.851562 -11.546875 -4.9375 -13.890625 C -5.03125 -16.242188 -5.015625 -18.898438 -4.890625 -21.859375 C -4.765625 -24.816406 -4.640625 -27.835938 -4.515625 -30.921875 C -4.390625 -34.003906 -4.359375 -36.925781 -4.421875 -39.6875 C -4.191406 -39.78125 -3.960938 -39.882812 -3.734375 -40 C -3.503906 -40.125 -3.28125 -40.226562 -3.0625 -40.3125 C -0.988281 -41.164062 0.835938 -41.570312 2.421875 -41.53125 C 4.003906 -41.488281 5.082031 -40.765625 5.65625 -39.359375 C 5.914062 -38.742188 6.023438 -37.601562 5.984375 -35.9375 C 5.953125 -34.269531 5.84375 -32.34375 5.65625 -30.15625 C 5.476562 -27.976562 5.289062 -25.78125 5.09375 -23.5625 C 4.894531 -21.351562 4.796875 -19.363281 4.796875 -17.59375 C 4.804688 -15.820312 4.984375 -14.515625 5.328125 -13.671875 C 5.679688 -12.796875 6.257812 -12.523438 7.0625 -12.859375 C 7.664062 -13.109375 8.335938 -13.65625 9.078125 -14.5 C 9.816406 -15.34375 10.570312 -16.316406 11.34375 -17.421875 C 12.125 -18.535156 12.820312 -19.65625 13.4375 -20.78125 C 14.050781 -21.914062 14.550781 -22.894531 14.9375 -23.71875 C 15.226562 -22.132812 15.328125 -20.296875 15.234375 -18.203125 C 15.148438 -16.117188 14.828125 -14.023438 14.265625 -11.921875 C 13.710938 -9.816406 12.867188 -7.925781 11.734375 -6.25 C 10.609375 -4.570312 9.144531 -3.363281 7.34375 -2.625 C 5.800781 -1.988281 4.265625 -1.867188 2.734375 -2.265625 C 1.203125 -2.671875 -0.148438 -3.429688 -1.328125 -4.546875 C -2.503906 -5.660156 -3.394531 -6.941406 -4 -8.390625 Z M 4.046875 -48.171875 C 2.929688 -47.398438 1.890625 -46.816406 0.921875 -46.421875 C -0.578125 -45.804688 -1.789062 -45.679688 -2.71875 -46.046875 C -3.644531 -46.410156 -4.304688 -47.078125 -4.703125 -48.046875 C -5.117188 -49.054688 -5.285156 -50.285156 -5.203125 -51.734375 C -5.128906 -53.179688 -4.875 -54.632812 -4.4375 -56.09375 C -1.976562 -57.101562 -0.09375 -57.503906 1.21875 -57.296875 C 2.539062 -57.097656 3.460938 -56.359375 3.984375 -55.078125 C 4.640625 -53.492188 4.660156 -51.191406 4.046875 -48.171875 Z M 4.046875 -48.171875 "/></g></g></g><g fill="#b38272" fill-opacity="1"><g transform="translate(237.652127, 85.505113)"><g><path d="M -4.515625 -8.171875 C -5.085938 -9.585938 -5.195312 -11.046875 -4.84375 -12.546875 C -4.488281 -14.054688 -4.015625 -15.472656 -3.421875 -16.796875 C -2.023438 -15.515625 -0.507812 -14.644531 1.125 -14.1875 C 2.757812 -13.726562 4.394531 -13.59375 6.03125 -13.78125 C 7.675781 -13.96875 9.15625 -14.332031 10.46875 -14.875 C 12.050781 -15.519531 13.296875 -16.335938 14.203125 -17.328125 C 15.117188 -18.316406 15.40625 -19.226562 15.0625 -20.0625 C 14.820312 -20.632812 14.128906 -20.863281 12.984375 -20.75 C 11.847656 -20.644531 10.46875 -20.4375 8.84375 -20.125 C 7.226562 -19.820312 5.554688 -19.613281 3.828125 -19.5 C 2.097656 -19.382812 0.550781 -19.546875 -0.8125 -19.984375 C -2.175781 -20.421875 -3.15625 -21.367188 -3.75 -22.828125 C -4.59375 -24.890625 -4.78125 -27.113281 -4.3125 -29.5 C -3.851562 -31.882812 -2.941406 -34.1875 -1.578125 -36.40625 C -0.210938 -38.632812 1.453125 -40.640625 3.421875 -42.421875 C 5.390625 -44.210938 7.457031 -45.550781 9.625 -46.4375 C 11.957031 -47.394531 13.851562 -47.441406 15.3125 -46.578125 C 16.769531 -45.722656 17.875 -44.390625 18.625 -42.578125 C 19.226562 -41.085938 19.609375 -39.4375 19.765625 -37.625 C 19.921875 -35.8125 19.894531 -34.085938 19.6875 -32.453125 C 18.375 -34.117188 17.03125 -35.097656 15.65625 -35.390625 C 14.28125 -35.679688 13.019531 -35.585938 11.875 -35.109375 C 10.914062 -34.710938 10.070312 -34.144531 9.34375 -33.40625 C 8.625 -32.675781 8.09375 -31.9375 7.75 -31.1875 C 7.414062 -30.4375 7.359375 -29.796875 7.578125 -29.265625 C 7.941406 -28.390625 8.613281 -27.90625 9.59375 -27.8125 C 10.582031 -27.726562 11.738281 -27.757812 13.0625 -27.90625 C 14.382812 -28.0625 15.726562 -28.140625 17.09375 -28.140625 C 18.457031 -28.140625 19.738281 -27.832031 20.9375 -27.21875 C 22.132812 -26.613281 23.085938 -25.445312 23.796875 -23.71875 C 24.578125 -21.832031 24.742188 -19.9375 24.296875 -18.03125 C 23.847656 -16.125 22.972656 -14.300781 21.671875 -12.5625 C 20.378906 -10.832031 18.800781 -9.257812 16.9375 -7.84375 C 15.082031 -6.425781 13.125 -5.296875 11.0625 -4.453125 C 8.9375 -3.578125 6.832031 -3.070312 4.75 -2.9375 C 2.675781 -2.8125 0.820312 -3.15625 -0.8125 -3.96875 C -2.457031 -4.789062 -3.691406 -6.191406 -4.515625 -8.171875 Z M -4.515625 -8.171875 "/></g></g></g><g fill="#b38272" fill-opacity="1"><g transform="translate(267.014766, 73.448531)"><g><path d="M 6.171875 -34 C 5.835938 -31.800781 5.675781 -29.34375 5.6875 -26.625 C 5.707031 -23.90625 5.925781 -21.191406 6.34375 -18.484375 C 6.757812 -15.785156 7.425781 -13.3125 8.34375 -11.0625 C 8.90625 -9.695312 9.578125 -8.457031 10.359375 -7.34375 C 11.148438 -6.226562 12.050781 -5.335938 13.0625 -4.671875 C 12.144531 -3.878906 11.265625 -3.3125 10.421875 -2.96875 C 8.804688 -2.300781 7.164062 -2.203125 5.5 -2.671875 C 3.832031 -3.148438 2.316406 -4.046875 0.953125 -5.359375 C -0.410156 -6.671875 -1.457031 -8.210938 -2.1875 -9.984375 C -2.988281 -11.953125 -3.515625 -14.117188 -3.765625 -16.484375 C -4.015625 -18.859375 -4.125 -21.207031 -4.09375 -23.53125 C -4.070312 -25.863281 -4.0625 -27.953125 -4.0625 -29.796875 C -5.132812 -29.921875 -6.066406 -30.347656 -6.859375 -31.078125 C -7.648438 -31.804688 -8.234375 -32.628906 -8.609375 -33.546875 C -9.078125 -34.691406 -9.191406 -35.726562 -8.953125 -36.65625 C -8.023438 -37.039062 -7.039062 -37.535156 -6 -38.140625 C -4.96875 -38.742188 -4.257812 -39.207031 -3.875 -39.53125 C -3.46875 -42.875 -3.222656 -46.140625 -3.140625 -49.328125 C -3.054688 -52.523438 -3.144531 -55.5625 -3.40625 -58.4375 C -2.289062 -58.851562 -1.003906 -59.035156 0.453125 -58.984375 C 1.910156 -58.941406 3.265625 -58.625 4.515625 -58.03125 C 5.765625 -57.4375 6.644531 -56.523438 7.15625 -55.296875 C 7.53125 -54.367188 7.65625 -53.300781 7.53125 -52.09375 C 7.40625 -50.882812 7.257812 -49.632812 7.09375 -48.34375 C 6.9375 -47.050781 6.96875 -45.828125 7.1875 -44.671875 C 7.363281 -44.742188 7.523438 -44.820312 7.671875 -44.90625 C 7.816406 -44.988281 7.976562 -45.066406 8.15625 -45.140625 C 9.726562 -45.785156 11.035156 -45.972656 12.078125 -45.703125 C 13.117188 -45.441406 13.945312 -44.925781 14.5625 -44.15625 C 15.1875 -43.382812 15.671875 -42.582031 16.015625 -41.75 C 16.253906 -41.175781 16.445312 -40.648438 16.59375 -40.171875 C 16.738281 -39.691406 16.8125 -39.320312 16.8125 -39.0625 C 16.207031 -38.914062 15.628906 -38.726562 15.078125 -38.5 C 14.523438 -38.28125 13.960938 -38.050781 13.390625 -37.8125 C 12.148438 -37.3125 10.9375 -36.75 9.75 -36.125 C 8.570312 -35.507812 7.378906 -34.800781 6.171875 -34 Z M 6.171875 -34 "/></g></g></g><path stroke-linecap="butt" transform="matrix(0.961287, -0.394714, 0.394714, 0.961287, 38.675414, 111.000703)" fill="none" stroke-linejoin="miter" d="M 129.119518 38.973318 C 129.119224 38.469316 129.393644 37.464516 129.940727 35.954013 C 130.487188 34.435127 131.219585 32.582169 132.13587 30.390234 C 133.051532 28.189916 134.057583 25.799153 135.154024 23.217946 C 136.259653 20.624257 137.360125 17.983751 138.454816 15.288046 C 139.552364 12.585386 140.554112 9.977488 141.473347 7.461679 C 142.388484 4.93606 143.120471 2.668451 143.66931 0.658851 C 144.214672 -1.352177 144.488292 -2.958712 144.490793 -4.152372 C 144.490848 -4.924426 144.456568 -5.682134 144.38733 -6.433877 C 144.320947 -7.192576 144.081759 -7.985657 143.668338 -8.809645 C 144.214484 -8.991749 144.85682 -9.081529 145.595344 -9.078988 C 147.058484 -9.079615 148.590268 -8.722909 150.18579 -8.006819 C 151.795406 -7.305259 153.1614 -6.297377 154.278244 -4.989506 C 155.395895 -3.693494 155.955171 -2.175701 155.954644 -0.43265 C 155.951754 0.573926 155.644351 2.134082 155.030387 4.242911 C 154.4158 6.343358 153.628312 8.726339 152.667301 11.383473 C 151.705669 14.032225 150.686234 16.742577 149.602042 19.511674 C 148.529089 22.273195 147.501757 24.854335 146.515141 27.257141 C 145.533431 29.657899 144.723242 31.621139 144.08743 33.139909 C 145.317338 32.994751 146.640143 32.920246 148.057894 32.921299 C 149.935685 32.920262 151.80219 33.08526 153.656788 33.407911 C 155.511386 33.730562 157.202018 34.2744 158.735017 35.033898 C 160.265345 35.780109 161.499892 36.811225 162.439463 38.115387 C 163.376985 39.414643 163.845182 41.04539 163.846103 43.012532 C 163.845283 44.251581 163.647083 45.624954 163.243123 47.133271 C 160.863065 46.407937 158.539033 45.892531 156.273077 45.59196 C 154.003643 45.289961 151.817986 45.140204 149.717532 45.139212 C 146.779393 45.139662 144.032641 45.356858 141.472371 45.79285 C 138.912102 46.228842 136.487447 46.720519 134.198406 47.26788 C 132.959357 47.267059 131.989931 46.787733 131.299939 45.8258 C 130.616901 44.866724 130.113419 43.737561 129.788064 42.441789 C 129.475375 41.134963 129.254845 39.979758 129.119518 38.973318 Z M 163.773759 38.082172 C 163.773015 36.708383 164.165902 34.959832 164.947514 32.83857 C 165.731361 30.70197 166.714752 28.346602 167.897066 25.764083 C 169.095523 23.171938 170.305587 20.531733 171.533591 17.837941 C 172.77426 15.133095 173.874985 12.541456 174.837191 10.059546 C 175.059854 10.061575 175.29661 10.049073 175.541127 10.027567 C 175.798931 10.00339 176.042642 9.993744 176.278592 9.993102 C 178.424436 9.992413 180.193966 10.304516 181.590661 10.930839 C 182.988163 11.545302 183.685799 12.587581 183.686427 14.05072 C 183.686235 14.684557 183.359725 15.737049 182.714656 17.199191 C 182.076542 18.664188 181.276696 20.335036 180.315119 22.211734 C 179.357018 24.089859 178.382775 25.97761 177.399343 27.877843 C 176.417339 29.774598 175.607752 31.518653 174.972008 33.106531 C 174.333593 34.681121 174.014611 35.90331 174.013634 36.776574 C 174.015765 37.691751 174.424124 38.152003 175.23809 38.14895 C 175.887264 38.151376 176.690156 37.908089 177.650865 37.428899 C 178.611574 36.94971 179.639643 36.355955 180.737121 35.652539 C 181.8305 34.939312 182.857189 34.190575 183.820665 33.407755 C 184.780664 32.623507 185.586187 31.938372 186.231706 31.346017 C 185.908713 32.855072 185.324576 34.525093 184.474388 36.35813 C 183.6242 38.191167 182.567424 39.94344 181.306109 41.619855 C 180.053984 43.283789 178.613258 44.654913 176.98331 45.724845 C 175.360317 46.797633 173.611663 47.335259 171.733872 47.336297 C 170.13742 47.335011 168.730061 46.883106 167.513222 45.977104 C 166.304143 45.062098 165.377996 43.893483 164.729875 42.473307 C 164.093613 41.053937 163.776067 39.590701 163.773759 38.082172 Z M 185.477154 5.602362 C 184.192988 5.879656 183.050381 6.020025 182.042377 6.020612 C 180.489886 6.021124 179.366237 5.689776 178.673478 5.031475 C 177.993384 4.36212 177.651305 3.522727 177.652768 2.519628 C 177.653978 1.467662 177.949309 0.31297 178.541617 -0.951404 C 179.132497 -2.2123 179.886188 -3.414472 180.801263 -4.554442 C 183.373617 -4.554734 185.207166 -4.220408 186.300483 -3.547986 C 187.396034 -2.890901 187.944769 -1.901635 187.943211 -0.581618 C 187.9428 1.072083 187.121257 3.13225 185.477154 5.602362 Z M 182.388928 38.082181 C 182.389107 36.607182 182.820838 35.268747 183.678595 34.060543 C 184.552495 32.842713 185.491542 31.753222 186.495734 30.792069 C 187.279237 32.446631 188.306547 33.774628 189.579713 34.780966 C 190.864738 35.78811 192.271749 36.508067 193.802795 36.945742 C 195.343651 37.379318 196.802712 37.596447 198.176501 37.595703 C 199.821819 37.596736 201.222532 37.322598 202.385593 36.776145 C 203.557037 36.22907 204.144987 35.519614 204.144536 34.649827 C 204.145165 34.044615 203.61883 33.584683 202.567582 33.274937 C 201.518568 32.949855 200.210506 32.632184 198.644824 32.318448 C 197.091808 31.993659 195.522949 31.568903 193.938248 31.04418 C 192.361929 30.518835 191.048368 29.808804 189.997564 28.914088 C 188.950238 28.0208 188.422968 26.820916 188.424137 25.313815 C 188.424254 23.156112 189.059335 21.104716 190.332858 19.161056 C 191.61824 17.218201 193.27781 15.502135 195.31014 14.016336 C 197.355757 12.527866 199.57793 11.351641 201.980943 10.47723 C 204.386005 9.607724 206.706847 9.170947 208.9539 9.17118 C 211.379655 9.171646 213.081846 9.825883 214.065379 11.131841 C 215.047484 12.441277 215.539769 14.033152 215.540806 15.910943 C 215.541318 17.463433 215.276701 19.077729 214.751862 20.751781 C 214.226401 22.41745 213.573824 23.937463 212.794132 25.311819 C 212.243819 23.346651 211.406012 21.982685 210.279281 21.223399 C 209.160933 20.463491 208.008407 20.083714 206.826606 20.08202 C 205.818602 20.082607 204.860476 20.278407 203.943844 20.670042 C 203.027212 21.061678 202.278112 21.53023 201.696544 22.0757 C 201.125407 22.625453 200.843992 23.172262 200.842489 23.720225 C 200.841143 24.633974 201.265666 25.312168 202.115436 25.746427 C 202.963778 26.184163 204.005906 26.575498 205.233437 26.921056 C 206.472828 27.267419 207.696144 27.692516 208.903385 28.196348 C 210.120436 28.696081 211.155144 29.441964 212.003411 30.424186 C 212.855156 31.407836 213.278127 32.792453 213.279281 34.580894 C 213.276725 36.546608 212.725379 38.295111 211.616861 39.827024 C 210.525107 41.357693 209.082885 42.663186 207.295721 43.749835 C 205.519174 44.820525 203.54037 45.641561 201.362787 46.21437 C 199.195014 46.78308 197.031252 47.064923 194.877026 47.066234 C 192.673934 47.067797 190.622443 46.749635 188.722552 46.111746 C 186.826944 45.463425 185.292496 44.479836 184.131068 43.161785 C 182.970447 41.831875 182.389733 40.138674 182.388928 38.082181 Z M 231.874551 18.993039 C 230.776553 20.825912 229.73937 22.956015 228.756047 25.380491 C 227.772724 27.804968 226.966743 30.302263 226.343009 32.870327 C 225.727036 35.429386 225.419277 37.871188 225.419734 40.195733 C 225.422158 41.614911 225.566209 42.966272 225.855363 44.251243 C 226.156377 45.537021 226.63409 46.659667 227.280121 47.619802 C 226.173113 47.990157 225.187168 48.174535 224.313904 48.173557 C 222.628101 48.172156 221.128467 47.657981 219.823384 46.63041 C 218.514202 45.593029 217.49341 44.239263 216.754675 42.574639 C 216.028605 40.89896 215.66763 39.145634 215.664796 37.311804 C 215.667468 35.256739 215.986991 33.132662 216.621935 30.943049 C 217.269546 28.742383 218.030295 26.612553 218.902754 24.557038 C 219.771114 22.491713 220.548901 20.637074 221.231209 18.995172 C 220.312262 18.491873 219.638248 17.768125 219.201408 16.832932 C 218.765996 15.894262 218.547098 14.942905 218.548192 13.98029 C 218.550693 12.78663 218.826793 11.827219 219.386302 11.097959 C 220.348917 11.099053 221.396715 11.021343 222.538079 10.86421 C 223.678822 10.698694 224.476692 10.546808 224.933741 10.413455 C 226.542109 7.57514 227.962586 4.749074 229.193125 1.930352 C 230.430618 -0.885514 231.467002 -3.617352 232.293895 -6.264539 C 233.433414 -6.219252 234.639644 -5.910886 235.914012 -5.342919 C 237.195335 -4.772096 238.286302 -3.994986 239.179958 -3.014445 C 240.075664 -2.028998 240.52047 -0.895483 240.52133 0.388955 C 240.520236 1.35157 240.246623 2.34451 239.699062 3.371253 C 239.153551 4.402901 238.566564 5.466282 237.940775 6.574684 C 237.325601 7.667126 236.907943 8.763463 236.682274 9.857361 C 236.860975 9.857593 237.030673 9.850065 237.187267 9.824966 C 237.354293 9.80415 237.525418 9.793144 237.704119 9.793376 C 239.359248 9.79031 240.594724 10.106621 241.411354 10.73045 C 242.235744 11.345275 242.783031 12.11045 243.053214 13.025974 C 243.331158 13.932495 243.471069 14.81891 243.470091 15.692175 C 243.470269 16.285527 243.44933 16.821447 243.402369 17.301982 C 243.360313 17.780468 243.294217 18.139367 243.202031 18.373773 C 242.612272 18.286027 242.025621 18.240194 241.444128 18.241177 C 240.872445 18.238062 240.290952 18.239045 239.701077 18.24065 C 238.413161 18.240083 237.131025 18.294715 235.844858 18.408645 C 234.571978 18.519904 233.248067 18.715861 231.874551 18.993039 Z M 231.874551 18.993039 " stroke="#662e1c" stroke-width="2.574383" stroke-opacity="1" stroke-miterlimit="4"/><g fill="#b38272" fill-opacity="1"><g transform="translate(284.765217, 66.160024)"><g/></g></g></svg>